<?xml version="1.0" encoding="UTF-8" standalone="no"?>
<!DOCTYPE svg PUBLIC "-//W3C//DTD SVG 1.1//EN" "http://www.w3.org/Graphics/SVG/1.1/DTD/svg11.dtd">
<svg xmlns="http://www.w3.org/2000/svg" xmlns:xlink="http://www.w3.org/1999/xlink" version="1.1" width="842pt" height="595pt" viewBox="0 0 842 595">
<g enable-background="new">
<clipPath id="cp0">
<path transform="matrix(.12,0,0,-.12,0,595)" d="M 307 132 L 6708 132 L 6708 4827 L 307 4827 L 307 132 "/>
</clipPath>
<g clip-path="url(#cp0)">
<g id="Layer-1" data-name="Bloques">
<path transform="matrix(.12,0,0,-.12,0,595)" stroke-width="6" stroke-linecap="round" stroke-linejoin="round" fill="none" stroke="#000000" d="M 1517 4099 L 1753 4099 L 1753 3967 L 1517 3967 L 1517 4099 "/>
</g>
</g>
<clipPath id="cp1">
<path transform="matrix(.12,0,0,-.12,0,595)" d="M 307 132 L 6708 132 L 6708 4827 L 307 4827 L 307 132 "/>
</clipPath>
<g clip-path="url(#cp1)">
<g id="Layer-1" data-name="Bloques">
<text xml:space="preserve" transform="matrix(.12 0 -0 .12 0 595)" font-size="82.495" font-family="ArialMT"><tspan y="-4007" x="1545 1604.5614 1659.5856">USB</tspan></text>
</g>
<clipPath id="cp2">
<path transform="matrix(.12,0,0,-.12,0,595)" d="M 307 132 L 6708 132 L 6708 4827 L 307 4827 L 307 132 "/>
</clipPath>
<g clip-path="url(#cp2)">
<path transform="matrix(.12,0,0,-.12,0,595)" stroke-width="6" stroke-linecap="round" stroke-linejoin="round" fill="none" stroke="#000000" d="M 2431 4099 L 2668 4099 L 2668 3967 L 2431 3967 L 2431 4099 "/>
<text xml:space="preserve" transform="matrix(.12 0 -0 .12 0 595)" font-size="82.495" font-family="ArialMT"><tspan y="-4008" x="2460 2510.4046 2528.7186 2547.0325 2569.966 2597.437">Filtro</tspan></text>
<path transform="matrix(.12,0,0,-.12,0,595)" stroke-width="6" stroke-linecap="round" stroke-linejoin="round" fill="none" stroke="#000000" d="M 3656 4099 L 4012 4099 L 4012 3967 L 3656 3967 L 3656 4099 "/>
<text xml:space="preserve" transform="matrix(.12 0 -0 .12 0 595)" font-size="82.495" font-family="ArialMT"><tspan y="-4007" x="3691 3746.0242 3805.5855 3851.4527 3897.3199 3943.187">XC6206</tspan></text>
<path transform="matrix(.12,0,0,-.12,0,595)" d="M 2377 4044 L 2431 4033 L 2377 4033 Z M 2431 4033 L 2377 4033 L 2377 4022 Z "/>
<path transform="matrix(.12,0,0,-.12,0,595)" stroke-width="0" stroke-linecap="round" stroke-miterlimit="10" stroke-linejoin="miter" fill="none" stroke="#000000" d="M 2377 4044 L 2431 4033 L 2377 4033 Z M 2431 4033 L 2377 4033 L 2377 4022 Z "/>
<path transform="matrix(.12,0,0,-.12,0,595)" stroke-width="6" stroke-linecap="round" stroke-linejoin="round" fill="none" stroke="#000000" d="M 1753 4033 L 2431 4033 L 2377 4044 L 2377 4033 L 2377 4022 L 2431 4033 "/>
<path transform="matrix(.12,0,0,-.12,0,595)" stroke-width="6" stroke-linecap="round" stroke-linejoin="round" fill="none" stroke="#000000" d="M 2668 4033 L 3263 4033 L 3342 4094 "/>
<path transform="matrix(.12,0,0,-.12,0,595)" stroke-width="6" stroke-linecap="round" stroke-linejoin="round" fill="none" stroke="#000000" d="M 3368 4033 L 3656 4033 "/>
<path transform="matrix(.12,0,0,-.12,0,595)" d="M 4120 4044 L 4174 4033 L 4120 4033 Z M 4174 4033 L 4120 4033 L 4120 4022 Z "/>
<path transform="matrix(.12,0,0,-.12,0,595)" stroke-width="0" stroke-linecap="round" stroke-miterlimit="10" stroke-linejoin="miter" fill="none" stroke="#000000" d="M 4120 4044 L 4174 4033 L 4120 4033 Z M 4174 4033 L 4120 4033 L 4120 4022 Z "/>
<path transform="matrix(.12,0,0,-.12,0,595)" stroke-width="6" stroke-linecap="round" stroke-linejoin="round" fill="none" stroke="#000000" d="M 4012 4033 L 4174 4033 L 4120 4044 L 4120 4033 L 4120 4022 L 4174 4033 "/>
<text xml:space="preserve" transform="matrix(.12 0 -0 .12 0 595)" font-size="82.495" font-family="ArialMT"><tspan y="-4030" x="4188">V</tspan></text>
<text xml:space="preserve" transform="matrix(.12 0 -0 .12 0 595)" font-size="57.747" font-family="ArialMT"><tspan y="-4012" x="4238 4279.6936">DD</tspan></text>
<text xml:space="preserve" transform="matrix(.12 0 -0 .12 0 595)" font-size="61.871" font-family="ArialMT"><tspan y="-3946" x="4184 4204.603 4239.0036 4256.2038 4290.604 4331.872">(3,3V)</tspan></text>
<text xml:space="preserve" transform="matrix(.12 0 -0 .12 0 595)" font-size="82.495" font-family="ArialMT"><tspan y="-4052" x="1923 1978.0242 2033.0484 2092.6097">VBUS</tspan></text>
<path transform="matrix(.12,0,0,-.12,0,595)" stroke-width="6" stroke-linecap="round" stroke-linejoin="round" fill="none" stroke="#000000" d="M 2022 3376 L 2060 3376 L 2060 3259 L 2022 3259 L 2022 3376 "/>
<path transform="matrix(.12,0,0,-.12,0,595)" stroke-width="6" stroke-linecap="round" stroke-linejoin="round" fill="none" stroke="#000000" d="M 2002 3318 L 2002 3365 "/>
<path transform="matrix(.12,0,0,-.12,0,595)" stroke-width="6" stroke-linecap="round" stroke-linejoin="round" fill="none" stroke="#000000" d="M 2080 3318 L 2080 3365 "/>
<path transform="matrix(.12,0,0,-.12,0,595)" stroke-width="6" stroke-linecap="round" stroke-linejoin="round" fill="none" stroke="#000000" d="M 2002 3318 L 2002 3271 "/>
<path transform="matrix(.12,0,0,-.12,0,595)" stroke-width="6" stroke-linecap="round" stroke-linejoin="round" fill="none" stroke="#000000" d="M 2080 3318 L 2080 3271 "/>
<path transform="matrix(.12,0,0,-.12,0,595)" stroke-width="6" stroke-linecap="round" stroke-linejoin="round" fill="none" stroke="#000000" d="M 2002 3318 L 1984 3318 "/>
<path transform="matrix(.12,0,0,-.12,0,595)" stroke-width="6" stroke-linecap="round" stroke-linejoin="round" fill="none" stroke="#000000" d="M 2080 3318 L 2098 3318 "/>
<path transform="matrix(.12,0,0,-.12,0,595)" stroke-width="6" stroke-linecap="round" stroke-linejoin="round" fill="none" stroke="#000000" d="M 1973 3393 L 2109 3393 L 2109 3242 L 1973 3242 L 1973 3393 "/>
<text xml:space="preserve" transform="matrix(.12 0 -0 .12 0 595)" font-size="82.495" font-family="ArialMT"><tspan y="-3550" x="1880 1935.0242 1994.5856 2044.99 2104.5513 2159.5755">VCTCXO</tspan></text>
<text xml:space="preserve" transform="matrix(.12 0 -0 .12 0 595)" font-size="82.495" font-family="ArialMT"><tspan y="-3451" x="1908 1953.8672 1999.7344 2022.668 2091.3863 2150.9476">26 MHz</tspan></text>
<path transform="matrix(.12,0,0,-.12,0,595)" stroke-width="6" stroke-linecap="round" stroke-linejoin="round" fill="none" stroke="#000000" d="M 2321 3389 L 3034 3389 L 3034 3256 L 2321 3256 L 2321 3389 "/>
<text xml:space="preserve" transform="matrix(.12 0 -0 .12 0 595)" font-size="82.495" font-family="ArialMT"><tspan y="-3296" x="2526 2581.0242 2599.3382 2645.2054 2691.0726 2736.9398 2782.807">Si5351A</tspan></text>
<path transform="matrix(.12,0,0,-.12,0,595)" stroke-width="6" stroke-linecap="round" stroke-linejoin="round" fill="none" stroke="#000000" d="M 2098 3318 L 2321 3318 "/>
<path transform="matrix(.12,0,0,-.12,0,595)" stroke-width="6" stroke-linecap="round" stroke-linejoin="round" fill="none" stroke="#000000" d="M 3034 3322 L 3285 3322 "/>
<path transform="matrix(.12,0,0,-.12,0,595)" stroke-width="6" stroke-linecap="round" stroke-linejoin="round" fill="none" stroke="#000000" d="M 3965 3036.5 C 3965 3074.3316 3934.3316 3105 3896.5 3105 C 3858.6685 3105 3828 3074.3316 3828 3036.5 C 3828 2998.6685 3858.6685 2968 3896.5 2968 C 3934.3316 2968 3965 2998.6685 3965 3036.5 "/>
<path transform="matrix(.12,0,0,-.12,0,595)" stroke-width="6" stroke-linecap="round" stroke-linejoin="round" fill="none" stroke="#000000" d="M 3945 2988 L 3848 3085 "/>
<path transform="matrix(.12,0,0,-.12,0,595)" stroke-width="6" stroke-linecap="round" stroke-linejoin="round" fill="none" stroke="#000000" d="M 3945 3085 L 3848 2988 "/>
<path transform="matrix(.12,0,0,-.12,0,595)" stroke-width="6" stroke-linecap="round" stroke-linejoin="round" fill="none" stroke="#000000" d="M 3965 2647.5 C 3965 2685.3316 3934.3316 2716 3896.5 2716 C 3858.6685 2716 3828 2685.3316 3828 2647.5 C 3828 2609.6685 3858.6685 2579 3896.5 2579 C 3934.3316 2579 3965 2609.6685 3965 2647.5 "/>
<path transform="matrix(.12,0,0,-.12,0,595)" stroke-width="6" stroke-linecap="round" stroke-linejoin="round" fill="none" stroke="#000000" d="M 3945 2599 L 3848 2696 "/>
<path transform="matrix(.12,0,0,-.12,0,595)" stroke-width="6" stroke-linecap="round" stroke-linejoin="round" fill="none" stroke="#000000" d="M 3945 2696 L 3848 2599 "/>
<path transform="matrix(.12,0,0,-.12,0,595)" stroke-width="6" stroke-linecap="round" stroke-linejoin="round" fill="none" stroke="#000000" d="M 3896 3105 L 3896 3322 L 3545 3322 "/>
<path transform="matrix(.12,0,0,-.12,0,595)" d="M 3885 3159 L 3896 3159 L 3896 3105 Z M 3896 3159 L 3896 3105 L 3907 3159 Z "/>
<path transform="matrix(.12,0,0,-.12,0,595)" stroke-width="0" stroke-linecap="round" stroke-miterlimit="10" stroke-linejoin="miter" fill="none" stroke="#000000" d="M 3885 3159 L 3896 3159 L 3896 3105 Z M 3896 3159 L 3896 3105 L 3907 3159 Z "/>
<path transform="matrix(.12,0,0,-.12,0,595)" stroke-width="6" stroke-linecap="round" stroke-linejoin="round" fill="none" stroke="#000000" d="M 3896 3159 L 3885 3159 L 3896 3105 L 3907 3159 L 3896 3159 "/>
<path transform="matrix(.12,0,0,-.12,0,595)" stroke-width="6" stroke-linecap="round" stroke-linejoin="round" fill="none" stroke="#000000" d="M 3896 2716 L 3896 2811 "/>
<path transform="matrix(.12,0,0,-.12,0,595)" d="M 3885 2770 L 3896 2770 L 3896 2716 Z M 3896 2770 L 3896 2716 L 3907 2770 Z "/>
<path transform="matrix(.12,0,0,-.12,0,595)" stroke-width="0" stroke-linecap="round" stroke-miterlimit="10" stroke-linejoin="miter" fill="none" stroke="#000000" d="M 3885 2770 L 3896 2770 L 3896 2716 Z M 3896 2770 L 3896 2716 L 3907 2770 Z "/>
<path transform="matrix(.12,0,0,-.12,0,595)" stroke-width="6" stroke-linecap="round" stroke-linejoin="round" fill="none" stroke="#000000" d="M 3896 2770 L 3885 2770 L 3896 2716 L 3907 2770 L 3896 2770 "/>
<path transform="matrix(.12,0,0,-.12,0,595)" stroke-width="6" stroke-linecap="round" stroke-linejoin="round" fill="none" stroke="#000000" d="M 3625 3322 L 3625 2811 L 3896 2811 "/>
<path transform="matrix(.12,0,0,-.12,0,595)" stroke-width="6" stroke-linecap="round" stroke-linejoin="round" fill="none" stroke="#000000" d="M 3153 2942 L 3404 2942 L 3404 3036 L 3828 3036 "/>
<path transform="matrix(.12,0,0,-.12,0,595)" d="M 3773 3047 L 3828 3036 L 3773 3036 Z M 3828 3036 L 3773 3036 L 3773 3025 Z "/>
<path transform="matrix(.12,0,0,-.12,0,595)" stroke-width="0" stroke-linecap="round" stroke-miterlimit="10" stroke-linejoin="miter" fill="none" stroke="#000000" d="M 3773 3047 L 3828 3036 L 3773 3036 Z M 3828 3036 L 3773 3036 L 3773 3025 Z "/>
<path transform="matrix(.12,0,0,-.12,0,595)" stroke-width="6" stroke-linecap="round" stroke-linejoin="round" fill="none" stroke="#000000" d="M 3773 3036 L 3773 3025 L 3828 3036 L 3773 3047 L 3773 3036 "/>
<path transform="matrix(.12,0,0,-.12,0,595)" stroke-width="6" stroke-linecap="round" stroke-linejoin="round" fill="none" stroke="#000000" d="M 3828 2647 L 3404 2647 "/>
<path transform="matrix(.12,0,0,-.12,0,595)" d="M 3773 2659 L 3828 2647 L 3773 2647 Z M 3828 2647 L 3773 2647 L 3773 2636 Z "/>
<path transform="matrix(.12,0,0,-.12,0,595)" stroke-width="0" stroke-linecap="round" stroke-miterlimit="10" stroke-linejoin="miter" fill="none" stroke="#000000" d="M 3773 2659 L 3828 2647 L 3773 2647 Z M 3828 2647 L 3773 2647 L 3773 2636 Z "/>
<path transform="matrix(.12,0,0,-.12,0,595)" stroke-width="6" stroke-linecap="round" stroke-linejoin="round" fill="none" stroke="#000000" d="M 3773 2647 L 3773 2636 L 3828 2647 L 3773 2659 L 3773 2647 "/>
<path transform="matrix(.12,0,0,-.12,0,595)" stroke-width="6" stroke-linecap="round" stroke-linejoin="round" fill="none" stroke="#000000" d="M 2542 2799 L 2542 3256 "/>
<path transform="matrix(.12,0,0,-.12,0,595)" stroke-width="6" stroke-linecap="round" stroke-linejoin="round" fill="none" stroke="#000000" d="M 2893 2942 L 2542 2942 "/>
<path transform="matrix(.12,0,0,-.12,0,595)" stroke-width="6" stroke-linecap="round" stroke-linejoin="round" fill="none" stroke="#000000" d="M 2542 2468 L 2542 2277 "/>
<path transform="matrix(.12,0,0,-.12,0,595)" stroke-width="6" stroke-linecap="round" stroke-linejoin="round" fill="none" stroke="#000000" d="M 2718 2108 L 2895 2108 "/>
<path transform="matrix(.12,0,0,-.12,0,595)" stroke-width="6" stroke-linecap="round" stroke-linejoin="round" fill="none" stroke="#000000" d="M 3155 2108 L 3404 2108 L 3404 2647 "/>
<path transform="matrix(.12,0,0,-.12,0,595)" d="M 2838 2953 L 2893 2942 L 2838 2942 Z M 2893 2942 L 2838 2942 L 2838 2930 Z "/>
<path transform="matrix(.12,0,0,-.12,0,595)" stroke-width="0" stroke-linecap="round" stroke-miterlimit="10" stroke-linejoin="miter" fill="none" stroke="#000000" d="M 2838 2953 L 2893 2942 L 2838 2942 Z M 2893 2942 L 2838 2942 L 2838 2930 Z "/>
<path transform="matrix(.12,0,0,-.12,0,595)" stroke-width="6" stroke-linecap="round" stroke-linejoin="round" fill="none" stroke="#000000" d="M 2838 2942 L 2838 2930 L 2893 2942 L 2838 2953 L 2838 2942 "/>
<path transform="matrix(.12,0,0,-.12,0,595)" d="M 2531 2332 L 2542 2332 L 2542 2277 Z M 2542 2332 L 2542 2277 L 2553 2332 Z "/>
<path transform="matrix(.12,0,0,-.12,0,595)" stroke-width="0" stroke-linecap="round" stroke-miterlimit="10" stroke-linejoin="miter" fill="none" stroke="#000000" d="M 2531 2332 L 2542 2332 L 2542 2277 Z M 2542 2332 L 2542 2277 L 2553 2332 Z "/>
<path transform="matrix(.12,0,0,-.12,0,595)" stroke-width="6" stroke-linecap="round" stroke-linejoin="round" fill="none" stroke="#000000" d="M 2542 2332 L 2531 2332 L 2542 2277 L 2553 2332 L 2542 2332 "/>
<path transform="matrix(.12,0,0,-.12,0,595)" d="M 2531 2853 L 2542 2853 L 2542 2799 Z M 2542 2853 L 2542 2799 L 2553 2853 Z "/>
<path transform="matrix(.12,0,0,-.12,0,595)" stroke-width="0" stroke-linecap="round" stroke-miterlimit="10" stroke-linejoin="miter" fill="none" stroke="#000000" d="M 2531 2853 L 2542 2853 L 2542 2799 Z M 2542 2853 L 2542 2799 L 2553 2853 Z "/>
<path transform="matrix(.12,0,0,-.12,0,595)" stroke-width="6" stroke-linecap="round" stroke-linejoin="round" fill="none" stroke="#000000" d="M 2542 2853 L 2531 2853 L 2542 2799 L 2553 2853 L 2542 2853 "/>
<path transform="matrix(.12,0,0,-.12,0,595)" stroke-width="6" stroke-linecap="round" stroke-linejoin="round" fill="none" stroke="#000000" d="M 1912 2175 L 2148 2175 L 2148 2042 L 1912 2042 L 1912 2175 "/>
<text xml:space="preserve" transform="matrix(.12 0 -0 .12 0 595)" font-size="82.495" font-family="ArialMT"><tspan y="-2078" x="1972 2022.4044">TX</tspan></text>
<path transform="matrix(.12,0,0,-.12,0,595)" stroke-width="6" stroke-linecap="round" stroke-linejoin="round" fill="none" stroke="#000000" d="M 2366 2108 L 2148 2108 "/>
<path transform="matrix(.12,0,0,-.12,0,595)" stroke-width="6" stroke-linecap="round" stroke-linejoin="round" fill="none" stroke="#000000" d="M 1912 1916 L 2148 1916 L 2148 1784 L 1912 1784 L 1912 1916 "/>
<text xml:space="preserve" transform="matrix(.12 0 -0 .12 0 595)" font-size="82.495" font-family="ArialMT"><tspan y="-1820" x="1945 2004.5614 2064.1229">DUT</tspan></text>
<path transform="matrix(.12,0,0,-.12,0,595)" stroke-width="6" stroke-linecap="round" stroke-linejoin="round" fill="none" stroke="#000000" d="M 2030 2042 L 2030 1916 "/>
<text xml:space="preserve" transform="matrix(.12 0 -0 .12 0 595)" font-size="82.495" font-family="ArialMT"><tspan y="-2903" x="4663 4685.9338 4731.801">I2S</tspan></text>
<text xml:space="preserve" transform="matrix(.12 0 -0 .12 0 595)" font-size="82.495" font-family="ArialMT"><tspan y="-2804" x="4606 4665.5617 4711.4289 4757.296 4803.163">C&#x00f3;dec</tspan></text>
<text xml:space="preserve" transform="matrix(.12 0 -0 .12 0 595)" font-size="82.495" font-family="ArialMT"><tspan y="-2705" x="4650 4700.4045 4746.2717">TLV</tspan></text>
<text xml:space="preserve" transform="matrix(.12 0 -0 .12 0 595)" font-size="82.495" font-family="ArialMT"><tspan y="-2606" x="4658 4703.867 4749.7346">320</tspan></text>
<text xml:space="preserve" transform="matrix(.12 0 -0 .12 0 595)" font-size="82.495" font-family="ArialMT"><tspan y="-2507" x="4659 4714.0246 4736.958">AIC</tspan></text>
<text xml:space="preserve" transform="matrix(.12 0 -0 .12 0 595)" font-size="82.495" font-family="ArialMT"><tspan y="-2408" x="4635 4680.867 4726.7346 4772.6018">3204</tspan></text>
<path transform="matrix(.12,0,0,-.12,0,595)" stroke-width="6" stroke-linecap="round" stroke-linejoin="round" fill="none" stroke="#000000" d="M 4550 3157 L 4902 3157 L 4902 2137 L 4550 2137 L 4550 3157 "/>
<path transform="matrix(.12,0,0,-.12,0,595)" stroke-width="6" stroke-linecap="round" stroke-linejoin="round" fill="none" stroke="#000000" d="M 3965 3036 L 4550 3036 "/>
<path transform="matrix(.12,0,0,-.12,0,595)" stroke-width="6" stroke-linecap="round" stroke-linejoin="round" fill="none" stroke="#000000" d="M 3965 2647 L 4550 2647 "/>
<text xml:space="preserve" transform="matrix(.12 0 -0 .12 0 595)" font-size="82.495" font-family="ArialMT"><tspan y="-1392" x="4407 4452.867">uC</tspan></text>
<text xml:space="preserve" transform="matrix(.12 0 -0 .12 0 595)" font-size="82.495" font-family="ArialMT"><tspan y="-1292" x="4328 4383.0246 4433.4289 4502.147 4548.014">STM32</tspan></text>
<text xml:space="preserve" transform="matrix(.12 0 -0 .12 0 595)" font-size="82.495" font-family="ArialMT"><tspan y="-1193" x="4366 4416.4045 4462.2717 4508.1389">F072</tspan></text>
<path transform="matrix(.12,0,0,-.12,0,595)" stroke-width="6" stroke-linecap="round" stroke-linejoin="round" fill="none" stroke="#000000" d="M 4177 1589 L 4727 1589 L 4727 999 L 4177 999 L 4177 1589 "/>
<path transform="matrix(.12,0,0,-.12,0,595)" stroke-width="6" stroke-linecap="round" stroke-linejoin="round" fill="none" stroke="#000000" d="M 4726 2137 L 4726 1940 L 4508 1940 L 4508 1589 "/>
<path transform="matrix(.12,0,0,-.12,0,595)" stroke-width="6" stroke-linecap="round" stroke-linejoin="round" fill="none" stroke="#000000" d="M 4727 1294 L 5149 1294 L 5149 2774 L 4902 2774 "/>
<path transform="matrix(.12,0,0,-.12,0,595)" stroke-width="6" stroke-linecap="round" stroke-linejoin="round" fill="none" stroke="#000000" d="M 5149 2774 L 5149 3651 L 2677 3651 L 2677 3389 "/>
<path transform="matrix(.12,0,0,-.12,0,595)" stroke-width="6" stroke-linecap="round" stroke-linejoin="round" fill="none" stroke="#000000" d="M 2891 3389 L 2891 3563 L 4726 3563 L 4726 3157 "/>
<path transform="matrix(.12,0,0,-.12,0,595)" stroke-width="6" stroke-linecap="round" stroke-linejoin="round" fill="none" stroke="#000000" d="M 4516 3563 L 5256 3563 L 5256 1757 L 4614 1757 L 4614 1589 "/>
<path transform="matrix(.12,0,0,-.12,0,595)" d="M 2902 3421 L 2891 3476 L 2891 3421 Z M 2891 3476 L 2891 3421 L 2880 3421 Z "/>
<path transform="matrix(.12,0,0,-.12,0,595)" stroke-width="0" stroke-linecap="round" stroke-miterlimit="10" stroke-linejoin="miter" fill="none" stroke="#000000" d="M 2902 3421 L 2891 3476 L 2891 3421 Z M 2891 3476 L 2891 3421 L 2880 3421 Z "/>
<path transform="matrix(.12,0,0,-.12,0,595)" stroke-width="6" stroke-linecap="round" stroke-linejoin="round" fill="none" stroke="#000000" d="M 2891 3421 L 2902 3421 L 2891 3476 L 2880 3421 L 2891 3421 "/>
<path transform="matrix(.12,0,0,-.12,0,595)" d="M 2666 3443 L 2677 3443 L 2677 3389 Z M 2677 3443 L 2677 3389 L 2689 3443 Z "/>
<path transform="matrix(.12,0,0,-.12,0,595)" stroke-width="0" stroke-linecap="round" stroke-miterlimit="10" stroke-linejoin="miter" fill="none" stroke="#000000" d="M 2666 3443 L 2677 3443 L 2677 3389 Z M 2677 3443 L 2677 3389 L 2689 3443 Z "/>
<path transform="matrix(.12,0,0,-.12,0,595)" stroke-width="6" stroke-linecap="round" stroke-linejoin="round" fill="none" stroke="#000000" d="M 2677 3443 L 2666 3443 L 2677 3389 L 2689 3443 L 2677 3443 "/>
<path transform="matrix(.12,0,0,-.12,0,595)" d="M 4957 2785 L 4957 2774 L 4902 2774 Z M 4957 2774 L 4902 2774 L 4957 2762 Z "/>
<path transform="matrix(.12,0,0,-.12,0,595)" stroke-width="0" stroke-linecap="round" stroke-miterlimit="10" stroke-linejoin="miter" fill="none" stroke="#000000" d="M 4957 2785 L 4957 2774 L 4902 2774 Z M 4957 2774 L 4902 2774 L 4957 2762 Z "/>
<path transform="matrix(.12,0,0,-.12,0,595)" stroke-width="6" stroke-linecap="round" stroke-linejoin="round" fill="none" stroke="#000000" d="M 4957 2774 L 4957 2785 L 4902 2774 L 4957 2762 L 4957 2774 "/>
<path transform="matrix(.12,0,0,-.12,0,595)" d="M 4771 1305 L 4826 1294 L 4771 1294 Z M 4826 1294 L 4771 1294 L 4771 1282 Z "/>
<path transform="matrix(.12,0,0,-.12,0,595)" stroke-width="0" stroke-linecap="round" stroke-miterlimit="10" stroke-linejoin="miter" fill="none" stroke="#000000" d="M 4771 1305 L 4826 1294 L 4771 1294 Z M 4826 1294 L 4771 1294 L 4771 1282 Z "/>
<path transform="matrix(.12,0,0,-.12,0,595)" stroke-width="6" stroke-linecap="round" stroke-linejoin="round" fill="none" stroke="#000000" d="M 4771 1294 L 4771 1282 L 4826 1294 L 4771 1305 L 4771 1294 "/>
<path transform="matrix(.12,0,0,-.12,0,595)" stroke-width="6" stroke-linecap="round" stroke-linejoin="round" fill="none" stroke="#000000" d="M 1635 3967 L 1635 3896 L 1635 1273 L 4177 1273 "/>
<path transform="matrix(.12,0,0,-.12,0,595)" d="M 1646 3912 L 1635 3967 L 1635 3912 Z M 1635 3967 L 1635 3912 L 1623 3912 Z "/>
<path transform="matrix(.12,0,0,-.12,0,595)" stroke-width="0" stroke-linecap="round" stroke-miterlimit="10" stroke-linejoin="miter" fill="none" stroke="#000000" d="M 1646 3912 L 1635 3967 L 1635 3912 Z M 1635 3967 L 1635 3912 L 1623 3912 Z "/>
<path transform="matrix(.12,0,0,-.12,0,595)" stroke-width="6" stroke-linecap="round" stroke-linejoin="round" fill="none" stroke="#000000" d="M 1635 3912 L 1646 3912 L 1635 3967 L 1623 3912 L 1635 3912 "/>
<path transform="matrix(.12,0,0,-.12,0,595)" d="M 4602 1643 L 4614 1643 L 4614 1589 Z M 4614 1643 L 4614 1589 L 4625 1643 Z "/>
<path transform="matrix(.12,0,0,-.12,0,595)" stroke-width="0" stroke-linecap="round" stroke-miterlimit="10" stroke-linejoin="miter" fill="none" stroke="#000000" d="M 4602 1643 L 4614 1643 L 4614 1589 Z M 4614 1643 L 4614 1589 L 4625 1643 Z "/>
<path transform="matrix(.12,0,0,-.12,0,595)" stroke-width="6" stroke-linecap="round" stroke-linejoin="round" fill="none" stroke="#000000" d="M 4614 1643 L 4602 1643 L 4614 1589 L 4625 1643 L 4614 1643 "/>
<path transform="matrix(.12,0,0,-.12,0,595)" d="M 4497 1643 L 4508 1643 L 4508 1589 Z M 4508 1643 L 4508 1589 L 4519 1643 Z "/>
<path transform="matrix(.12,0,0,-.12,0,595)" stroke-width="0" stroke-linecap="round" stroke-miterlimit="10" stroke-linejoin="miter" fill="none" stroke="#000000" d="M 4497 1643 L 4508 1643 L 4508 1589 Z M 4508 1643 L 4508 1589 L 4519 1643 Z "/>
<path transform="matrix(.12,0,0,-.12,0,595)" stroke-width="6" stroke-linecap="round" stroke-linejoin="round" fill="none" stroke="#000000" d="M 4508 1643 L 4497 1643 L 4508 1589 L 4519 1643 L 4508 1643 "/>
<text xml:space="preserve" transform="matrix(.12 0 -0 .12 0 595)" font-size="82.495" font-family="ArialMT"><tspan y="-3753" x="1397 1456.5614 1502.4286 1525.3622 1571.2294">Datos</tspan></text>
<path transform="matrix(.12,0,0,-.12,0,595)" d="M 4123 1284 L 4177 1273 L 4123 1273 Z M 4177 1273 L 4123 1273 L 4123 1262 Z "/>
<path transform="matrix(.12,0,0,-.12,0,595)" stroke-width="0" stroke-linecap="round" stroke-miterlimit="10" stroke-linejoin="miter" fill="none" stroke="#000000" d="M 4123 1284 L 4177 1273 L 4123 1273 Z M 4177 1273 L 4123 1273 L 4123 1262 Z "/>
<path transform="matrix(.12,0,0,-.12,0,595)" stroke-width="6" stroke-linecap="round" stroke-linejoin="round" fill="none" stroke="#000000" d="M 4123 1273 L 4123 1262 L 4177 1273 L 4123 1284 L 4123 1273 "/>
<path transform="matrix(.12,0,0,-.12,0,595)" stroke-width="6" stroke-linecap="round" stroke-linejoin="round" fill="none" stroke="#000000" d="M 4369 1781 L 4369 1589 "/>
<path transform="matrix(.12,0,0,-.12,0,595)" d="M 4357 1643 L 4369 1643 L 4369 1589 Z M 4369 1643 L 4369 1589 L 4380 1643 Z "/>
<path transform="matrix(.12,0,0,-.12,0,595)" stroke-width="0" stroke-linecap="round" stroke-miterlimit="10" stroke-linejoin="miter" fill="none" stroke="#000000" d="M 4357 1643 L 4369 1643 L 4369 1589 Z M 4369 1643 L 4369 1589 L 4380 1643 Z "/>
<path transform="matrix(.12,0,0,-.12,0,595)" stroke-width="6" stroke-linecap="round" stroke-linejoin="round" fill="none" stroke="#000000" d="M 4369 1643 L 4357 1643 L 4369 1589 L 4380 1643 L 4369 1643 "/>
<text xml:space="preserve" transform="matrix(.12 0 -0 .12 0 595)" font-size="82.495" font-family="ArialMT"><tspan y="-1827" x="4310">V</tspan></text>
<text xml:space="preserve" transform="matrix(.12 0 -0 .12 0 595)" font-size="57.747" font-family="ArialMT"><tspan y="-1809" x="4361 4402.6936">DD</tspan></text>
<path transform="matrix(.12,0,0,-.12,0,595)" stroke-width="6" stroke-linecap="round" stroke-linejoin="round" fill="none" stroke="#000000" d="M 4834 3350 L 4834 3157 "/>
<path transform="matrix(.12,0,0,-.12,0,595)" d="M 4823 3212 L 4834 3212 L 4834 3157 Z M 4834 3212 L 4834 3157 L 4845 3212 Z "/>
<path transform="matrix(.12,0,0,-.12,0,595)" stroke-width="0" stroke-linecap="round" stroke-miterlimit="10" stroke-linejoin="miter" fill="none" stroke="#000000" d="M 4823 3212 L 4834 3212 L 4834 3157 Z M 4834 3212 L 4834 3157 L 4845 3212 Z "/>
<path transform="matrix(.12,0,0,-.12,0,595)" stroke-width="6" stroke-linecap="round" stroke-linejoin="round" fill="none" stroke="#000000" d="M 4834 3212 L 4823 3212 L 4834 3157 L 4845 3212 L 4834 3212 "/>
<text xml:space="preserve" transform="matrix(.12 0 -0 .12 0 595)" font-size="82.495" font-family="ArialMT"><tspan y="-3396" x="4775">V</tspan></text>
<text xml:space="preserve" transform="matrix(.12 0 -0 .12 0 595)" font-size="57.747" font-family="ArialMT"><tspan y="-3377" x="4826 4867.6936">DD</tspan></text>
<path transform="matrix(.12,0,0,-.12,0,595)" stroke-width="6" stroke-linecap="round" stroke-linejoin="round" fill="none" stroke="#000000" d="M 2457 3581 L 2457 3389 "/>
<path transform="matrix(.12,0,0,-.12,0,595)" d="M 2445 3443 L 2457 3443 L 2457 3389 Z M 2457 3443 L 2457 3389 L 2468 3443 Z "/>
<path transform="matrix(.12,0,0,-.12,0,595)" stroke-width="0" stroke-linecap="round" stroke-miterlimit="10" stroke-linejoin="miter" fill="none" stroke="#000000" d="M 2445 3443 L 2457 3443 L 2457 3389 Z M 2457 3443 L 2457 3389 L 2468 3443 Z "/>
<path transform="matrix(.12,0,0,-.12,0,595)" stroke-width="6" stroke-linecap="round" stroke-linejoin="round" fill="none" stroke="#000000" d="M 2457 3443 L 2445 3443 L 2457 3389 L 2468 3443 L 2457 3443 "/>
<text xml:space="preserve" transform="matrix(.12 0 -0 .12 0 595)" font-size="82.495" font-family="ArialMT"><tspan y="-3627" x="2398">V</tspan></text>
<text xml:space="preserve" transform="matrix(.12 0 -0 .12 0 595)" font-size="57.747" font-family="ArialMT"><tspan y="-3609" x="2449 2490.6934">DD</tspan></text>
<path transform="matrix(.12,0,0,-.12,0,595)" stroke-width="6" stroke-linecap="round" stroke-linejoin="round" fill="none" stroke="#000000" d="M 1780 3318 L 1973 3318 "/>
<path transform="matrix(.12,0,0,-.12,0,595)" d="M 1918 3329 L 1973 3318 L 1918 3318 Z M 1973 3318 L 1918 3318 L 1918 3307 Z "/>
<path transform="matrix(.12,0,0,-.12,0,595)" stroke-width="0" stroke-linecap="round" stroke-miterlimit="10" stroke-linejoin="miter" fill="none" stroke="#000000" d="M 1918 3329 L 1973 3318 L 1918 3318 Z M 1973 3318 L 1918 3318 L 1918 3307 Z "/>
<path transform="matrix(.12,0,0,-.12,0,595)" stroke-width="6" stroke-linecap="round" stroke-linejoin="round" fill="none" stroke="#000000" d="M 1918 3318 L 1918 3307 L 1973 3318 L 1918 3329 L 1918 3318 "/>
<text xml:space="preserve" transform="matrix(.12 0 -0 .12 0 595)" font-size="82.495" font-family="ArialMT"><tspan y="-3353" x="1682">V</tspan></text>
<text xml:space="preserve" transform="matrix(.12 0 -0 .12 0 595)" font-size="57.747" font-family="ArialMT"><tspan y="-3334" x="1733 1774.6934">DD</tspan></text>
<path transform="matrix(.12,0,0,-.12,0,595)" stroke-width="6" stroke-linecap="round" stroke-linejoin="round" fill="none" stroke="#000000" d="M 1784 1060 L 2090 1060 L 2090 927 L 1784 927 L 1784 1060 "/>
<path transform="matrix(.12,0,0,-.12,0,595)" stroke-width="6" stroke-linecap="round" stroke-linejoin="round" fill="none" stroke="#000000" d="M 1784 927 L 2090 927 L 2090 794 L 1784 794 L 1784 927 "/>
<text xml:space="preserve" transform="matrix(.12 0 -0 .12 0 595)" font-size="82.495" font-family="ArialMT"><tspan y="-966" x="1796 1851.0242 1915.2053 1979.3865 2029.7909">BOOT0</tspan></text>
<path transform="matrix(.12,0,0,-.12,0,595)" stroke-width="6" stroke-linecap="round" stroke-linejoin="round" fill="none" stroke="#000000" d="M 1784 794 L 2090 794 L 2090 662 L 1784 662 L 1784 794 "/>
<text xml:space="preserve" transform="matrix(.12 0 -0 .12 0 595)" font-size="82.495" font-family="ArialMT"><tspan y="-833" x="1892 1947.0242">P1</tspan></text>
<text xml:space="preserve" transform="matrix(.12 0 -0 .12 0 595)" font-size="82.495" font-family="ArialMT"><tspan y="-1106" x="1789 1844.0242 1889.8914 1935.7586 1963.2294 1986.163 2032.0302">Puertos</tspan></text>
<path transform="matrix(.12,0,0,-.12,0,595)" stroke-width="6" stroke-linecap="round" stroke-linejoin="round" fill="none" stroke="#000000" d="M 3493 4033 L 3493 4225 "/>
<path transform="matrix(.12,0,0,-.12,0,595)" d="M 3504 4171 L 3493 4225 L 3493 4171 Z M 3493 4225 L 3493 4171 L 3481 4171 Z "/>
<path transform="matrix(.12,0,0,-.12,0,595)" stroke-width="0" stroke-linecap="round" stroke-miterlimit="10" stroke-linejoin="miter" fill="none" stroke="#000000" d="M 3504 4171 L 3493 4225 L 3493 4171 Z M 3493 4225 L 3493 4171 L 3481 4171 Z "/>
<path transform="matrix(.12,0,0,-.12,0,595)" stroke-width="6" stroke-linecap="round" stroke-linejoin="round" fill="none" stroke="#000000" d="M 3493 4171 L 3504 4171 L 3493 4225 L 3481 4171 L 3493 4171 "/>
<text xml:space="preserve" transform="matrix(.12 0 -0 .12 0 595)" font-size="82.495" font-family="ArialMT"><tspan y="-4191" x="3512 3560.177 3606.0443">+5V</tspan></text>
<path transform="matrix(.12,0,0,-.12,0,595)" stroke-width="6" stroke-linecap="round" stroke-linejoin="round" fill="none" stroke="#000000" d="M 4062 3394 L 4062 3377 "/>
<path transform="matrix(.12,0,0,-.12,0,595)" stroke-width="6" stroke-linecap="round" stroke-linejoin="round" fill="none" stroke="#000000" d="M 4062 3355 L 4062 3341 "/>
<path transform="matrix(.12,0,0,-.12,0,595)" stroke-width="6" stroke-linecap="round" stroke-linejoin="round" fill="none" stroke="#000000" d="M 4062 3320 L 4062 3306 "/>
<path transform="matrix(.12,0,0,-.12,0,595)" stroke-width="6" stroke-linecap="round" stroke-linejoin="round" fill="none" stroke="#000000" d="M 4062 3284 L 4062 3270 "/>
<path transform="matrix(.12,0,0,-.12,0,595)" stroke-width="6" stroke-linecap="round" stroke-linejoin="round" fill="none" stroke="#000000" d="M 4062 3249 L 4062 3235 "/>
<path transform="matrix(.12,0,0,-.12,0,595)" stroke-width="6" stroke-linecap="round" stroke-linejoin="round" fill="none" stroke="#000000" d="M 4062 3214 L 4062 3199 "/>
<path transform="matrix(.12,0,0,-.12,0,595)" stroke-width="6" stroke-linecap="round" stroke-linejoin="round" fill="none" stroke="#000000" d="M 4062 3178 L 4062 3164 "/>
<path transform="matrix(.12,0,0,-.12,0,595)" stroke-width="6" stroke-linecap="round" stroke-linejoin="round" fill="none" stroke="#000000" d="M 4062 3143 L 4062 3129 "/>
<path transform="matrix(.12,0,0,-.12,0,595)" stroke-width="6" stroke-linecap="round" stroke-linejoin="round" fill="none" stroke="#000000" d="M 4062 3107 L 4062 3093 "/>
<path transform="matrix(.12,0,0,-.12,0,595)" stroke-width="6" stroke-linecap="round" stroke-linejoin="round" fill="none" stroke="#000000" d="M 4062 3072 L 4062 3058 "/>
<path transform="matrix(.12,0,0,-.12,0,595)" stroke-width="6" stroke-linecap="round" stroke-linejoin="round" fill="none" stroke="#000000" d="M 4062 3036 L 4062 3022 "/>
<path transform="matrix(.12,0,0,-.12,0,595)" stroke-width="6" stroke-linecap="round" stroke-linejoin="round" fill="none" stroke="#000000" d="M 4062 3001 L 4062 2987 "/>
<path transform="matrix(.12,0,0,-.12,0,595)" stroke-width="6" stroke-linecap="round" stroke-linejoin="round" fill="none" stroke="#000000" d="M 4062 2966 L 4062 2951 "/>
<path transform="matrix(.12,0,0,-.12,0,595)" stroke-width="6" stroke-linecap="round" stroke-linejoin="round" fill="none" stroke="#000000" d="M 4062 2930 L 4062 2916 "/>
<path transform="matrix(.12,0,0,-.12,0,595)" stroke-width="6" stroke-linecap="round" stroke-linejoin="round" fill="none" stroke="#000000" d="M 4062 2895 L 4062 2881 "/>
<path transform="matrix(.12,0,0,-.12,0,595)" stroke-width="6" stroke-linecap="round" stroke-linejoin="round" fill="none" stroke="#000000" d="M 4062 2859 L 4062 2845 "/>
<path transform="matrix(.12,0,0,-.12,0,595)" stroke-width="6" stroke-linecap="round" stroke-linejoin="round" fill="none" stroke="#000000" d="M 4062 2824 L 4062 2810 "/>
<path transform="matrix(.12,0,0,-.12,0,595)" stroke-width="6" stroke-linecap="round" stroke-linejoin="round" fill="none" stroke="#000000" d="M 4062 2788 L 4062 2774 "/>
<path transform="matrix(.12,0,0,-.12,0,595)" stroke-width="6" stroke-linecap="round" stroke-linejoin="round" fill="none" stroke="#000000" d="M 4062 2753 L 4062 2739 "/>
<path transform="matrix(.12,0,0,-.12,0,595)" stroke-width="6" stroke-linecap="round" stroke-linejoin="round" fill="none" stroke="#000000" d="M 4062 2718 L 4062 2703 "/>
<path transform="matrix(.12,0,0,-.12,0,595)" stroke-width="6" stroke-linecap="round" stroke-linejoin="round" fill="none" stroke="#000000" d="M 4062 2682 L 4062 2668 "/>
<path transform="matrix(.12,0,0,-.12,0,595)" stroke-width="6" stroke-linecap="round" stroke-linejoin="round" fill="none" stroke="#000000" d="M 4062 2647 L 4062 2633 "/>
<path transform="matrix(.12,0,0,-.12,0,595)" stroke-width="6" stroke-linecap="round" stroke-linejoin="round" fill="none" stroke="#000000" d="M 4062 2611 L 4062 2597 "/>
<path transform="matrix(.12,0,0,-.12,0,595)" stroke-width="6" stroke-linecap="round" stroke-linejoin="round" fill="none" stroke="#000000" d="M 4062 2576 L 4062 2562 "/>
<path transform="matrix(.12,0,0,-.12,0,595)" stroke-width="6" stroke-linecap="round" stroke-linejoin="round" fill="none" stroke="#000000" d="M 4062 2540 L 4062 2526 "/>
<path transform="matrix(.12,0,0,-.12,0,595)" stroke-width="6" stroke-linecap="round" stroke-linejoin="round" fill="none" stroke="#000000" d="M 4062 2505 L 4062 2491 "/>
<path transform="matrix(.12,0,0,-.12,0,595)" stroke-width="6" stroke-linecap="round" stroke-linejoin="round" fill="none" stroke="#000000" d="M 4062 2470 L 4062 2452 L 4042 2452 "/>
<path transform="matrix(.12,0,0,-.12,0,595)" stroke-width="6" stroke-linecap="round" stroke-linejoin="round" fill="none" stroke="#000000" d="M 4020 2452 L 4006 2452 "/>
<path transform="matrix(.12,0,0,-.12,0,595)" stroke-width="6" stroke-linecap="round" stroke-linejoin="round" fill="none" stroke="#000000" d="M 3985 2452 L 3971 2452 "/>
<path transform="matrix(.12,0,0,-.12,0,595)" stroke-width="6" stroke-linecap="round" stroke-linejoin="round" fill="none" stroke="#000000" d="M 3950 2452 L 3935 2452 "/>
<path transform="matrix(.12,0,0,-.12,0,595)" stroke-width="6" stroke-linecap="round" stroke-linejoin="round" fill="none" stroke="#000000" d="M 3914 2452 L 3900 2452 "/>
<path transform="matrix(.12,0,0,-.12,0,595)" stroke-width="6" stroke-linecap="round" stroke-linejoin="round" fill="none" stroke="#000000" d="M 3879 2452 L 3865 2452 "/>
<path transform="matrix(.12,0,0,-.12,0,595)" stroke-width="6" stroke-linecap="round" stroke-linejoin="round" fill="none" stroke="#000000" d="M 3843 2452 L 3829 2452 "/>
<path transform="matrix(.12,0,0,-.12,0,595)" stroke-width="6" stroke-linecap="round" stroke-linejoin="round" fill="none" stroke="#000000" d="M 3808 2452 L 3794 2452 "/>
<path transform="matrix(.12,0,0,-.12,0,595)" stroke-width="6" stroke-linecap="round" stroke-linejoin="round" fill="none" stroke="#000000" d="M 3772 2452 L 3758 2452 "/>
<path transform="matrix(.12,0,0,-.12,0,595)" stroke-width="6" stroke-linecap="round" stroke-linejoin="round" fill="none" stroke="#000000" d="M 3737 2452 L 3717 2452 L 3717 2470 "/>
<path transform="matrix(.12,0,0,-.12,0,595)" stroke-width="6" stroke-linecap="round" stroke-linejoin="round" fill="none" stroke="#000000" d="M 3717 2491 L 3717 2505 "/>
<path transform="matrix(.12,0,0,-.12,0,595)" stroke-width="6" stroke-linecap="round" stroke-linejoin="round" fill="none" stroke="#000000" d="M 3717 2526 L 3717 2540 "/>
<path transform="matrix(.12,0,0,-.12,0,595)" stroke-width="6" stroke-linecap="round" stroke-linejoin="round" fill="none" stroke="#000000" d="M 3717 2562 L 3717 2576 "/>
<path transform="matrix(.12,0,0,-.12,0,595)" stroke-width="6" stroke-linecap="round" stroke-linejoin="round" fill="none" stroke="#000000" d="M 3717 2597 L 3717 2611 "/>
<path transform="matrix(.12,0,0,-.12,0,595)" stroke-width="6" stroke-linecap="round" stroke-linejoin="round" fill="none" stroke="#000000" d="M 3717 2633 L 3717 2647 "/>
<path transform="matrix(.12,0,0,-.12,0,595)" stroke-width="6" stroke-linecap="round" stroke-linejoin="round" fill="none" stroke="#000000" d="M 3717 2668 L 3717 2682 "/>
<path transform="matrix(.12,0,0,-.12,0,595)" stroke-width="6" stroke-linecap="round" stroke-linejoin="round" fill="none" stroke="#000000" d="M 3717 2703 L 3717 2718 "/>
<path transform="matrix(.12,0,0,-.12,0,595)" stroke-width="6" stroke-linecap="round" stroke-linejoin="round" fill="none" stroke="#000000" d="M 3717 2739 L 3717 2753 "/>
<path transform="matrix(.12,0,0,-.12,0,595)" stroke-width="6" stroke-linecap="round" stroke-linejoin="round" fill="none" stroke="#000000" d="M 3717 2774 L 3717 2788 "/>
<path transform="matrix(.12,0,0,-.12,0,595)" stroke-width="6" stroke-linecap="round" stroke-linejoin="round" fill="none" stroke="#000000" d="M 3717 2810 L 3717 2824 "/>
<path transform="matrix(.12,0,0,-.12,0,595)" stroke-width="6" stroke-linecap="round" stroke-linejoin="round" fill="none" stroke="#000000" d="M 3717 2845 L 3717 2859 "/>
<path transform="matrix(.12,0,0,-.12,0,595)" stroke-width="6" stroke-linecap="round" stroke-linejoin="round" fill="none" stroke="#000000" d="M 3717 2881 L 3717 2895 "/>
<path transform="matrix(.12,0,0,-.12,0,595)" stroke-width="6" stroke-linecap="round" stroke-linejoin="round" fill="none" stroke="#000000" d="M 3717 2916 L 3717 2930 "/>
<path transform="matrix(.12,0,0,-.12,0,595)" stroke-width="6" stroke-linecap="round" stroke-linejoin="round" fill="none" stroke="#000000" d="M 3717 2951 L 3717 2966 "/>
<path transform="matrix(.12,0,0,-.12,0,595)" stroke-width="6" stroke-linecap="round" stroke-linejoin="round" fill="none" stroke="#000000" d="M 3717 2987 L 3717 3001 "/>
<path transform="matrix(.12,0,0,-.12,0,595)" stroke-width="6" stroke-linecap="round" stroke-linejoin="round" fill="none" stroke="#000000" d="M 3717 3022 L 3717 3036 "/>
<path transform="matrix(.12,0,0,-.12,0,595)" stroke-width="6" stroke-linecap="round" stroke-linejoin="round" fill="none" stroke="#000000" d="M 3717 3058 L 3717 3072 "/>
<path transform="matrix(.12,0,0,-.12,0,595)" stroke-width="6" stroke-linecap="round" stroke-linejoin="round" fill="none" stroke="#000000" d="M 3717 3093 L 3717 3107 "/>
<path transform="matrix(.12,0,0,-.12,0,595)" stroke-width="6" stroke-linecap="round" stroke-linejoin="round" fill="none" stroke="#000000" d="M 3717 3129 L 3717 3143 "/>
<path transform="matrix(.12,0,0,-.12,0,595)" stroke-width="6" stroke-linecap="round" stroke-linejoin="round" fill="none" stroke="#000000" d="M 3717 3164 L 3717 3178 "/>
<path transform="matrix(.12,0,0,-.12,0,595)" stroke-width="6" stroke-linecap="round" stroke-linejoin="round" fill="none" stroke="#000000" d="M 3717 3199 L 3717 3214 "/>
<path transform="matrix(.12,0,0,-.12,0,595)" stroke-width="6" stroke-linecap="round" stroke-linejoin="round" fill="none" stroke="#000000" d="M 3717 3235 L 3717 3249 "/>
<path transform="matrix(.12,0,0,-.12,0,595)" stroke-width="6" stroke-linecap="round" stroke-linejoin="round" fill="none" stroke="#000000" d="M 3717 3270 L 3717 3284 "/>
<path transform="matrix(.12,0,0,-.12,0,595)" stroke-width="6" stroke-linecap="round" stroke-linejoin="round" fill="none" stroke="#000000" d="M 3717 3306 L 3717 3320 "/>
<path transform="matrix(.12,0,0,-.12,0,595)" stroke-width="6" stroke-linecap="round" stroke-linejoin="round" fill="none" stroke="#000000" d="M 3717 3341 L 3717 3355 "/>
<path transform="matrix(.12,0,0,-.12,0,595)" stroke-width="6" stroke-linecap="round" stroke-linejoin="round" fill="none" stroke="#000000" d="M 3717 3377 L 3717 3394 L 3737 3394 "/>
<path transform="matrix(.12,0,0,-.12,0,595)" stroke-width="6" stroke-linecap="round" stroke-linejoin="round" fill="none" stroke="#000000" d="M 3758 3394 L 3772 3394 "/>
<path transform="matrix(.12,0,0,-.12,0,595)" stroke-width="6" stroke-linecap="round" stroke-linejoin="round" fill="none" stroke="#000000" d="M 3794 3394 L 3808 3394 "/>
<path transform="matrix(.12,0,0,-.12,0,595)" stroke-width="6" stroke-linecap="round" stroke-linejoin="round" fill="none" stroke="#000000" d="M 3829 3394 L 3843 3394 "/>
<path transform="matrix(.12,0,0,-.12,0,595)" stroke-width="6" stroke-linecap="round" stroke-linejoin="round" fill="none" stroke="#000000" d="M 3865 3394 L 3879 3394 "/>
<path transform="matrix(.12,0,0,-.12,0,595)" stroke-width="6" stroke-linecap="round" stroke-linejoin="round" fill="none" stroke="#000000" d="M 3900 3394 L 3914 3394 "/>
<path transform="matrix(.12,0,0,-.12,0,595)" stroke-width="6" stroke-linecap="round" stroke-linejoin="round" fill="none" stroke="#000000" d="M 3935 3394 L 3950 3394 "/>
<path transform="matrix(.12,0,0,-.12,0,595)" stroke-width="6" stroke-linecap="round" stroke-linejoin="round" fill="none" stroke="#000000" d="M 3971 3394 L 3985 3394 "/>
<path transform="matrix(.12,0,0,-.12,0,595)" stroke-width="6" stroke-linecap="round" stroke-linejoin="round" fill="none" stroke="#000000" d="M 4006 3394 L 4020 3394 "/>
<path transform="matrix(.12,0,0,-.12,0,595)" stroke-width="6" stroke-linecap="round" stroke-linejoin="round" fill="none" stroke="#000000" d="M 4042 3394 L 4062 3394 "/>
<text xml:space="preserve" transform="matrix(.12 0 -0 .12 0 595)" font-size="82.495" font-family="ArialMT"><tspan y="-3342" x="3579 3643.1812">OL</tspan></text>
<text xml:space="preserve" transform="matrix(.12 0 -0 .12 0 595)" font-size="82.495" font-family="ArialMT"><tspan y="-2323" x="3649 3704.0242 3759.0484 3804.9156 3850.7828 3896.65 3951.674 4011.2354 4034.169 4075.4166">SA612AD x2</tspan></text>
<path transform="matrix(.12,0,0,-.12,0,595)" stroke-width="6" stroke-linecap="round" stroke-linejoin="round" fill="none" stroke="#000000" d="M 4122 3259 L 3990 3119 "/>
<path transform="matrix(.12,0,0,-.12,0,595)" d="M 4019 3166 L 4027 3158 L 4014 3158 Z "/>
<path transform="matrix(.12,0,0,-.12,0,595)" stroke-width="0" stroke-linecap="round" stroke-miterlimit="10" stroke-linejoin="miter" fill="none" stroke="#000000" d="M 4019 3166 L 4027 3158 L 4014 3158 Z "/>
<path transform="matrix(.12,0,0,-.12,0,595)" d="M 4027 3158 L 4035 3151 L 4020 3151 Z "/>
<path transform="matrix(.12,0,0,-.12,0,595)" stroke-width="0" stroke-linecap="round" stroke-miterlimit="10" stroke-linejoin="miter" fill="none" stroke="#000000" d="M 4027 3158 L 4035 3151 L 4020 3151 Z "/>
<path transform="matrix(.12,0,0,-.12,0,595)" d="M 4014 3158 L 4010 3151 L 4020 3151 Z M 4010 3151 L 4020 3151 L 3990 3119 Z M 4020 3151 L 3990 3119 L 4035 3151 Z "/>
<path transform="matrix(.12,0,0,-.12,0,595)" stroke-width="0" stroke-linecap="round" stroke-miterlimit="10" stroke-linejoin="miter" fill="none" stroke="#000000" d="M 4014 3158 L 4010 3151 L 4020 3151 Z M 4010 3151 L 4020 3151 L 3990 3119 Z M 4020 3151 L 3990 3119 L 4035 3151 Z "/>
<path transform="matrix(.12,0,0,-.12,0,595)" d="M 4014 3158 L 4027 3158 L 4020 3151 Z "/>
<path transform="matrix(.12,0,0,-.12,0,595)" stroke-width="0" stroke-linecap="round" stroke-miterlimit="10" stroke-linejoin="miter" fill="none" stroke="#000000" d="M 4014 3158 L 4027 3158 L 4020 3151 Z "/>
<path transform="matrix(.12,0,0,-.12,0,595)" stroke-width="6" stroke-linecap="round" stroke-linejoin="round" fill="none" stroke="#000000" d="M 4027 3158 L 4019 3166 L 3990 3119 L 4035 3151 L 4027 3158 "/>
<path transform="matrix(.12,0,0,-.12,0,595)" stroke-width="6" stroke-linecap="round" stroke-linejoin="round" fill="none" stroke="#000000" d="M 4122 2882 L 3990 2741 "/>
<path transform="matrix(.12,0,0,-.12,0,595)" d="M 4019 2789 L 4027 2781 L 4014 2781 Z "/>
<path transform="matrix(.12,0,0,-.12,0,595)" stroke-width="0" stroke-linecap="round" stroke-miterlimit="10" stroke-linejoin="miter" fill="none" stroke="#000000" d="M 4019 2789 L 4027 2781 L 4014 2781 Z "/>
<path transform="matrix(.12,0,0,-.12,0,595)" d="M 4027 2781 L 4035 2773 L 4020 2773 Z "/>
<path transform="matrix(.12,0,0,-.12,0,595)" stroke-width="0" stroke-linecap="round" stroke-miterlimit="10" stroke-linejoin="miter" fill="none" stroke="#000000" d="M 4027 2781 L 4035 2773 L 4020 2773 Z "/>
<path transform="matrix(.12,0,0,-.12,0,595)" d="M 4014 2781 L 4010 2773 L 4020 2773 Z M 4010 2773 L 4020 2773 L 3990 2741 Z M 4020 2773 L 3990 2741 L 4035 2773 Z "/>
<path transform="matrix(.12,0,0,-.12,0,595)" stroke-width="0" stroke-linecap="round" stroke-miterlimit="10" stroke-linejoin="miter" fill="none" stroke="#000000" d="M 4014 2781 L 4010 2773 L 4020 2773 Z M 4010 2773 L 4020 2773 L 3990 2741 Z M 4020 2773 L 3990 2741 L 4035 2773 Z "/>
<path transform="matrix(.12,0,0,-.12,0,595)" d="M 4014 2781 L 4027 2781 L 4020 2773 Z "/>
<path transform="matrix(.12,0,0,-.12,0,595)" stroke-width="0" stroke-linecap="round" stroke-miterlimit="10" stroke-linejoin="miter" fill="none" stroke="#000000" d="M 4014 2781 L 4027 2781 L 4020 2773 Z "/>
<path transform="matrix(.12,0,0,-.12,0,595)" stroke-width="6" stroke-linecap="round" stroke-linejoin="round" fill="none" stroke="#000000" d="M 4027 2781 L 4019 2789 L 3990 2741 L 4035 2773 L 4027 2781 "/>
<text xml:space="preserve" transform="matrix(.12 0 -0 .12 0 595)" font-size="82.495" font-family="ArialMT"><tspan y="-3272" x="4113 4161.1774 4207.0446">+5V</tspan></text>
<text xml:space="preserve" transform="matrix(.12 0 -0 .12 0 595)" font-size="82.495" font-family="ArialMT"><tspan y="-2888" x="4113 4161.1774 4207.0446">+5V</tspan></text>
<text xml:space="preserve" transform="matrix(.12 0 -0 .12 0 595)" font-size="82.495" font-family="ArialMT"><tspan y="-3047" x="4082 4104.9338 4150.801 4192.0485 4210.3625 4256.2297 4302.0969 4347.964 4370.8977">Incidente</tspan></text>
<text xml:space="preserve" transform="matrix(.12 0 -0 .12 0 595)" font-size="82.495" font-family="ArialMT"><tspan y="-2660" x="4083 4142.5617 4188.4289 4211.3625 4229.6765 4275.5437 4293.8576 4339.7248 4385.592">Reflejada</tspan></text>
<text xml:space="preserve" transform="matrix(.12 0 -0 .12 0 595)" font-size="82.495" font-family="ArialMT"><tspan y="-1970" x="4599">I</tspan></text>
<text xml:space="preserve" transform="matrix(.12 0 -0 .12 0 595)" font-size="57.747" font-family="ArialMT"><tspan y="-2006" x="4620">2</tspan></text>
<text xml:space="preserve" transform="matrix(.12 0 -0 .12 0 595)" font-size="82.495" font-family="ArialMT"><tspan y="-1970" x="4652">S</tspan></text>
<text xml:space="preserve" transform="matrix(.12 0 -0 .12 0 595)" font-size="82.495" font-family="ArialMT"><tspan y="-1318" x="4894">I</tspan></text>
<text xml:space="preserve" transform="matrix(.12 0 -0 .12 0 595)" font-size="57.747" font-family="ArialMT"><tspan y="-1354" x="4915">2</tspan></text>
<text xml:space="preserve" transform="matrix(.12 0 -0 .12 0 595)" font-size="82.495" font-family="ArialMT"><tspan y="-1318" x="4947">C</tspan></text>
<text xml:space="preserve" transform="matrix(.12 0 -0 .12 0 595)" font-size="82.495" font-family="ArialMT"><tspan y="-3480" x="2914 2982.7183 3042.2796 3088.1468">MCLK</tspan></text>
<path transform="matrix(.12,0,0,-.12,0,595)" d="M 2840 2119 L 2895 2108 L 2840 2108 Z M 2895 2108 L 2840 2108 L 2840 2097 Z "/>
<path transform="matrix(.12,0,0,-.12,0,595)" stroke-width="0" stroke-linecap="round" stroke-miterlimit="10" stroke-linejoin="miter" fill="none" stroke="#000000" d="M 2840 2119 L 2895 2108 L 2840 2108 Z M 2895 2108 L 2840 2108 L 2840 2097 Z "/>
<path transform="matrix(.12,0,0,-.12,0,595)" stroke-width="6" stroke-linecap="round" stroke-linejoin="round" fill="none" stroke="#000000" d="M 2840 2108 L 2840 2097 L 2895 2108 L 2840 2119 L 2840 2108 "/>
<path transform="matrix(.12,0,0,-.12,0,595)" d="M 2203 2119 L 2203 2108 L 2148 2108 Z M 2203 2108 L 2148 2108 L 2203 2097 Z "/>
<path transform="matrix(.12,0,0,-.12,0,595)" stroke-width="0" stroke-linecap="round" stroke-miterlimit="10" stroke-linejoin="miter" fill="none" stroke="#000000" d="M 2203 2119 L 2203 2108 L 2148 2108 Z M 2203 2108 L 2148 2108 L 2203 2097 Z "/>
<path transform="matrix(.12,0,0,-.12,0,595)" stroke-width="6" stroke-linecap="round" stroke-linejoin="round" fill="none" stroke="#000000" d="M 2203 2108 L 2203 2119 L 2148 2108 L 2203 2097 L 2203 2108 "/>
<path transform="matrix(.12,0,0,-.12,0,595)" d="M 2019 1971 L 2030 1971 L 2030 1916 Z M 2030 1971 L 2030 1916 L 2042 1971 Z "/>
<path transform="matrix(.12,0,0,-.12,0,595)" stroke-width="0" stroke-linecap="round" stroke-miterlimit="10" stroke-linejoin="miter" fill="none" stroke="#000000" d="M 2019 1971 L 2030 1971 L 2030 1916 Z M 2030 1971 L 2030 1916 L 2042 1971 Z "/>
<path transform="matrix(.12,0,0,-.12,0,595)" stroke-width="6" stroke-linecap="round" stroke-linejoin="round" fill="none" stroke="#000000" d="M 2030 1971 L 2019 1971 L 2030 1916 L 2042 1971 L 2030 1971 "/>
<path transform="matrix(.12,0,0,-.12,0,595)" d="M 2266 3329 L 2321 3318 L 2266 3318 Z M 2321 3318 L 2266 3318 L 2266 3307 Z "/>
<path transform="matrix(.12,0,0,-.12,0,595)" stroke-width="0" stroke-linecap="round" stroke-miterlimit="10" stroke-linejoin="miter" fill="none" stroke="#000000" d="M 2266 3329 L 2321 3318 L 2266 3318 Z M 2321 3318 L 2266 3318 L 2266 3307 Z "/>
<path transform="matrix(.12,0,0,-.12,0,595)" stroke-width="6" stroke-linecap="round" stroke-linejoin="round" fill="none" stroke="#000000" d="M 2266 3318 L 2266 3307 L 2321 3318 L 2266 3329 L 2266 3318 "/>
<path transform="matrix(.12,0,0,-.12,0,595)" stroke-width="6" stroke-linecap="round" stroke-linejoin="round" fill="none" stroke="#000000" d="M 3468 3447 L 3468 3414 L 3488 3407 L 3468 3400 L 3448 3392 L 3468 3385 L 3488 3377 L 3468 3370 L 3448 3363 L 3468 3355 L 3488 3348 L 3468 3341 L 3468 3304 L 3488 3296 L 3468 3289 L 3448 3281 L 3468 3274 L 3488 3267 L 3468 3259 L 3448 3252 L 3468 3244 L 3488 3237 L 3468 3230 "/>
<path transform="matrix(.12,0,0,-.12,0,595)" d="M 3418 3453 L 3445 3447 L 3418 3447 Z M 3445 3447 L 3418 3447 L 3418 3441 Z "/>
<path transform="matrix(.12,0,0,-.12,0,595)" stroke-width="0" stroke-linecap="round" stroke-miterlimit="10" stroke-linejoin="miter" fill="none" stroke="#000000" d="M 3418 3453 L 3445 3447 L 3418 3447 Z M 3445 3447 L 3418 3447 L 3418 3441 Z "/>
<path transform="matrix(.12,0,0,-.12,0,595)" stroke-width="6" stroke-linecap="round" stroke-linejoin="round" fill="none" stroke="#000000" d="M 3418 3453 L 3418 3441 L 3445 3447 L 3418 3453 "/>
<path transform="matrix(.12,0,0,-.12,0,595)" stroke-width="6" stroke-linecap="round" stroke-linejoin="round" fill="none" stroke="#000000" d="M 3402 3447 L 3418 3447 L 3468 3447 "/>
<path transform="matrix(.12,0,0,-.12,0,595)" stroke-width="6" stroke-linecap="round" stroke-linejoin="round" fill="none" stroke="#000000" d="M 3468 3322 L 3493 3322 L 3530 3322 "/>
<path transform="matrix(.12,0,0,-.12,0,595)" stroke-width="6" stroke-linecap="round" stroke-linejoin="round" fill="none" stroke="#000000" d="M 3468 3230 L 3468 3207 L 3492 3207 L 3468 3178 L 3444 3207 L 3468 3207 "/>
<path transform="matrix(.12,0,0,-.12,0,595)" d="M 3493 3328 L 3520 3322 L 3493 3322 Z M 3520 3322 L 3493 3322 L 3493 3316 Z "/>
<path transform="matrix(.12,0,0,-.12,0,595)" stroke-width="0" stroke-linecap="round" stroke-miterlimit="10" stroke-linejoin="miter" fill="none" stroke="#000000" d="M 3493 3328 L 3520 3322 L 3493 3322 Z M 3520 3322 L 3493 3322 L 3493 3316 Z "/>
<path transform="matrix(.12,0,0,-.12,0,595)" stroke-width="6" stroke-linecap="round" stroke-linejoin="round" fill="none" stroke="#000000" d="M 3493 3328 L 3493 3316 L 3520 3322 L 3493 3328 "/>
<path transform="matrix(.12,0,0,-.12,0,595)" stroke-width="6" stroke-linecap="round" stroke-linejoin="round" fill="none" stroke="#000000" d="M 3285 3488 L 3545 3488 L 3545 3157 L 3285 3157 L 3285 3488 "/>
<text xml:space="preserve" transform="matrix(.12 0 -0 .12 0 595)" font-size="57.747" font-family="ArialMT"><tspan y="-3308" x="3320 3358.5174 3390.6248 3422.7322">Sep.</tspan></text>
<path transform="matrix(.12,0,0,-.12,0,595)" stroke-width="6" stroke-linecap="round" stroke-linejoin="round" fill="none" stroke="#000000" d="M 3075 3066 L 3075 3034 L 3096 3026 L 3075 3019 L 3055 3012 L 3075 3004 L 3096 2997 L 3075 2989 L 3055 2982 L 3075 2975 L 3096 2967 L 3075 2960 L 3075 2923 L 3096 2916 L 3075 2908 L 3055 2901 L 3075 2893 L 3096 2886 L 3075 2879 L 3055 2871 L 3075 2864 L 3096 2856 L 3075 2849 "/>
<path transform="matrix(.12,0,0,-.12,0,595)" d="M 3025 3072 L 3052 3066 L 3025 3066 Z M 3052 3066 L 3025 3066 L 3025 3061 Z "/>
<path transform="matrix(.12,0,0,-.12,0,595)" stroke-width="0" stroke-linecap="round" stroke-miterlimit="10" stroke-linejoin="miter" fill="none" stroke="#000000" d="M 3025 3072 L 3052 3066 L 3025 3066 Z M 3052 3066 L 3025 3066 L 3025 3061 Z "/>
<path transform="matrix(.12,0,0,-.12,0,595)" stroke-width="6" stroke-linecap="round" stroke-linejoin="round" fill="none" stroke="#000000" d="M 3025 3072 L 3025 3061 L 3052 3066 L 3025 3072 "/>
<path transform="matrix(.12,0,0,-.12,0,595)" stroke-width="6" stroke-linecap="round" stroke-linejoin="round" fill="none" stroke="#000000" d="M 3010 3066 L 3025 3066 L 3075 3066 "/>
<path transform="matrix(.12,0,0,-.12,0,595)" stroke-width="6" stroke-linecap="round" stroke-linejoin="round" fill="none" stroke="#000000" d="M 3075 2941 L 3100 2941 L 3137 2941 "/>
<path transform="matrix(.12,0,0,-.12,0,595)" stroke-width="6" stroke-linecap="round" stroke-linejoin="round" fill="none" stroke="#000000" d="M 3075 2849 L 3075 2826 L 3099 2826 L 3075 2798 L 3052 2826 L 3075 2826 "/>
<path transform="matrix(.12,0,0,-.12,0,595)" d="M 3100 2947 L 3127 2941 L 3100 2941 Z M 3127 2941 L 3100 2941 L 3100 2936 Z "/>
<path transform="matrix(.12,0,0,-.12,0,595)" stroke-width="0" stroke-linecap="round" stroke-miterlimit="10" stroke-linejoin="miter" fill="none" stroke="#000000" d="M 3100 2947 L 3127 2941 L 3100 2941 Z M 3127 2941 L 3100 2941 L 3100 2936 Z "/>
<path transform="matrix(.12,0,0,-.12,0,595)" stroke-width="6" stroke-linecap="round" stroke-linejoin="round" fill="none" stroke="#000000" d="M 3100 2947 L 3100 2936 L 3127 2941 L 3100 2947 "/>
<path transform="matrix(.12,0,0,-.12,0,595)" stroke-width="6" stroke-linecap="round" stroke-linejoin="round" fill="none" stroke="#000000" d="M 2893 3107 L 3153 3107 L 3153 2776 L 2893 2776 L 2893 3107 "/>
<text xml:space="preserve" transform="matrix(.12 0 -0 .12 0 595)" font-size="57.747" font-family="ArialMT"><tspan y="-2928" x="2927 2965.5174 2997.6248 3029.7322">Sep.</tspan></text>
<path transform="matrix(.12,0,0,-.12,0,595)" stroke-width="6" stroke-linecap="round" stroke-linejoin="round" fill="none" stroke="#000000" d="M 2595 2758 L 2595 2726 L 2615 2718 L 2595 2711 L 2574 2703 L 2595 2696 L 2615 2689 L 2595 2681 L 2574 2674 L 2595 2666 L 2615 2659 L 2595 2652 L 2595 2615 L 2615 2607 L 2595 2600 L 2574 2593 L 2595 2585 L 2615 2578 L 2595 2570 L 2574 2563 L 2595 2556 L 2615 2548 L 2595 2541 "/>
<path transform="matrix(.12,0,0,-.12,0,595)" d="M 2545 2764 L 2572 2758 L 2545 2758 Z M 2572 2758 L 2545 2758 L 2545 2752 Z "/>
<path transform="matrix(.12,0,0,-.12,0,595)" stroke-width="0" stroke-linecap="round" stroke-miterlimit="10" stroke-linejoin="miter" fill="none" stroke="#000000" d="M 2545 2764 L 2572 2758 L 2545 2758 Z M 2572 2758 L 2545 2758 L 2545 2752 Z "/>
<path transform="matrix(.12,0,0,-.12,0,595)" stroke-width="6" stroke-linecap="round" stroke-linejoin="round" fill="none" stroke="#000000" d="M 2545 2764 L 2545 2752 L 2572 2758 L 2545 2764 "/>
<path transform="matrix(.12,0,0,-.12,0,595)" stroke-width="6" stroke-linecap="round" stroke-linejoin="round" fill="none" stroke="#000000" d="M 2529 2758 L 2545 2758 L 2595 2758 "/>
<path transform="matrix(.12,0,0,-.12,0,595)" stroke-width="6" stroke-linecap="round" stroke-linejoin="round" fill="none" stroke="#000000" d="M 2595 2633 L 2620 2633 L 2657 2633 "/>
<path transform="matrix(.12,0,0,-.12,0,595)" stroke-width="6" stroke-linecap="round" stroke-linejoin="round" fill="none" stroke="#000000" d="M 2595 2541 L 2595 2518 L 2618 2518 L 2595 2490 L 2571 2518 L 2595 2518 "/>
<path transform="matrix(.12,0,0,-.12,0,595)" d="M 2620 2639 L 2647 2633 L 2620 2633 Z M 2647 2633 L 2620 2633 L 2620 2628 Z "/>
<path transform="matrix(.12,0,0,-.12,0,595)" stroke-width="0" stroke-linecap="round" stroke-miterlimit="10" stroke-linejoin="miter" fill="none" stroke="#000000" d="M 2620 2639 L 2647 2633 L 2620 2633 Z M 2647 2633 L 2620 2633 L 2620 2628 Z "/>
<path transform="matrix(.12,0,0,-.12,0,595)" stroke-width="6" stroke-linecap="round" stroke-linejoin="round" fill="none" stroke="#000000" d="M 2620 2639 L 2620 2628 L 2647 2633 L 2620 2639 "/>
<path transform="matrix(.12,0,0,-.12,0,595)" stroke-width="6" stroke-linecap="round" stroke-linejoin="round" fill="none" stroke="#000000" d="M 2412 2799 L 2672 2799 L 2672 2468 L 2412 2468 L 2412 2799 "/>
<text xml:space="preserve" transform="matrix(.12 0 -0 .12 0 595)" font-size="57.747" font-family="ArialMT"><tspan y="-2619" x="2447 2485.5174 2517.6248 2549.7322">Sep.</tspan></text>
<path transform="matrix(.12,0,0,-.12,0,595)" stroke-width="6" stroke-linecap="round" stroke-linejoin="round" fill="none" stroke="#000000" d="M 3078 2233 L 3078 2200 L 3098 2193 L 3078 2186 L 3057 2178 L 3078 2171 L 3098 2163 L 3078 2156 L 3057 2149 L 3078 2141 L 3098 2134 L 3078 2127 L 3078 2089 L 3098 2082 L 3078 2075 L 3057 2067 L 3078 2060 L 3098 2053 L 3078 2045 L 3057 2038 L 3078 2030 L 3098 2023 L 3078 2016 "/>
<path transform="matrix(.12,0,0,-.12,0,595)" d="M 3028 2239 L 3055 2233 L 3028 2233 Z M 3055 2233 L 3028 2233 L 3028 2227 Z "/>
<path transform="matrix(.12,0,0,-.12,0,595)" stroke-width="0" stroke-linecap="round" stroke-miterlimit="10" stroke-linejoin="miter" fill="none" stroke="#000000" d="M 3028 2239 L 3055 2233 L 3028 2233 Z M 3055 2233 L 3028 2233 L 3028 2227 Z "/>
<path transform="matrix(.12,0,0,-.12,0,595)" stroke-width="6" stroke-linecap="round" stroke-linejoin="round" fill="none" stroke="#000000" d="M 3028 2239 L 3028 2227 L 3055 2233 L 3028 2239 "/>
<path transform="matrix(.12,0,0,-.12,0,595)" stroke-width="6" stroke-linecap="round" stroke-linejoin="round" fill="none" stroke="#000000" d="M 3012 2233 L 3028 2233 L 3078 2233 "/>
<path transform="matrix(.12,0,0,-.12,0,595)" stroke-width="6" stroke-linecap="round" stroke-linejoin="round" fill="none" stroke="#000000" d="M 3078 2108 L 3102 2108 L 3140 2108 "/>
<path transform="matrix(.12,0,0,-.12,0,595)" stroke-width="6" stroke-linecap="round" stroke-linejoin="round" fill="none" stroke="#000000" d="M 3078 2016 L 3078 1993 L 3101 1993 L 3078 1964 L 3054 1993 L 3078 1993 "/>
<path transform="matrix(.12,0,0,-.12,0,595)" d="M 3102 2114 L 3130 2108 L 3102 2108 Z M 3130 2108 L 3102 2108 L 3102 2102 Z "/>
<path transform="matrix(.12,0,0,-.12,0,595)" stroke-width="0" stroke-linecap="round" stroke-miterlimit="10" stroke-linejoin="miter" fill="none" stroke="#000000" d="M 3102 2114 L 3130 2108 L 3102 2108 Z M 3130 2108 L 3102 2108 L 3102 2102 Z "/>
<path transform="matrix(.12,0,0,-.12,0,595)" stroke-width="6" stroke-linecap="round" stroke-linejoin="round" fill="none" stroke="#000000" d="M 3102 2114 L 3102 2102 L 3130 2108 L 3102 2114 "/>
<path transform="matrix(.12,0,0,-.12,0,595)" stroke-width="6" stroke-linecap="round" stroke-linejoin="round" fill="none" stroke="#000000" d="M 2895 2274 L 3155 2274 L 3155 1943 L 2895 1943 L 2895 2274 "/>
<text xml:space="preserve" transform="matrix(.12 0 -0 .12 0 595)" font-size="57.747" font-family="ArialMT"><tspan y="-2094" x="2930 2968.5174 3000.6248 3032.7322">Sep.</tspan></text>
<path transform="matrix(.12,0,0,-.12,0,595)" stroke-width="6" stroke-linecap="round" stroke-linejoin="round" fill="none" stroke="#000000" d="M 2542 2160 L 2542 2187 L 2542 2198 "/>
<path transform="matrix(.12,0,0,-.12,0,595)" stroke-width="6" stroke-linecap="round" stroke-linejoin="round" fill="none" stroke="#000000" d="M 2542 1889 L 2542 1915 L 2542 1927 "/>
<path transform="matrix(.12,0,0,-.12,0,595)" stroke-width="6" stroke-linecap="round" stroke-linejoin="round" fill="none" stroke="#000000" d="M 2697 2043 L 2670 2043 L 2659 2043 "/>
<path transform="matrix(.12,0,0,-.12,0,595)" stroke-width="6" stroke-linecap="round" stroke-linejoin="round" fill="none" stroke="#000000" d="M 2425 2043 L 2399 2043 L 2387 2043 "/>
<path transform="matrix(.12,0,0,-.12,0,595)" stroke-width="6" stroke-linecap="round" stroke-linejoin="round" fill="none" stroke="#000000" d="M 2499 1985.5 C 2499 1993.5082 2492.508 2000 2484.5 2000 C 2476.492 2000 2470 1993.5082 2470 1985.5 C 2470 1977.4918 2476.492 1971 2484.5 1971 C 2492.508 1971 2499 1977.4918 2499 1985.5 "/>
<path transform="matrix(.12,0,0,-.12,0,595)" stroke-width="6" stroke-linecap="round" stroke-linejoin="round" fill="none" stroke="#000000" d="M 2488 1985.5 C 2488 1987.433 2486.433 1989 2484.5 1989 C 2482.567 1989 2481 1987.433 2481 1985.5 C 2481 1983.567 2482.567 1982 2484.5 1982 C 2486.433 1982 2488 1983.567 2488 1985.5 "/>
<path transform="matrix(.12,0,0,-.12,0,595)" stroke-width="6" stroke-linecap="round" stroke-linejoin="round" fill="none" stroke="#000000" d="M 2643 2027 L 2659 2043 "/>
<path transform="matrix(.12,0,0,-.12,0,595)" stroke-width="6" stroke-linecap="round" stroke-linejoin="round" fill="none" stroke="#000000" d="M 2558 1943 L 2574 1959 "/>
<path transform="matrix(.12,0,0,-.12,0,595)" stroke-width="6" stroke-linecap="round" stroke-linejoin="round" fill="none" stroke="#000000" d="M 2441 2060 L 2458 2076 "/>
<path transform="matrix(.12,0,0,-.12,0,595)" stroke-width="6" stroke-linecap="round" stroke-linejoin="round" fill="none" stroke="#000000" d="M 2526 2144 L 2542 2160 L 2558 2144 "/>
<path transform="matrix(.12,0,0,-.12,0,595)" stroke-width="6" stroke-linecap="round" stroke-linejoin="round" fill="none" stroke="#000000" d="M 2627 2076 L 2643 2060 "/>
<path transform="matrix(.12,0,0,-.12,0,595)" stroke-width="6" stroke-linecap="round" stroke-linejoin="round" fill="none" stroke="#000000" d="M 2574 2128 L 2594 2137 L 2585 2117 L 2576 2098 L 2595 2107 L 2615 2116 L 2606 2097 L 2597 2077 L 2616 2086 L 2636 2095 L 2627 2076 "/>
<path transform="matrix(.12,0,0,-.12,0,595)" stroke-width="6" stroke-linecap="round" stroke-linejoin="round" fill="none" stroke="#000000" d="M 2627 2011 L 2607 2020 L 2616 2001 L 2625 1981 L 2606 1990 L 2586 1999 L 2595 1980 L 2604 1960 L 2585 1969 L 2565 1978 L 2574 1959 "/>
<path transform="matrix(.12,0,0,-.12,0,595)" stroke-width="6" stroke-linecap="round" stroke-linejoin="round" fill="none" stroke="#000000" d="M 2510 2128 L 2490 2137 L 2499 2117 L 2508 2098 L 2489 2107 L 2469 2116 L 2478 2097 L 2488 2077 L 2468 2086 L 2448 2095 L 2458 2076 "/>
<path transform="matrix(.12,0,0,-.12,0,595)" stroke-width="6" stroke-linecap="round" stroke-linejoin="round" fill="none" stroke="#000000" d="M 2643 2060 L 2659 2043 "/>
<path transform="matrix(.12,0,0,-.12,0,595)" stroke-width="6" stroke-linecap="round" stroke-linejoin="round" fill="none" stroke="#000000" d="M 2558 2144 L 2574 2128 "/>
<path transform="matrix(.12,0,0,-.12,0,595)" stroke-width="6" stroke-linecap="round" stroke-linejoin="round" fill="none" stroke="#000000" d="M 2627 2011 L 2643 2027 "/>
<path transform="matrix(.12,0,0,-.12,0,595)" stroke-width="6" stroke-linecap="round" stroke-linejoin="round" fill="none" stroke="#000000" d="M 2542 1927 L 2558 1943 "/>
<path transform="matrix(.12,0,0,-.12,0,595)" stroke-width="6" stroke-linecap="round" stroke-linejoin="round" fill="none" stroke="#000000" d="M 2510 2128 L 2526 2144 "/>
<path transform="matrix(.12,0,0,-.12,0,595)" stroke-width="6" stroke-linecap="round" stroke-linejoin="round" fill="none" stroke="#000000" d="M 2482 1987 L 2425 2043 L 2441 2060 "/>
<path transform="matrix(.12,0,0,-.12,0,595)" stroke-width="6" stroke-linecap="round" stroke-linejoin="round" fill="none" stroke="#000000" d="M 2542 1927 L 2494 1975 "/>
<path transform="matrix(.12,0,0,-.12,0,595)" stroke-width="6" stroke-linecap="round" stroke-linejoin="round" fill="none" stroke="#000000" d="M 2366 1872 L 2366 2277 L 2718 2277 L 2718 1872 "/>
<text xml:space="preserve" transform="matrix(.12 0 -0 .12 0 595)" font-size="57.747" font-family="ArialMT"><tspan y="-2215" x="2449 2487.5174 2519.6248 2551.7322 2583.8397 2599.8934">Puente</tspan></text>
<path transform="matrix(.12,0,0,-.12,0,595)" stroke-width="6" stroke-linecap="round" stroke-linejoin="round" fill="none" stroke="#000000" d="M 2366 1872 L 2718 1872 "/>
<path transform="matrix(.12,0,0,-.12,0,595)" d="M 4715 3212 L 4726 3212 L 4726 3157 Z M 4726 3212 L 4726 3157 L 4738 3212 Z "/>
<path transform="matrix(.12,0,0,-.12,0,595)" stroke-width="0" stroke-linecap="round" stroke-miterlimit="10" stroke-linejoin="miter" fill="none" stroke="#000000" d="M 4715 3212 L 4726 3212 L 4726 3157 Z M 4726 3212 L 4726 3157 L 4738 3212 Z "/>
<path transform="matrix(.12,0,0,-.12,0,595)" stroke-width="6" stroke-linecap="round" stroke-linejoin="round" fill="none" stroke="#000000" d="M 4726 3212 L 4715 3212 L 4726 3157 L 4738 3212 L 4726 3212 "/>
<path transform="matrix(.12,0,0,-.12,0,595)" d="M 4496 3047 L 4550 3036 L 4496 3036 Z M 4550 3036 L 4496 3036 L 4496 3025 Z "/>
<path transform="matrix(.12,0,0,-.12,0,595)" stroke-width="0" stroke-linecap="round" stroke-miterlimit="10" stroke-linejoin="miter" fill="none" stroke="#000000" d="M 4496 3047 L 4550 3036 L 4496 3036 Z M 4550 3036 L 4496 3036 L 4496 3025 Z "/>
<path transform="matrix(.12,0,0,-.12,0,595)" stroke-width="6" stroke-linecap="round" stroke-linejoin="round" fill="none" stroke="#000000" d="M 4496 3036 L 4496 3025 L 4550 3036 L 4496 3047 L 4496 3036 "/>
<path transform="matrix(.12,0,0,-.12,0,595)" d="M 4496 2659 L 4550 2647 L 4496 2647 Z M 4550 2647 L 4496 2647 L 4496 2636 Z "/>
<path transform="matrix(.12,0,0,-.12,0,595)" stroke-width="0" stroke-linecap="round" stroke-miterlimit="10" stroke-linejoin="miter" fill="none" stroke="#000000" d="M 4496 2659 L 4550 2647 L 4496 2647 Z M 4550 2647 L 4496 2647 L 4496 2636 Z "/>
<path transform="matrix(.12,0,0,-.12,0,595)" stroke-width="6" stroke-linecap="round" stroke-linejoin="round" fill="none" stroke="#000000" d="M 4496 2647 L 4496 2636 L 4550 2647 L 4496 2659 L 4496 2647 "/>
<path transform="matrix(.12,0,0,-.12,0,595)" stroke-width="6" stroke-linecap="round" stroke-linejoin="round" fill="none" stroke="#000000" d="M 1784 662 L 2090 662 L 2090 529 L 1784 529 L 1784 662 "/>
<text xml:space="preserve" transform="matrix(.12 0 -0 .12 0 595)" font-size="82.495" font-family="ArialMT"><tspan y="-569" x="1874 1896.9336 1942.8008">I2C</tspan></text>
<text xml:space="preserve" transform="matrix(.12 0 -0 .12 0 595)" font-size="82.495" font-family="ArialMT"><tspan y="-699" x="1892 1947.0242">P2</tspan></text>
</g>
<clipPath id="cp3">
<path transform="matrix(.12,0,0,-.12,0,595)" d="M 306 131 L 6710 131 L 6710 4829 L 306 4829 L 306 131 "/>
</clipPath>
<g clip-path="url(#cp3)">
<path transform="matrix(.12,0,0,-.12,0,595)" stroke-width="0" stroke-linecap="round" stroke-linejoin="round" fill="none" stroke="#000000" d="M 306 131 L 6709 131 L 6709 4828 L 306 4828 L 306 131 "/>
</g>
</g>
</g>
</svg>
