<?xml version="1.0" encoding="UTF-8" standalone="no"?>
<svg
   xmlns:dc="http://purl.org/dc/elements/1.1/"
   xmlns:cc="http://creativecommons.org/ns#"
   xmlns:rdf="http://www.w3.org/1999/02/22-rdf-syntax-ns#"
   xmlns:svg="http://www.w3.org/2000/svg"
   xmlns="http://www.w3.org/2000/svg"
   viewBox="0 0 721.33331 656"
   height="656"
   width="721.33331"
   xml:space="preserve"
   id="svg2"
   version="1.1"><metadata
     id="metadata8"><rdf:RDF><cc:Work
         rdf:about=""><dc:format>image/svg+xml</dc:format><dc:type
           rdf:resource="http://purl.org/dc/dcmitype/StillImage" /></cc:Work></rdf:RDF></metadata><defs
     id="defs6"><clipPath
       id="clipPath22"
       clipPathUnits="userSpaceOnUse"><path
         id="path20"
         d="M 0,0 H 641 V 581 H 0 Z" /></clipPath></defs><g
     transform="matrix(1.3333333,0,0,-1.3333333,0,656)"
     id="g10"><g
       id="g12"><g
         id="g14"><g
           transform="matrix(0.8458,0,0,0.8489,0,-1.1884)"
           id="g16"><g
             clip-path="url(#clipPath22)"
             id="g18"><g
               id="g24"><path
                 id="path26"
                 style="fill:none;stroke:#5a5a5a;stroke-width:2.83369994;stroke-linecap:round;stroke-linejoin:miter;stroke-miterlimit:10;stroke-dasharray:none;stroke-opacity:1"
                 d="M 1.4169,3.411 V 579.5878" /><path
                 id="path28"
                 style="fill:none;stroke:#5a5a5a;stroke-width:2.83369994;stroke-linecap:round;stroke-linejoin:miter;stroke-miterlimit:10;stroke-dasharray:none;stroke-opacity:1"
                 d="M 637.5844,3.411 V 579.5878" /><path
                 id="path30"
                 style="fill:none;stroke:#5a5a5a;stroke-width:2.83369994;stroke-linecap:round;stroke-linejoin:miter;stroke-miterlimit:10;stroke-dasharray:none;stroke-opacity:1"
                 d="M 1.4169,579.5878 H 637.5844" /><path
                 id="path32"
                 style="fill:none;stroke:#5a5a5a;stroke-width:2.83369994;stroke-linecap:round;stroke-linejoin:miter;stroke-miterlimit:10;stroke-dasharray:none;stroke-opacity:1"
                 d="M 1.4169,3.411 H 637.5844" /><path
                 id="path34"
                 style="fill:none;stroke:#5a5a5a;stroke-width:0.6688;stroke-linecap:round;stroke-linejoin:miter;stroke-miterlimit:10;stroke-dasharray:none;stroke-opacity:1"
                 d="m 141.8951,473.673 h -3.7178" /><path
                 id="path36"
                 style="fill:none;stroke:#5a5a5a;stroke-width:0.6688;stroke-linecap:round;stroke-linejoin:miter;stroke-miterlimit:10;stroke-dasharray:none;stroke-opacity:1"
                 d="m 138.1773,473.673 -0.7424,-0.74" /><path
                 id="path38"
                 style="fill:none;stroke:#5a5a5a;stroke-width:0.6688;stroke-linecap:round;stroke-linejoin:miter;stroke-miterlimit:10;stroke-dasharray:none;stroke-opacity:1"
                 d="m 137.4349,472.933 v -1.4828" /><path
                 id="path40"
                 style="fill:none;stroke:#5a5a5a;stroke-width:0.6688;stroke-linecap:round;stroke-linejoin:miter;stroke-miterlimit:10;stroke-dasharray:none;stroke-opacity:1"
                 d="m 137.4349,471.4502 0.7424,-0.7429" /><path
                 id="path42"
                 style="fill:none;stroke:#5a5a5a;stroke-width:0.6688;stroke-linecap:round;stroke-linejoin:miter;stroke-miterlimit:10;stroke-dasharray:none;stroke-opacity:1"
                 d="m 138.1773,470.7073 h 3.7178" /><path
                 id="path44"
                 style="fill:none;stroke:#5a5a5a;stroke-width:0.6688;stroke-linecap:round;stroke-linejoin:miter;stroke-miterlimit:10;stroke-dasharray:none;stroke-opacity:1"
                 d="m 137.4349,466.2617 v 2.9657" /><path
                 id="path46"
                 style="fill:none;stroke:#5a5a5a;stroke-width:0.6688;stroke-linecap:round;stroke-linejoin:miter;stroke-miterlimit:10;stroke-dasharray:none;stroke-opacity:1"
                 d="m 137.4349,469.2274 2.9754,-2.9657" /><path
                 id="path48"
                 style="fill:none;stroke:#5a5a5a;stroke-width:0.6688;stroke-linecap:round;stroke-linejoin:miter;stroke-miterlimit:10;stroke-dasharray:none;stroke-opacity:1"
                 d="m 140.4103,466.2617 h 0.7424" /><path
                 id="path50"
                 style="fill:none;stroke:#5a5a5a;stroke-width:0.6688;stroke-linecap:round;stroke-linejoin:miter;stroke-miterlimit:10;stroke-dasharray:none;stroke-opacity:1"
                 d="m 141.1527,466.2617 0.7424,0.7429" /><path
                 id="path52"
                 style="fill:none;stroke:#5a5a5a;stroke-width:0.6688;stroke-linecap:round;stroke-linejoin:miter;stroke-miterlimit:10;stroke-dasharray:none;stroke-opacity:1"
                 d="m 141.8951,467.0046 v 1.4799" /><path
                 id="path54"
                 style="fill:none;stroke:#5a5a5a;stroke-width:0.6688;stroke-linecap:round;stroke-linejoin:miter;stroke-miterlimit:10;stroke-dasharray:none;stroke-opacity:1"
                 d="m 141.8951,468.4845 -0.7424,0.7429" /><path
                 id="path56"
                 style="fill:none;stroke:#5a5a5a;stroke-width:0.6688;stroke-linecap:round;stroke-linejoin:miter;stroke-miterlimit:10;stroke-dasharray:none;stroke-opacity:1"
                 d="m 218.4053,473.673 h -3.7179" /><path
                 id="path58"
                 style="fill:none;stroke:#5a5a5a;stroke-width:0.6688;stroke-linecap:round;stroke-linejoin:miter;stroke-miterlimit:10;stroke-dasharray:none;stroke-opacity:1"
                 d="m 214.6874,473.673 -0.7424,-0.74" /><path
                 id="path60"
                 style="fill:none;stroke:#5a5a5a;stroke-width:0.6688;stroke-linecap:round;stroke-linejoin:miter;stroke-miterlimit:10;stroke-dasharray:none;stroke-opacity:1"
                 d="m 213.945,472.933 v -1.4828" /><path
                 id="path62"
                 style="fill:none;stroke:#5a5a5a;stroke-width:0.6688;stroke-linecap:round;stroke-linejoin:miter;stroke-miterlimit:10;stroke-dasharray:none;stroke-opacity:1"
                 d="m 213.945,471.4502 0.7424,-0.7429" /><path
                 id="path64"
                 style="fill:none;stroke:#5a5a5a;stroke-width:0.6688;stroke-linecap:round;stroke-linejoin:miter;stroke-miterlimit:10;stroke-dasharray:none;stroke-opacity:1"
                 d="m 214.6874,470.7073 h 3.7179" /><path
                 id="path66"
                 style="fill:none;stroke:#5a5a5a;stroke-width:0.6688;stroke-linecap:round;stroke-linejoin:miter;stroke-miterlimit:10;stroke-dasharray:none;stroke-opacity:1"
                 d="m 213.945,469.2274 v -1.4828" /><path
                 id="path68"
                 style="fill:none;stroke:#5a5a5a;stroke-width:0.6688;stroke-linecap:round;stroke-linejoin:miter;stroke-miterlimit:10;stroke-dasharray:none;stroke-opacity:1"
                 d="m 213.945,467.7446 v 0.7399" /><path
                 id="path70"
                 style="fill:none;stroke:#5a5a5a;stroke-width:0.6688;stroke-linecap:round;stroke-linejoin:miter;stroke-miterlimit:10;stroke-dasharray:none;stroke-opacity:1"
                 d="m 213.945,468.4845 h 4.4603" /><path
                 id="path72"
                 style="fill:none;stroke:#5a5a5a;stroke-width:0.6688;stroke-linecap:round;stroke-linejoin:miter;stroke-miterlimit:10;stroke-dasharray:none;stroke-opacity:1"
                 d="m 218.4053,468.4845 v 0" /><path
                 id="path74"
                 style="fill:none;stroke:#5a5a5a;stroke-width:0.6688;stroke-linecap:round;stroke-linejoin:miter;stroke-miterlimit:10;stroke-dasharray:none;stroke-opacity:1"
                 d="m 218.4053,468.4845 -0.7425,0.7429" /><path
                 id="path76"
                 style="fill:none;stroke:#5a5a5a;stroke-width:0.6688;stroke-linecap:round;stroke-linejoin:miter;stroke-miterlimit:10;stroke-dasharray:none;stroke-opacity:1"
                 d="M 89.5962,138.7928 H 85.8784" /><path
                 id="path78"
                 style="fill:none;stroke:#5a5a5a;stroke-width:0.6688;stroke-linecap:round;stroke-linejoin:miter;stroke-miterlimit:10;stroke-dasharray:none;stroke-opacity:1"
                 d="m 85.8784,138.7928 -0.7453,-0.74" /><path
                 id="path80"
                 style="fill:none;stroke:#5a5a5a;stroke-width:0.6688;stroke-linecap:round;stroke-linejoin:miter;stroke-miterlimit:10;stroke-dasharray:none;stroke-opacity:1"
                 d="M 85.1331,138.0528 V 136.57" /><path
                 id="path82"
                 style="fill:none;stroke:#5a5a5a;stroke-width:0.6688;stroke-linecap:round;stroke-linejoin:miter;stroke-miterlimit:10;stroke-dasharray:none;stroke-opacity:1"
                 d="m 85.1331,136.57 0.7453,-0.74" /><path
                 id="path84"
                 style="fill:none;stroke:#5a5a5a;stroke-width:0.6688;stroke-linecap:round;stroke-linejoin:miter;stroke-miterlimit:10;stroke-dasharray:none;stroke-opacity:1"
                 d="m 85.8784,135.83 h 3.7178" /><path
                 id="path86"
                 style="fill:none;stroke:#5a5a5a;stroke-width:0.6688;stroke-linecap:round;stroke-linejoin:miter;stroke-miterlimit:10;stroke-dasharray:none;stroke-opacity:1"
                 d="m 88.8509,134.3472 0.7453,-0.7428" /><path
                 id="path88"
                 style="fill:none;stroke:#5a5a5a;stroke-width:0.6688;stroke-linecap:round;stroke-linejoin:miter;stroke-miterlimit:10;stroke-dasharray:none;stroke-opacity:1"
                 d="m 89.5962,133.6044 v -1.48" /><path
                 id="path90"
                 style="fill:none;stroke:#5a5a5a;stroke-width:0.6688;stroke-linecap:round;stroke-linejoin:miter;stroke-miterlimit:10;stroke-dasharray:none;stroke-opacity:1"
                 d="m 89.5962,132.1244 -0.7453,-0.7428" /><path
                 id="path92"
                 style="fill:none;stroke:#5a5a5a;stroke-width:0.6688;stroke-linecap:round;stroke-linejoin:miter;stroke-miterlimit:10;stroke-dasharray:none;stroke-opacity:1"
                 d="M 88.8509,131.3816 H 88.1085" /><path
                 id="path94"
                 style="fill:none;stroke:#5a5a5a;stroke-width:0.6688;stroke-linecap:round;stroke-linejoin:miter;stroke-miterlimit:10;stroke-dasharray:none;stroke-opacity:1"
                 d="m 88.1085,131.3816 v 0" /><path
                 id="path96"
                 style="fill:none;stroke:#5a5a5a;stroke-width:0.6688;stroke-linecap:round;stroke-linejoin:miter;stroke-miterlimit:10;stroke-dasharray:none;stroke-opacity:1"
                 d="m 88.1085,131.3816 v 0" /><path
                 id="path98"
                 style="fill:none;stroke:#5a5a5a;stroke-width:0.6688;stroke-linecap:round;stroke-linejoin:miter;stroke-miterlimit:10;stroke-dasharray:none;stroke-opacity:1"
                 d="m 88.1085,131.3816 v 0" /><path
                 id="path100"
                 style="fill:none;stroke:#5a5a5a;stroke-width:0.6688;stroke-linecap:round;stroke-linejoin:miter;stroke-miterlimit:10;stroke-dasharray:none;stroke-opacity:1"
                 d="m 88.1085,131.3816 -0.7453,0.7428" /><path
                 id="path102"
                 style="fill:none;stroke:#5a5a5a;stroke-width:0.6688;stroke-linecap:round;stroke-linejoin:miter;stroke-miterlimit:10;stroke-dasharray:none;stroke-opacity:1"
                 d="m 87.3632,132.1244 v 0.74" /><path
                 id="path104"
                 style="fill:none;stroke:#5a5a5a;stroke-width:0.6688;stroke-linecap:round;stroke-linejoin:miter;stroke-miterlimit:10;stroke-dasharray:none;stroke-opacity:1"
                 d="m 87.3632,132.8644 v -0.74" /><path
                 id="path106"
                 style="fill:none;stroke:#5a5a5a;stroke-width:0.6688;stroke-linecap:round;stroke-linejoin:miter;stroke-miterlimit:10;stroke-dasharray:none;stroke-opacity:1"
                 d="m 87.3632,132.1244 -0.7424,-0.7428" /><path
                 id="path108"
                 style="fill:none;stroke:#5a5a5a;stroke-width:0.6688;stroke-linecap:round;stroke-linejoin:miter;stroke-miterlimit:10;stroke-dasharray:none;stroke-opacity:1"
                 d="M 86.6208,131.3816 H 85.8784" /><path
                 id="path110"
                 style="fill:none;stroke:#5a5a5a;stroke-width:0.6688;stroke-linecap:round;stroke-linejoin:miter;stroke-miterlimit:10;stroke-dasharray:none;stroke-opacity:1"
                 d="m 85.8784,131.3816 -0.7453,0.7428" /><path
                 id="path112"
                 style="fill:none;stroke:#5a5a5a;stroke-width:0.6688;stroke-linecap:round;stroke-linejoin:miter;stroke-miterlimit:10;stroke-dasharray:none;stroke-opacity:1"
                 d="m 85.1331,132.1244 v 1.48" /><path
                 id="path114"
                 style="fill:none;stroke:#5a5a5a;stroke-width:0.6688;stroke-linecap:round;stroke-linejoin:miter;stroke-miterlimit:10;stroke-dasharray:none;stroke-opacity:1"
                 d="m 85.1331,133.6044 0.7453,0.7428" /><path
                 id="path116"
                 style="fill:#5a5a5a;fill-opacity:1;fill-rule:nonzero;stroke:none"
                 d="M 634.3257,6.0801 H 5.1092 V 575.4077 H 634.3257 Z M 480.1237,556.5577 H 279.3102 l -1.3007,-0.5367 -0.5384,-1.2964 v -70.0534 l 0.5384,-1.2993 1.3007,-0.5366 h 200.8135 l 1.3007,0.5366 0.5384,1.2993 v 70.0534 l -0.5384,1.2964 z M 19.836,497.3555 l -2.4824,-0.3248 -2.3123,-0.9575 -1.9892,-1.5167 -1.5217,-1.9827 -0.9607,-2.3047 -0.3258,-2.4742 0.3258,-2.4741 0.9607,-2.3047 1.5217,-1.9828 1.9892,-1.5167 2.3123,-0.9574 2.4824,-0.3248 2.4823,0.3248 2.3123,0.9574 1.9893,1.5167 1.5217,1.9828 0.9606,2.3047 0.3259,2.4741 -0.3259,2.4742 -0.9606,2.3047 -1.5217,1.9827 -1.9893,1.5167 -2.3123,0.9575 z m 0,-28.2439 -2.4824,-0.3248 -2.3123,-0.9575 -1.9892,-1.5167 -1.5217,-1.9827 -0.9607,-2.3048 -0.3258,-2.4741 0.3258,-2.4742 0.9607,-2.3047 1.5217,-1.9827 1.9892,-1.5167 2.3123,-0.9575 2.4824,-0.3248 2.4823,0.3248 2.3123,0.9575 1.9893,1.5167 1.5217,1.9827 0.9606,2.3047 0.3259,2.4742 -0.3259,2.4741 -0.9606,2.3048 -1.5217,1.9827 -1.9893,1.5167 -2.3123,0.9575 z m 480.6139,-25.349 -1.9694,-0.3898 -1.669,-1.1099 -1.1165,-1.6664 -0.3911,-1.963 0.3911,-1.9601 1.1165,-1.6664 0.4618,-0.3051 v -28.8286 l -0.4618,-0.3078 -1.1165,-1.6636 -0.3911,-1.963 0.3911,-1.9629 1.1165,-1.6636 1.669,-1.11 1.9694,-0.3926 1.9695,0.3926 1.669,1.11 1.1165,1.6636 0.391,1.9629 -0.391,1.963 -1.1165,1.6636 -0.459,0.3078 v 28.8286 l 0.459,0.3051 1.1165,1.6664 0.391,1.9601 -0.391,1.963 -1.1165,1.6664 -1.669,1.1099 z m -279.4206,-86.4096 -1.9695,-0.3897 -1.669,-1.1128 -0.3089,-0.4576 H 66.2889 l -0.3088,0.4576 -1.6691,1.1128 -1.9694,0.3897 -1.9694,-0.3897 -1.6691,-1.1128 -1.1165,-1.6636 -0.391,-1.963 0.391,-1.9629 1.1165,-1.6636 1.6691,-1.1128 1.9694,-0.3898 1.9694,0.3898 1.6691,1.1128 0.3088,0.4576 h 150.793 l 0.3089,-0.4576 1.669,-1.1128 1.9695,-0.3898 1.9694,0.3898 1.669,1.1128 1.1165,1.6636 0.3911,1.9629 -0.3911,1.963 -1.1165,1.6636 -1.669,1.1128 z m -201.1933,4.4315 -2.4824,-0.3248 -2.3123,-0.9575 -1.9892,-1.5167 -1.5217,-1.9827 -0.9607,-2.3047 -0.3258,-2.4742 0.3258,-2.4741 0.9607,-2.3047 1.5217,-1.9828 1.9892,-1.5167 2.3123,-0.9574 2.4824,-0.3248 2.4823,0.3248 2.3123,0.9574 1.9893,1.5167 1.5217,1.9828 0.9606,2.3047 0.3259,2.4741 -0.3259,2.4742 -0.9606,2.3047 -1.5217,1.9827 -1.9893,1.5167 -2.3123,0.9575 z m 201.1933,-27.0266 -1.9695,-0.3898 -1.669,-1.1128 -1.1165,-1.6636 -0.391,-1.9629 -1.1137,-1.0677 H 66.2889 l -0.3088,0.4576 -1.6691,1.1128 -1.9694,0.3898 -1.9694,-0.3898 -1.6691,-1.1128 -1.1165,-1.6636 -0.391,-1.9629 0.391,-1.963 1.1165,-1.6636 1.6691,-1.1128 1.9694,-0.3897 1.9694,0.3897 1.6691,1.1128 0.3088,0.4576 h 150.4898 v 0 l 1.2157,0.2429 1.0314,0.6863 1.4594,1.4546 0.5441,-0.1073 1.9694,0.3897 1.669,1.1128 1.1165,1.6636 0.3911,1.963 -0.3911,1.9629 -1.1165,1.6636 -1.669,1.1128 z m 41.0887,22.5951 -1.9694,-0.3897 -1.669,-1.1128 -1.1165,-1.6636 -0.3911,-1.963 0.3911,-1.9629 1.1165,-1.6636 1.669,-1.1128 1.9694,-0.3898 0.5441,0.1074 19.8785,-19.8132 v 0 l 1.0314,-0.6863 1.2157,-0.2429 v 0 h 218.4988 l 0.3089,-0.4576 1.669,-1.1128 1.9694,-0.3897 1.9695,0.3897 1.669,1.1128 1.1165,1.6636 0.391,1.963 -0.391,1.9629 -1.1165,1.6636 -1.669,1.1128 -1.9695,0.3898 -1.9694,-0.3898 -1.669,-1.1128 -0.3089,-0.4576 H 286.1054 l -18.949,18.8839 0.1077,0.5423 -0.3911,1.963 -1.1165,1.6636 -1.669,1.1128 z m -242.282,-23.8124 -2.4824,-0.3249 -2.3123,-0.9574 -1.9892,-1.5167 -1.5217,-1.9828 -0.9607,-2.3047 -0.3258,-2.4741 0.3258,-2.4742 0.9607,-2.3047 1.5217,-1.9827 1.9892,-1.5167 2.3123,-0.9575 2.4824,-0.3248 2.4823,0.3248 2.3123,0.9575 1.9893,1.5167 1.5217,1.9827 0.9606,2.3047 0.3259,2.4742 -0.3259,2.4741 -0.9606,2.3047 -1.5217,1.9828 -1.9893,1.5167 -2.3123,0.9574 z m 242.282,1.2173 -1.9694,-0.3898 -1.669,-1.1128 -1.1165,-1.6636 -0.3911,-1.9629 0.3911,-1.963 1.1165,-1.6636 1.669,-1.1128 1.9694,-0.3897 0.5441,0.1073 15.6279,-15.5766 v 0 l 1.0315,-0.6863 1.2156,-0.2429 v 0 h 222.7494 l 0.3089,-0.4575 1.669,-1.1128 1.9694,-0.3898 1.9695,0.3898 1.669,1.1128 1.1165,1.6635 0.391,1.963 -0.391,1.9629 -1.1165,1.6636 -1.669,1.1128 -1.9695,0.3898 -1.9694,-0.3898 -1.669,-1.1128 -0.3089,-0.4575 H 281.8548 l -14.6984,14.6473 0.1077,0.5423 -0.3911,1.9629 -1.1165,1.6636 -1.669,1.1128 z m 356.9311,-49.5738 -2.4823,-0.3248 -2.3123,-0.9547 -1.9864,-1.5195 -1.5246,-1.9799 -0.9578,-2.3047 -0.3287,-2.4742 0.3287,-2.4742 0.9578,-2.3075 1.5246,-1.9799 1.9864,-1.5195 2.3123,-0.9547 2.4823,-0.3248 2.4824,0.3248 2.3151,0.9547 1.9864,1.5195 1.5246,1.9799 0.9578,2.3075 0.3258,2.4742 -0.3258,2.4742 -0.9578,2.3047 -1.5246,1.9799 -1.9864,1.5195 -2.3151,0.9547 z m 0,-28.244 -2.4823,-0.3248 -2.3123,-0.9546 -1.9864,-1.5196 -1.5246,-1.9799 -0.9578,-2.3047 -0.3287,-2.4741 0.3287,-2.4742 0.9578,-2.3076 1.5246,-1.9799 1.9864,-1.5195 2.3123,-0.9546 2.4823,-0.3248 2.4824,0.3248 2.3151,0.9546 1.9864,1.5195 1.5246,1.9799 0.9578,2.3076 0.3258,2.4742 -0.3258,2.4741 -0.9578,2.3047 -1.5246,1.9799 -1.9864,1.5196 -2.3151,0.9546 z m -373.9333,196.4424 -1.9694,-0.3898 -1.6691,-1.1128 -1.1165,-1.6636 -0.2607,-1.3133 -3.4854,-3.474 -0.87,-1.2964 -0.306,-1.528 v -198.877 l -8.9857,-8.9562 h -16.5064 l -1.1164,0.7428 -1.9695,0.3898 -1.9694,-0.3898 -1.6691,-1.1128 -1.1164,-1.6635 -0.3911,-1.963 0.3911,-1.963 0.7452,-1.1128 v -7.9789 l -8.742,-8.7161 -0.8699,-1.2964 -0.3061,-1.528 V 86.9086 l -0.6885,-1.028 -0.3911,-1.963 0.3911,-1.9629 1.1164,-1.6636 1.6691,-1.1128 1.9694,-0.3898 1.9694,0.3898 1.6691,1.1128 1.1165,1.6636 0.391,1.9629 -0.391,1.963 -0.802,1.1947 v 119.4493 l 8.742,8.7161 0.87,1.2964 0.306,1.528 v 8.7133 h 17.2431 l 1.5331,0.305 1.3006,0.8671 11.3349,11.2976 0.8699,1.2964 0.3061,1.528 v 198.877 l 2.3094,2.3047 1.3177,0.2599 1.6691,1.1128 1.1165,1.6635 0.391,1.963 -0.391,1.9629 -1.1165,1.6636 -1.6691,1.1128 z m 46.7562,-196.2955 -1.9694,-0.3898 -1.6691,-1.1128 -1.1165,-1.6636 -0.391,-1.9629 0.391,-1.963 1.1165,-1.6636 1.6691,-1.1128 1.9694,-0.3897 0.5441,0.1073 14.211,-14.1643 v 0 l 1.0315,-0.6864 1.2156,-0.2429 v 0 h 35.7246 l 0.3089,-0.4575 1.669,-1.1128 1.9695,-0.3898 1.9694,0.3898 1.669,1.1128 1.1165,1.6635 0.3911,1.963 -0.3911,1.963 -1.1165,1.6635 -1.669,1.1128 -1.9694,0.3898 -1.9695,-0.3898 -1.669,-1.1128 -0.3089,-0.4575 h -34.4069 l -13.2816,13.2351 0.1077,0.5423 -0.3911,1.9629 -1.1164,1.6636 -1.6691,1.1128 z m 327.1771,-28.3909 -2.4823,-0.3248 -2.3123,-0.9546 -1.9864,-1.5195 -1.5246,-1.9799 -0.9578,-2.3047 -0.3287,-2.4742 0.3287,-2.4742 0.9578,-2.3075 1.5246,-1.9799 1.9864,-1.5195 2.3123,-0.9547 2.4823,-0.3248 2.4824,0.3248 2.3151,0.9547 1.9864,1.5195 1.5246,1.9799 0.9578,2.3075 0.3258,2.4742 -0.3258,2.4742 -0.9578,2.3047 -1.5246,1.9799 -1.9864,1.5195 -2.3151,0.9546 z m -244.9996,-46.4556 -1.9694,-0.3898 -1.6691,-1.1128 -0.3088,-0.4575 h -98.3694 l -0.3089,0.4575 -1.669,1.1128 -1.9694,0.3898 -1.9695,-0.3898 -1.669,-1.1128 -1.1165,-1.6636 -0.3911,-1.9629 0.3911,-1.963 1.1165,-1.6635 1.669,-1.1129 1.9695,-0.3897 1.9694,0.3897 1.669,1.1129 0.3089,0.4575 h 98.3694 l 0.3088,-0.4575 1.6691,-1.1129 1.9694,-0.3897 1.9695,0.3897 1.669,1.1129 1.1165,1.6635 0.391,1.963 -0.391,1.9629 -1.1165,1.6636 -1.669,1.1128 z m -245.1044,-12.0206 -1.9695,-0.3898 -1.669,-1.1128 -1.1165,-1.6636 -0.391,-1.9629 0.391,-1.963 1.1165,-1.6636 0.4591,-0.3078 v -42.1711 l -0.4591,-0.305 -1.1165,-1.6664 -0.391,-1.9601 0.391,-1.963 1.1165,-1.6636 1.669,-1.1128 1.9695,-0.3898 1.9694,0.3898 1.6691,1.1128 1.1164,1.6636 0.3911,1.963 -0.3911,1.9601 -1.1164,1.6664 -0.4591,0.305 v 42.1711 l 0.4591,0.3078 1.1164,1.6636 0.3911,1.963 -0.3911,1.9629 -1.1164,1.6636 -1.6691,1.1128 z m 249.355,89.6915 -1.9694,-0.3898 -1.6691,-1.1128 -1.1165,-1.6636 -0.391,-1.9629 0.391,-1.963 1.1165,-1.6636 1.6691,-1.1128 1.6747,-0.3304 2.7827,-2.7764 V 87.8407 l -0.4591,-0.3079 -1.1165,-1.6635 -0.391,-1.963 0.391,-1.9629 1.1165,-1.6636 1.6691,-1.1128 1.9694,-0.3898 1.9694,0.3898 1.6691,1.1128 1.1165,1.6636 0.391,1.9629 -0.391,1.963 -1.1165,1.6635 -0.4591,0.3079 v 160.4087 0 l -0.2437,1.2117 -0.6886,1.0281 v 0 l -3.0235,3.0136 0.255,1.2795 -0.391,1.9629 -1.1165,1.6636 -1.6691,1.1128 z m 35.4214,-5.6488 -1.9695,-0.3898 -1.669,-1.1128 -1.1165,-1.6636 -0.3911,-1.9629 0.3911,-1.963 1.1165,-1.6635 1.669,-1.1129 1.9695,-0.3897 0.544,0.1073 11.8619,-11.8257 V 80.7797 l -0.459,-0.3079 -1.1165,-1.6635 -0.3911,-1.963 0.3911,-1.9629 1.1165,-1.6636 1.669,-1.1128 1.9694,-0.3898 1.9695,0.3898 1.669,1.1128 1.1165,1.6636 0.3911,1.9629 -0.3911,1.963 -1.1165,1.6635 -0.459,0.3079 v 152.8196 l -0.2437,1.2117 -0.6886,1.028 v 0 l -12.7942,12.7522 0.1077,0.5423 -0.3911,1.9629 -1.1165,1.6636 -1.669,1.1128 z m -154.4372,129.9222 -1.9694,-0.3898 -1.669,-1.1128 -1.1165,-1.6636 -0.2607,-1.3133 -7.6709,-7.6428 -0.8671,-1.2964 -0.306,-1.528 V 36.9536 l -0.7453,-1.1129 -0.3911,-1.9629 0.3911,-1.963 1.1165,-1.6635 1.669,-1.11 1.9695,-0.3926 1.9694,0.3926 1.669,1.11 1.1137,1.6635 0.3939,1.963 -0.3939,1.9629 -0.7453,1.1129 V 367.583 l 6.4949,6.4735 1.3177,0.2599 1.669,1.1128 1.1165,1.6635 0.391,1.963 -0.391,1.9629 -1.1165,1.6636 -1.669,1.1128 z m 222.4462,-131.3344 -1.9695,-0.3898 -1.669,-1.1128 -1.1165,-1.6636 -0.3911,-1.9629 0.3911,-1.963 1.1165,-1.6635 0.459,-0.3079 v -68.1866 l -38.7396,-38.6151 -0.6886,-1.0281 -0.2437,-1.2117 v 0 -105.7736 l -9.7479,-9.7159 H 245.1725 l -11.0458,11.0095 v 152.4948 0 l -0.2437,1.2116 -0.6886,1.0281 v 0 l -11.8194,11.7834 v 13.1108 l 0.459,0.3079 1.1165,1.6636 0.3911,1.9629 -0.3911,1.963 -1.1165,1.6636 -1.669,1.1128 -1.9694,0.3897 -1.9695,-0.3897 -1.669,-1.1128 -1.1165,-1.6636 -0.3911,-1.963 0.3911,-1.9629 1.1165,-1.6636 0.459,-0.3079 v -14.4241 0 l 0.2437,-1.2117 0.6886,-1.0281 11.8194,-11.7834 V 28.952 v 0 l 0.2437,-1.2116 0.6886,-1.0281 12.9076,-12.8651 v 0 l 1.0314,-0.6864 1.2157,-0.24 v 0 H 430.446 v 0 l 1.2185,0.24 1.0315,0.6864 11.6097,11.5743 v 0 l 0.6886,1.0281 0.2437,1.2117 v 0 105.7708 l 38.7396,38.6151 0.6886,1.0281 0.2437,1.2117 v 0 69.4999 l 0.459,0.3079 1.1165,1.6635 0.3911,1.963 -0.3911,1.9629 -1.1165,1.6636 -1.669,1.1128 z" /><path
                 id="path118"
                 style="fill:none;stroke:#5a5a5a;stroke-width:4.46309996;stroke-linecap:round;stroke-linejoin:miter;stroke-miterlimit:10;stroke-dasharray:none;stroke-opacity:1"
                 d="m 196.9427,83.9741 0.0567,-0.0565" /><path
                 id="path120"
                 style="fill:none;stroke:#5a5a5a;stroke-width:2.83369994;stroke-linecap:round;stroke-linejoin:miter;stroke-miterlimit:10;stroke-dasharray:none;stroke-opacity:1"
                 d="m 216.7787,325.3922 4.2506,4.2366" /><path
                 id="path122"
                 style="fill:none;stroke:#5a5a5a;stroke-width:4.46309996;stroke-linecap:round;stroke-linejoin:miter;stroke-miterlimit:10;stroke-dasharray:none;stroke-opacity:1"
                 d="m 249.4344,369.2381 9.8499,9.8176" /><path
                 id="path124"
                 style="fill:none;stroke:#5a5a5a;stroke-width:2.83369994;stroke-linecap:round;stroke-linejoin:miter;stroke-miterlimit:10;stroke-dasharray:none;stroke-opacity:1"
                 d="m 378.3001,253.8982 v 0.8841" /><path
                 id="path126"
                 style="fill:none;stroke:#5a5a5a;stroke-width:2.83369994;stroke-linecap:round;stroke-linejoin:miter;stroke-miterlimit:10;stroke-dasharray:none;stroke-opacity:1"
                 d="m 218.1956,195.47 v 18.3585" /><path
                 id="path128"
                 style="fill:none;stroke:#5a5a5a;stroke-width:4.46309996;stroke-linecap:round;stroke-linejoin:miter;stroke-miterlimit:10;stroke-dasharray:none;stroke-opacity:1"
                 d="m 206.8607,218.0651 v 12.7098" /><path
                 id="path130"
                 style="fill:none;stroke:#5a5a5a;stroke-width:2.83369994;stroke-linecap:round;stroke-linejoin:miter;stroke-miterlimit:10;stroke-dasharray:none;stroke-opacity:1"
                 d="M 230.9472,28.952 243.8548,16.0869" /><path
                 id="path132"
                 style="fill:none;stroke:#5a5a5a;stroke-width:2.83369994;stroke-linecap:round;stroke-linejoin:miter;stroke-miterlimit:10;stroke-dasharray:none;stroke-opacity:1"
                 d="m 430.446,16.0869 11.6125,11.5744" /><path
                 id="path134"
                 style="fill:none;stroke:#5a5a5a;stroke-width:2.83369994;stroke-linecap:round;stroke-linejoin:miter;stroke-miterlimit:10;stroke-dasharray:none;stroke-opacity:1"
                 d="m 128.9451,115.0538 v 50.037" /><path
                 id="path136"
                 style="fill:none;stroke:#5a5a5a;stroke-width:4.46309996;stroke-linecap:round;stroke-linejoin:miter;stroke-miterlimit:10;stroke-dasharray:none;stroke-opacity:1"
                 d="m 228.1135,230.7749 11.3349,11.2976" /><path
                 id="path138"
                 style="fill:none;stroke:#5a5a5a;stroke-width:4.46309996;stroke-linecap:round;stroke-linejoin:miter;stroke-miterlimit:10;stroke-dasharray:none;stroke-opacity:1"
                 d="M 239.4484,242.0725 V 442.6046" /><path
                 id="path140"
                 style="fill:none;stroke:#5a5a5a;stroke-width:2.83369994;stroke-linecap:round;stroke-linejoin:miter;stroke-miterlimit:10;stroke-dasharray:none;stroke-opacity:1"
                 d="m 481.7305,174.287 v 73.4343" /><path
                 id="path142"
                 style="fill:none;stroke:#5a5a5a;stroke-width:2.83369994;stroke-linecap:round;stroke-linejoin:miter;stroke-miterlimit:10;stroke-dasharray:none;stroke-opacity:1"
                 d="m 500.4499,401.9389 v 36.6946" /><path
                 id="path144"
                 style="fill:none;stroke:#5a5a5a;stroke-width:4.46309996;stroke-linecap:round;stroke-linejoin:miter;stroke-miterlimit:10;stroke-dasharray:none;stroke-opacity:1"
                 d="M 196.9427,83.9741 V 208.1797" /><path
                 id="path146"
                 style="fill:none;stroke:#5a5a5a;stroke-width:2.83369994;stroke-linecap:round;stroke-linejoin:miter;stroke-miterlimit:10;stroke-dasharray:none;stroke-opacity:1"
                 d="M 230.9472,28.952 V 182.7602" /><path
                 id="path148"
                 style="fill:none;stroke:#5a5a5a;stroke-width:4.46309996;stroke-linecap:round;stroke-linejoin:miter;stroke-miterlimit:10;stroke-dasharray:none;stroke-opacity:1"
                 d="M 249.4344,33.8778 V 369.2381" /><path
                 id="path150"
                 style="fill:none;stroke:#5a5a5a;stroke-width:2.83369994;stroke-linecap:round;stroke-linejoin:miter;stroke-miterlimit:10;stroke-dasharray:none;stroke-opacity:1"
                 d="M 383.9675,83.9063 V 248.2494" /><path
                 id="path152"
                 style="fill:none;stroke:#5a5a5a;stroke-width:2.83369994;stroke-linecap:round;stroke-linejoin:miter;stroke-miterlimit:10;stroke-dasharray:none;stroke-opacity:1"
                 d="M 442.0585,27.6613 V 134.7454" /><path
                 id="path154"
                 style="fill:none;stroke:#5a5a5a;stroke-width:2.83369994;stroke-linecap:round;stroke-linejoin:miter;stroke-miterlimit:10;stroke-dasharray:none;stroke-opacity:1"
                 d="m 429.3068,76.8453 v 156.754" /><path
                 id="path156"
                 style="fill:none;stroke:#5a5a5a;stroke-width:4.46309996;stroke-linecap:round;stroke-linejoin:miter;stroke-miterlimit:10;stroke-dasharray:none;stroke-opacity:1"
                 d="m 239.4484,442.6046 5.6674,5.6488" /><path
                 id="path158"
                 style="fill:none;stroke:#5a5a5a;stroke-width:4.46309996;stroke-linecap:round;stroke-linejoin:miter;stroke-miterlimit:10;stroke-dasharray:none;stroke-opacity:1"
                 d="m 206.8607,230.7749 h 21.2528" /><path
                 id="path160"
                 style="fill:none;stroke:#5a5a5a;stroke-width:2.83369994;stroke-linecap:round;stroke-linejoin:miter;stroke-miterlimit:10;stroke-dasharray:none;stroke-opacity:1"
                 d="m 218.1956,195.47 12.7516,-12.7098" /><path
                 id="path162"
                 style="fill:none;stroke:#5a5a5a;stroke-width:4.46309996;stroke-linecap:round;stroke-linejoin:miter;stroke-miterlimit:10;stroke-dasharray:none;stroke-opacity:1"
                 d="m 196.9427,208.1797 9.918,9.8854" /><path
                 id="path164"
                 style="fill:none;stroke:#5a5a5a;stroke-width:2.83369994;stroke-linecap:round;stroke-linejoin:miter;stroke-miterlimit:10;stroke-dasharray:none;stroke-opacity:1"
                 d="m 378.3001,253.8982 5.6674,-5.6488" /><path
                 id="path166"
                 style="fill:none;stroke:#5a5a5a;stroke-width:2.83369994;stroke-linecap:round;stroke-linejoin:miter;stroke-miterlimit:10;stroke-dasharray:none;stroke-opacity:1"
                 d="M 284.7877,329.6288 262.118,352.2239" /><path
                 id="path168"
                 style="fill:none;stroke:#5a5a5a;stroke-width:2.83369994;stroke-linecap:round;stroke-linejoin:miter;stroke-miterlimit:10;stroke-dasharray:none;stroke-opacity:1"
                 d="M 280.5371,311.2702 262.118,329.6288" /><path
                 id="path170"
                 style="fill:none;stroke:#5a5a5a;stroke-width:2.83369994;stroke-linecap:round;stroke-linejoin:miter;stroke-miterlimit:10;stroke-dasharray:none;stroke-opacity:1"
                 d="m 291.872,251.9579 17.0022,-16.9464" /><path
                 id="path172"
                 style="fill:none;stroke:#5a5a5a;stroke-width:2.83369994;stroke-linecap:round;stroke-linejoin:miter;stroke-miterlimit:10;stroke-dasharray:none;stroke-opacity:1"
                 d="m 442.0585,134.7454 39.672,39.5416" /><path
                 id="path174"
                 style="fill:none;stroke:#5a5a5a;stroke-width:2.83369994;stroke-linecap:round;stroke-linejoin:miter;stroke-miterlimit:10;stroke-dasharray:none;stroke-opacity:1"
                 d="m 308.8742,235.0115 h 39.672" /><path
                 id="path176"
                 style="fill:none;stroke:#5a5a5a;stroke-width:2.83369994;stroke-linecap:round;stroke-linejoin:miter;stroke-miterlimit:10;stroke-dasharray:none;stroke-opacity:1"
                 d="M 62.3416,325.3922 H 216.7787" /><path
                 id="path178"
                 style="fill:none;stroke:#5a5a5a;stroke-width:2.83369994;stroke-linecap:round;stroke-linejoin:miter;stroke-miterlimit:10;stroke-dasharray:none;stroke-opacity:1"
                 d="M 62.3416,352.2239 H 221.0293" /><path
                 id="path180"
                 style="fill:none;stroke:#5a5a5a;stroke-width:2.83369994;stroke-linecap:round;stroke-linejoin:miter;stroke-miterlimit:10;stroke-dasharray:none;stroke-opacity:1"
                 d="m 413.7215,249.1335 15.5853,-15.5342" /><path
                 id="path182"
                 style="fill:none;stroke:#5a5a5a;stroke-width:2.83369994;stroke-linecap:round;stroke-linejoin:miter;stroke-miterlimit:10;stroke-dasharray:none;stroke-opacity:1"
                 d="M 243.8548,16.0869 H 430.446" /><path
                 id="path184"
                 style="fill:none;stroke:#5a5a5a;stroke-width:2.83369994;stroke-linecap:round;stroke-linejoin:miter;stroke-miterlimit:10;stroke-dasharray:none;stroke-opacity:1"
                 d="m 267.7855,177.1114 h 106.264" /><path
                 id="path186"
                 style="fill:none;stroke:#5a5a5a;stroke-width:2.83369994;stroke-linecap:round;stroke-linejoin:miter;stroke-miterlimit:10;stroke-dasharray:none;stroke-opacity:1"
                 d="M 280.5371,311.2702 H 507.2338" /><path
                 id="path188"
                 style="fill:none;stroke:#5a5a5a;stroke-width:2.83369994;stroke-linecap:round;stroke-linejoin:miter;stroke-miterlimit:10;stroke-dasharray:none;stroke-opacity:1"
                 d="M 284.7877,329.6288 H 507.2338" /><path
                 id="path190"
                 style="fill:#000000;fill-opacity:1;fill-rule:nonzero;stroke:none"
                 d="m 252.781,33.8764 c 0,1.843 -1.4996,3.337 -3.3495,3.337 -1.8498,0 -3.3494,-1.494 -3.3494,-3.337 0,-1.843 1.4996,-3.3371 3.3494,-3.3371 1.8499,0 3.3495,1.4941 3.3495,3.3371" /><path
                 id="path192"
                 style="fill:#d2d2d2;fill-opacity:1;fill-rule:nonzero;stroke:none"
                 d="m 250.8285,33.8778 c 0,0.769 -0.6248,1.3924 -1.3956,1.3924 -0.7707,0 -1.3956,-0.6234 -1.3956,-1.3924 0,-0.769 0.6249,-1.3924 1.3956,-1.3924 0.7708,0 1.3956,0.6234 1.3956,1.3924" /><path
                 id="path194"
                 style="fill:#000000;fill-opacity:1;fill-rule:nonzero;stroke:none"
                 d="m 132.2917,115.0509 c 0,1.8438 -1.499,3.3385 -3.348,3.3385 -1.8491,0 -3.3481,-1.4947 -3.3481,-3.3385 0,-1.8437 1.499,-3.3384 3.3481,-3.3384 1.849,0 3.348,1.4947 3.348,3.3384" /><path
                 id="path196"
                 style="fill:#d2d2d2;fill-opacity:1;fill-rule:nonzero;stroke:none"
                 d="m 130.3393,115.0509 c 0,0.769 -0.6249,1.3925 -1.3956,1.3925 -0.7708,0 -1.3956,-0.6235 -1.3956,-1.3925 0,-0.769 0.6248,-1.3924 1.3956,-1.3924 0.7707,0 1.3956,0.6234 1.3956,1.3924" /><path
                 id="path198"
                 style="fill:#000000;fill-opacity:1;fill-rule:nonzero;stroke:none"
                 d="m 132.2917,165.0893 c 0,1.843 -1.499,3.3371 -3.348,3.3371 -1.8491,0 -3.3481,-1.4941 -3.3481,-3.3371 0,-1.8429 1.499,-3.337 3.3481,-3.337 1.849,0 3.348,1.4941 3.348,3.337" /><path
                 id="path200"
                 style="fill:#d2d2d2;fill-opacity:1;fill-rule:nonzero;stroke:none"
                 d="m 130.3393,165.0893 c 0,0.7683 -0.6249,1.3911 -1.3956,1.3911 -0.7708,0 -1.3956,-0.6228 -1.3956,-1.3911 0,-0.7682 0.6248,-1.391 1.3956,-1.391 0.7707,0 1.3956,0.6228 1.3956,1.391" /><path
                 id="path202"
                 style="fill:#000000;fill-opacity:1;fill-rule:nonzero;stroke:none"
                 d="m 503.7965,401.9389 c 0,1.8438 -1.4989,3.3385 -3.348,3.3385 -1.849,0 -3.348,-1.4947 -3.348,-3.3385 0,-1.8437 1.499,-3.3384 3.348,-3.3384 1.8491,0 3.348,1.4947 3.348,3.3384" /><path
                 id="path204"
                 style="fill:#d2d2d2;fill-opacity:1;fill-rule:nonzero;stroke:none"
                 d="m 501.8441,401.9375 c 0,0.7683 -0.6248,1.3911 -1.3956,1.3911 -0.7708,0 -1.3956,-0.6228 -1.3956,-1.3911 0,-0.7682 0.6248,-1.391 1.3956,-1.391 0.7708,0 1.3956,0.6228 1.3956,1.391" /><path
                 id="path206"
                 style="fill:#000000;fill-opacity:1;fill-rule:nonzero;stroke:none"
                 d="m 503.7965,438.6335 c 0,1.8438 -1.4989,3.3384 -3.348,3.3384 -1.849,0 -3.348,-1.4946 -3.348,-3.3384 0,-1.8438 1.499,-3.3384 3.348,-3.3384 1.8491,0 3.348,1.4946 3.348,3.3384" /><path
                 id="path208"
                 style="fill:#d2d2d2;fill-opacity:1;fill-rule:nonzero;stroke:none"
                 d="m 501.8441,438.6335 c 0,0.769 -0.6248,1.3924 -1.3956,1.3924 -0.7708,0 -1.3956,-0.6234 -1.3956,-1.3924 0,-0.769 0.6248,-1.3924 1.3956,-1.3924 0.7708,0 1.3956,0.6234 1.3956,1.3924" /><path
                 id="path210"
                 style="fill:#000000;fill-opacity:1;fill-rule:nonzero;stroke:none"
                 d="m 200.346,83.9162 c 0,1.843 -1.4989,3.337 -3.348,3.337 -1.8491,0 -3.348,-1.494 -3.348,-3.337 0,-1.843 1.4989,-3.337 3.348,-3.337 1.8491,0 3.348,1.494 3.348,3.337" /><path
                 id="path212"
                 style="fill:#d2d2d2;fill-opacity:1;fill-rule:nonzero;stroke:none"
                 d="m 198.3936,83.9162 c 0,0.7682 -0.6248,1.391 -1.3956,1.391 -0.7708,0 -1.3956,-0.6228 -1.3956,-1.391 0,-0.7682 0.6248,-1.391 1.3956,-1.391 0.7708,0 1.3956,0.6228 1.3956,1.391" /><path
                 id="path214"
                 style="fill:#000000;fill-opacity:1;fill-rule:nonzero;stroke:none"
                 d="m 566.2742,475.3295 c 0,1.843 -1.4996,3.337 -3.3495,3.337 -1.8498,0 -3.3494,-1.494 -3.3494,-3.337 0,-1.843 1.4996,-3.3371 3.3494,-3.3371 1.8499,0 3.3495,1.4941 3.3495,3.3371" /><path
                 id="path216"
                 style="fill:#d2d2d2;fill-opacity:1;fill-rule:nonzero;stroke:none"
                 d="m 564.3217,475.3281 c 0,0.769 -0.6254,1.3924 -1.397,1.3924 -0.7715,0 -1.397,-0.6234 -1.397,-1.3924 0,-0.7691 0.6255,-1.3925 1.397,-1.3925 0.7716,0 1.397,0.6234 1.397,1.3925" /><path
                 id="path218"
                 style="fill:#000000;fill-opacity:1;fill-rule:nonzero;stroke:none"
                 d="m 575.1975,562.061 c 0,1.843 -1.499,3.337 -3.348,3.337 -1.8491,0 -3.3481,-1.494 -3.3481,-3.337 0,-1.843 1.499,-3.337 3.3481,-3.337 1.849,0 3.348,1.494 3.348,3.337" /><path
                 id="path220"
                 style="fill:#d2d2d2;fill-opacity:1;fill-rule:nonzero;stroke:none"
                 d="m 573.2451,562.061 c 0,0.7683 -0.6249,1.391 -1.3956,1.391 -0.7708,0 -1.3956,-0.6227 -1.3956,-1.391 0,-0.7682 0.6248,-1.391 1.3956,-1.391 0.7707,0 1.3956,0.6228 1.3956,1.391" /><path
                 id="path222"
                 style="fill:#000000;fill-opacity:1;fill-rule:nonzero;stroke:none"
                 d="m 617.5926,497.5688 c 0,1.8429 -1.499,3.337 -3.348,3.337 -1.8491,0 -3.348,-1.4941 -3.348,-3.337 0,-1.843 1.4989,-3.3371 3.348,-3.3371 1.849,0 3.348,1.4941 3.348,3.3371" /><path
                 id="path224"
                 style="fill:#d2d2d2;fill-opacity:1;fill-rule:nonzero;stroke:none"
                 d="m 615.6402,497.5673 c 0,0.7691 -0.6248,1.3925 -1.3956,1.3925 -0.7708,0 -1.3956,-0.6234 -1.3956,-1.3925 0,-0.769 0.6248,-1.3924 1.3956,-1.3924 0.7708,0 1.3956,0.6234 1.3956,1.3924" /><path
                 id="path226"
                 style="fill:#000000;fill-opacity:1;fill-rule:nonzero;stroke:none"
                 d="m 526.1092,506.4628 c 0,1.843 -1.499,3.337 -3.3481,3.337 -1.849,0 -3.348,-1.494 -3.348,-3.337 0,-1.843 1.499,-3.337 3.348,-3.337 1.8491,0 3.3481,1.494 3.3481,3.337" /><path
                 id="path228"
                 style="fill:#d2d2d2;fill-opacity:1;fill-rule:nonzero;stroke:none"
                 d="m 524.1567,506.4628 c 0,0.7682 -0.6248,1.391 -1.3956,1.391 -0.7707,0 -1.3956,-0.6228 -1.3956,-1.391 0,-0.7683 0.6249,-1.391 1.3956,-1.391 0.7708,0 1.3956,0.6227 1.3956,1.391" /><path
                 id="path230"
                 style="fill:#000000;fill-opacity:1;fill-rule:nonzero;stroke:none"
                 d="m 566.2742,515.3596 c 0,1.843 -1.4996,3.3371 -3.3495,3.3371 -1.8498,0 -3.3494,-1.4941 -3.3494,-3.3371 0,-1.843 1.4996,-3.337 3.3494,-3.337 1.8499,0 3.3495,1.494 3.3495,3.337" /><path
                 id="path232"
                 style="fill:#d2d2d2;fill-opacity:1;fill-rule:nonzero;stroke:none"
                 d="m 564.3217,515.3596 c 0,0.7683 -0.6254,1.391 -1.397,1.391 -0.7715,0 -1.397,-0.6227 -1.397,-1.391 0,-0.7682 0.6255,-1.391 1.397,-1.391 0.7716,0 1.397,0.6228 1.397,1.391" /><path
                 id="path234"
                 style="fill:#000000;fill-opacity:1;fill-rule:nonzero;stroke:none"
                 d="m 523.879,544.2701 c 0,1.843 -1.4989,3.3371 -3.348,3.3371 -1.8491,0 -3.348,-1.4941 -3.348,-3.3371 0,-1.8429 1.4989,-3.337 3.348,-3.337 1.8491,0 3.348,1.4941 3.348,3.337" /><path
                 id="path236"
                 style="fill:#d2d2d2;fill-opacity:1;fill-rule:nonzero;stroke:none"
                 d="m 521.9266,544.2701 c 0,0.7683 -0.6248,1.3911 -1.3956,1.3911 -0.7708,0 -1.3956,-0.6228 -1.3956,-1.3911 0,-0.7682 0.6248,-1.391 1.3956,-1.391 0.7708,0 1.3956,0.6228 1.3956,1.391" /><path
                 id="path238"
                 style="fill:#000000;fill-opacity:1;fill-rule:nonzero;stroke:none"
                 d="m 195.8829,553.167 c 0,1.843 -1.4989,3.337 -3.348,3.337 -1.8491,0 -3.348,-1.494 -3.348,-3.337 0,-1.843 1.4989,-3.337 3.348,-3.337 1.8491,0 3.348,1.494 3.348,3.337" /><path
                 id="path240"
                 style="fill:#d2d2d2;fill-opacity:1;fill-rule:nonzero;stroke:none"
                 d="m 193.9305,553.167 c 0,0.7682 -0.6248,1.391 -1.3956,1.391 -0.7708,0 -1.3956,-0.6228 -1.3956,-1.391 0,-0.7682 0.6248,-1.391 1.3956,-1.391 0.7708,0 1.3956,0.6228 1.3956,1.391" /><path
                 id="path242"
                 style="fill:#000000;fill-opacity:1;fill-rule:nonzero;stroke:none"
                 d="m 142.3315,553.167 c 0,1.843 -1.4989,3.337 -3.348,3.337 -1.8491,0 -3.348,-1.494 -3.348,-3.337 0,-1.843 1.4989,-3.337 3.348,-3.337 1.8491,0 3.348,1.494 3.348,3.337" /><path
                 id="path244"
                 style="fill:#d2d2d2;fill-opacity:1;fill-rule:nonzero;stroke:none"
                 d="m 140.3791,553.167 c 0,0.7682 -0.6248,1.391 -1.3956,1.391 -0.7708,0 -1.3956,-0.6228 -1.3956,-1.391 0,-0.7682 0.6248,-1.391 1.3956,-1.391 0.7708,0 1.3956,0.6228 1.3956,1.391" /><path
                 id="path246"
                 style="fill:#000000;fill-opacity:1;fill-rule:nonzero;stroke:none"
                 d="m 86.55,553.167 c 0,1.843 -1.499,3.337 -3.3481,3.337 -1.849,0 -3.348,-1.494 -3.348,-3.337 0,-1.843 1.499,-3.337 3.348,-3.337 1.8491,0 3.3481,1.494 3.3481,3.337" /><path
                 id="path248"
                 style="fill:#d2d2d2;fill-opacity:1;fill-rule:nonzero;stroke:none"
                 d="m 84.5975,553.167 c 0,0.7682 -0.6248,1.391 -1.3956,1.391 -0.7707,0 -1.3956,-0.6228 -1.3956,-1.391 0,-0.7682 0.6249,-1.391 1.3956,-1.391 0.7708,0 1.3956,0.6228 1.3956,1.391" /><path
                 id="path250"
                 style="fill:#000000;fill-opacity:1;fill-rule:nonzero;stroke:none"
                 d="m 97.7063,401.9389 c 0,1.8438 -1.499,3.3385 -3.3481,3.3385 -1.849,0 -3.348,-1.4947 -3.348,-3.3385 0,-1.8437 1.499,-3.3384 3.348,-3.3384 1.8491,0 3.3481,1.4947 3.3481,3.3384" /><path
                 id="path252"
                 style="fill:#d2d2d2;fill-opacity:1;fill-rule:nonzero;stroke:none"
                 d="m 95.7538,401.9375 c 0,0.7683 -0.6248,1.3911 -1.3956,1.3911 -0.7707,0 -1.3956,-0.6228 -1.3956,-1.3911 0,-0.7682 0.6249,-1.391 1.3956,-1.391 0.7708,0 1.3956,0.6228 1.3956,1.391" /><path
                 id="path254"
                 style="fill:#000000;fill-opacity:1;fill-rule:nonzero;stroke:none"
                 d="m 66.4703,401.9389 c 0,1.8438 -1.4996,3.3385 -3.3494,3.3385 -1.8499,0 -3.3495,-1.4947 -3.3495,-3.3385 0,-1.8437 1.4996,-3.3384 3.3495,-3.3384 1.8498,0 3.3494,1.4947 3.3494,3.3384" /><path
                 id="path256"
                 style="fill:#d2d2d2;fill-opacity:1;fill-rule:nonzero;stroke:none"
                 d="m 64.5179,401.9375 c 0,0.7683 -0.6249,1.3911 -1.3956,1.3911 -0.7708,0 -1.3956,-0.6228 -1.3956,-1.3911 0,-0.7682 0.6248,-1.391 1.3956,-1.391 0.7707,0 1.3956,0.6228 1.3956,1.391" /><path
                 id="path258"
                 style="fill:#000000;fill-opacity:1;fill-rule:nonzero;stroke:none"
                 d="m 162.414,364.1316 c 0,1.8438 -1.499,3.3384 -3.348,3.3384 -1.8491,0 -3.348,-1.4946 -3.348,-3.3384 0,-1.8438 1.4989,-3.3385 3.348,-3.3385 1.849,0 3.348,1.4947 3.348,3.3385" /><path
                 id="path260"
                 style="fill:#d2d2d2;fill-opacity:1;fill-rule:nonzero;stroke:none"
                 d="m 160.4616,364.1316 c 0,0.769 -0.6249,1.3924 -1.3956,1.3924 -0.7708,0 -1.3956,-0.6234 -1.3956,-1.3924 0,-0.769 0.6248,-1.3924 1.3956,-1.3924 0.7707,0 1.3956,0.6234 1.3956,1.3924" /><path
                 id="path262"
                 style="fill:#000000;fill-opacity:1;fill-rule:nonzero;stroke:none"
                 d="m 111.0955,364.1316 c 0,1.8438 -1.4996,3.3384 -3.3494,3.3384 -1.8498,0 -3.3494,-1.4946 -3.3494,-3.3384 0,-1.8438 1.4996,-3.3385 3.3494,-3.3385 1.8498,0 3.3494,1.4947 3.3494,3.3385" /><path
                 id="path264"
                 style="fill:#d2d2d2;fill-opacity:1;fill-rule:nonzero;stroke:none"
                 d="m 109.1431,364.1316 c 0,0.769 -0.6248,1.3924 -1.3956,1.3924 -0.7708,0 -1.3956,-0.6234 -1.3956,-1.3924 0,-0.769 0.6248,-1.3924 1.3956,-1.3924 0.7708,0 1.3956,0.6234 1.3956,1.3924" /><path
                 id="path266"
                 style="fill:#000000;fill-opacity:1;fill-rule:nonzero;stroke:none"
                 d="m 162.414,339.6681 c 0,1.843 -1.499,3.337 -3.348,3.337 -1.8491,0 -3.348,-1.494 -3.348,-3.337 0,-1.843 1.4989,-3.337 3.348,-3.337 1.849,0 3.348,1.494 3.348,3.337" /><path
                 id="path268"
                 style="fill:#d2d2d2;fill-opacity:1;fill-rule:nonzero;stroke:none"
                 d="m 160.4616,339.6681 c 0,0.7682 -0.6249,1.391 -1.3956,1.391 -0.7708,0 -1.3956,-0.6228 -1.3956,-1.391 0,-0.7683 0.6248,-1.391 1.3956,-1.391 0.7707,0 1.3956,0.6227 1.3956,1.391" /><path
                 id="path270"
                 style="fill:#000000;fill-opacity:1;fill-rule:nonzero;stroke:none"
                 d="m 111.0955,339.6681 c 0,1.843 -1.4996,3.337 -3.3494,3.337 -1.8498,0 -3.3494,-1.494 -3.3494,-3.337 0,-1.843 1.4996,-3.337 3.3494,-3.337 1.8498,0 3.3494,1.494 3.3494,3.337" /><path
                 id="path272"
                 style="fill:#d2d2d2;fill-opacity:1;fill-rule:nonzero;stroke:none"
                 d="m 109.1431,339.6681 c 0,0.7682 -0.6248,1.391 -1.3956,1.391 -0.7708,0 -1.3956,-0.6228 -1.3956,-1.391 0,-0.7683 0.6248,-1.391 1.3956,-1.391 0.7708,0 1.3956,0.6227 1.3956,1.391" /><path
                 id="path274"
                 style="fill:#000000;fill-opacity:1;fill-rule:nonzero;stroke:none"
                 d="m 162.414,315.206 c 0,1.843 -1.499,3.337 -3.348,3.337 -1.8491,0 -3.348,-1.494 -3.348,-3.337 0,-1.843 1.4989,-3.337 3.348,-3.337 1.849,0 3.348,1.494 3.348,3.337" /><path
                 id="path276"
                 style="fill:#d2d2d2;fill-opacity:1;fill-rule:nonzero;stroke:none"
                 d="m 160.4616,315.206 c 0,0.7682 -0.6249,1.391 -1.3956,1.391 -0.7708,0 -1.3956,-0.6228 -1.3956,-1.391 0,-0.7683 0.6248,-1.391 1.3956,-1.391 0.7707,0 1.3956,0.6227 1.3956,1.391" /><path
                 id="path278"
                 style="fill:#000000;fill-opacity:1;fill-rule:nonzero;stroke:none"
                 d="m 111.0955,315.206 c 0,1.843 -1.4996,3.337 -3.3494,3.337 -1.8498,0 -3.3494,-1.494 -3.3494,-3.337 0,-1.843 1.4996,-3.337 3.3494,-3.337 1.8498,0 3.3494,1.494 3.3494,3.337" /><path
                 id="path280"
                 style="fill:#d2d2d2;fill-opacity:1;fill-rule:nonzero;stroke:none"
                 d="m 109.1431,315.206 c 0,0.7682 -0.6248,1.391 -1.3956,1.391 -0.7708,0 -1.3956,-0.6228 -1.3956,-1.391 0,-0.7683 0.6248,-1.391 1.3956,-1.391 0.7708,0 1.3956,0.6227 1.3956,1.391" /><path
                 id="path282"
                 style="fill:#000000;fill-opacity:1;fill-rule:nonzero;stroke:none"
                 d="m 55.314,284.0698 c 0,1.843 -1.499,3.3371 -3.348,3.3371 -1.8491,0 -3.3481,-1.4941 -3.3481,-3.3371 0,-1.8429 1.499,-3.337 3.3481,-3.337 1.849,0 3.348,1.4941 3.348,3.337" /><path
                 id="path284"
                 style="fill:#d2d2d2;fill-opacity:1;fill-rule:nonzero;stroke:none"
                 d="m 53.3616,284.0698 c 0,0.7683 -0.6255,1.3911 -1.3971,1.3911 -0.7715,0 -1.397,-0.6228 -1.397,-1.3911 0,-0.7682 0.6255,-1.391 1.397,-1.391 0.7716,0 1.3971,0.6228 1.3971,1.391" /><path
                 id="path286"
                 style="fill:#000000;fill-opacity:1;fill-rule:nonzero;stroke:none"
                 d="m 24.0752,284.0698 c 0,1.843 -1.499,3.3371 -3.348,3.3371 -1.8491,0 -3.3481,-1.4941 -3.3481,-3.3371 0,-1.8429 1.499,-3.337 3.3481,-3.337 1.849,0 3.348,1.4941 3.348,3.337" /><path
                 id="path288"
                 style="fill:#d2d2d2;fill-opacity:1;fill-rule:nonzero;stroke:none"
                 d="m 22.1228,284.0698 c 0,0.7683 -0.6249,1.3911 -1.3956,1.3911 -0.7708,0 -1.3956,-0.6228 -1.3956,-1.3911 0,-0.7682 0.6248,-1.391 1.3956,-1.391 0.7707,0 1.3956,0.6228 1.3956,1.391" /><path
                 id="path290"
                 style="fill:#000000;fill-opacity:1;fill-rule:nonzero;stroke:none"
                 d="m 41.9247,208.4565 c 0,1.8438 -1.4989,3.3385 -3.348,3.3385 -1.8491,0 -3.348,-1.4947 -3.348,-3.3385 0,-1.8437 1.4989,-3.3384 3.348,-3.3384 1.8491,0 3.348,1.4947 3.348,3.3384" /><path
                 id="path292"
                 style="fill:#d2d2d2;fill-opacity:1;fill-rule:nonzero;stroke:none"
                 d="m 39.9723,208.4551 c 0,0.7683 -0.6248,1.391 -1.3956,1.391 -0.7708,0 -1.3956,-0.6227 -1.3956,-1.391 0,-0.7682 0.6248,-1.391 1.3956,-1.391 0.7708,0 1.3956,0.6228 1.3956,1.391" /><path
                 id="path294"
                 style="fill:#000000;fill-opacity:1;fill-rule:nonzero;stroke:none"
                 d="m 79.8567,208.4565 c 0,1.8438 -1.4989,3.3385 -3.348,3.3385 -1.849,0 -3.348,-1.4947 -3.348,-3.3385 0,-1.8437 1.499,-3.3384 3.348,-3.3384 1.8491,0 3.348,1.4947 3.348,3.3384" /><path
                 id="path296"
                 style="fill:#d2d2d2;fill-opacity:1;fill-rule:nonzero;stroke:none"
                 d="m 77.9043,208.4551 c 0,0.7683 -0.6248,1.391 -1.3956,1.391 -0.7708,0 -1.3956,-0.6227 -1.3956,-1.391 0,-0.7682 0.6248,-1.391 1.3956,-1.391 0.7708,0 1.3956,0.6228 1.3956,1.391" /><path
                 id="path298"
                 style="fill:#000000;fill-opacity:1;fill-rule:nonzero;stroke:none"
                 d="m 113.3257,208.4565 c 0,1.8438 -1.499,3.3385 -3.3481,3.3385 -1.849,0 -3.348,-1.4947 -3.348,-3.3385 0,-1.8437 1.499,-3.3384 3.348,-3.3384 1.8491,0 3.3481,1.4947 3.3481,3.3384" /><path
                 id="path300"
                 style="fill:#d2d2d2;fill-opacity:1;fill-rule:nonzero;stroke:none"
                 d="m 111.3732,208.4551 c 0,0.7683 -0.6248,1.391 -1.3956,1.391 -0.7707,0 -1.3956,-0.6227 -1.3956,-1.391 0,-0.7682 0.6249,-1.391 1.3956,-1.391 0.7708,0 1.3956,0.6228 1.3956,1.391" /><path
                 id="path302"
                 style="fill:#000000;fill-opacity:1;fill-rule:nonzero;stroke:none"
                 d="m 144.5645,208.4565 c 0,1.8438 -1.499,3.3385 -3.3481,3.3385 -1.849,0 -3.348,-1.4947 -3.348,-3.3385 0,-1.8437 1.499,-3.3384 3.348,-3.3384 1.8491,0 3.3481,1.4947 3.3481,3.3384" /><path
                 id="path304"
                 style="fill:#d2d2d2;fill-opacity:1;fill-rule:nonzero;stroke:none"
                 d="m 142.6121,208.4551 c 0,0.7683 -0.6255,1.391 -1.3971,1.391 -0.7715,0 -1.397,-0.6227 -1.397,-1.391 0,-0.7682 0.6255,-1.391 1.397,-1.391 0.7716,0 1.3971,0.6228 1.3971,1.391" /><path
                 id="path306"
                 style="fill:#000000;fill-opacity:1;fill-rule:nonzero;stroke:none"
                 d="m 173.5703,208.4565 c 0,1.8438 -1.4989,3.3385 -3.348,3.3385 -1.8491,0 -3.348,-1.4947 -3.348,-3.3385 0,-1.8437 1.4989,-3.3384 3.348,-3.3384 1.8491,0 3.348,1.4947 3.348,3.3384" /><path
                 id="path308"
                 style="fill:#d2d2d2;fill-opacity:1;fill-rule:nonzero;stroke:none"
                 d="m 171.6179,208.4551 c 0,0.7683 -0.6248,1.391 -1.3956,1.391 -0.7708,0 -1.3956,-0.6227 -1.3956,-1.391 0,-0.7682 0.6248,-1.391 1.3956,-1.391 0.7708,0 1.3956,0.6228 1.3956,1.391" /><path
                 id="path310"
                 style="fill:#000000;fill-opacity:1;fill-rule:nonzero;stroke:none"
                 d="m 204.8091,19.4211 c 0,1.843 -1.4996,3.337 -3.3494,3.337 -1.8499,0 -3.3495,-1.494 -3.3495,-3.337 0,-1.843 1.4996,-3.337 3.3495,-3.337 1.8498,0 3.3494,1.494 3.3494,3.337" /><path
                 id="path312"
                 style="fill:#d2d2d2;fill-opacity:1;fill-rule:nonzero;stroke:none"
                 d="m 202.8567,19.4211 c 0,0.7683 -0.6255,1.391 -1.397,1.391 -0.7716,0 -1.397,-0.6227 -1.397,-1.391 0,-0.7682 0.6254,-1.391 1.397,-1.391 0.7715,0 1.397,0.6228 1.397,1.391" /><path
                 id="path314"
                 style="fill:#000000;fill-opacity:1;fill-rule:nonzero;stroke:none"
                 d="m 75.3936,19.4211 c 0,1.843 -1.4989,3.337 -3.348,3.337 -1.849,0 -3.348,-1.494 -3.348,-3.337 0,-1.843 1.499,-3.337 3.348,-3.337 1.8491,0 3.348,1.494 3.348,3.337" /><path
                 id="path316"
                 style="fill:#d2d2d2;fill-opacity:1;fill-rule:nonzero;stroke:none"
                 d="m 73.4412,19.4211 c 0,0.7683 -0.6248,1.391 -1.3956,1.391 -0.7707,0 -1.3956,-0.6227 -1.3956,-1.391 0,-0.7682 0.6249,-1.391 1.3956,-1.391 0.7708,0 1.3956,0.6228 1.3956,1.391" /><path
                 id="path318"
                 style="fill:#000000;fill-opacity:1;fill-rule:nonzero;stroke:none"
                 d="m 55.314,63.8997 c 0,1.843 -1.499,3.337 -3.348,3.337 -1.8491,0 -3.3481,-1.494 -3.3481,-3.337 0,-1.843 1.499,-3.337 3.3481,-3.337 1.849,0 3.348,1.494 3.348,3.337" /><path
                 id="path320"
                 style="fill:#d2d2d2;fill-opacity:1;fill-rule:nonzero;stroke:none"
                 d="m 53.3616,63.8997 c 0,0.7682 -0.6255,1.391 -1.3971,1.391 -0.7715,0 -1.397,-0.6228 -1.397,-1.391 0,-0.7682 0.6255,-1.391 1.397,-1.391 0.7716,0 1.3971,0.6228 1.3971,1.391" /><path
                 id="path322"
                 style="fill:#000000;fill-opacity:1;fill-rule:nonzero;stroke:none"
                 d="m 224.8888,46.1088 c 0,1.843 -1.499,3.3371 -3.348,3.3371 -1.8491,0 -3.3481,-1.4941 -3.3481,-3.3371 0,-1.843 1.499,-3.337 3.3481,-3.337 1.849,0 3.348,1.494 3.348,3.337" /><path
                 id="path324"
                 style="fill:#d2d2d2;fill-opacity:1;fill-rule:nonzero;stroke:none"
                 d="m 222.9364,46.1088 c 0,0.7683 -0.6249,1.391 -1.3956,1.391 -0.7708,0 -1.3956,-0.6227 -1.3956,-1.391 0,-0.7682 0.6248,-1.391 1.3956,-1.391 0.7707,0 1.3956,0.6228 1.3956,1.391" /><path
                 id="path326"
                 style="fill:#000000;fill-opacity:1;fill-rule:nonzero;stroke:none"
                 d="m 578.5441,218.4648 c 0,1.843 -1.499,3.337 -3.348,3.337 -1.8491,0 -3.348,-1.494 -3.348,-3.337 0,-1.843 1.4989,-3.3371 3.348,-3.3371 1.849,0 3.348,1.4941 3.348,3.3371" /><path
                 id="path328"
                 style="fill:#d2d2d2;fill-opacity:1;fill-rule:nonzero;stroke:none"
                 d="m 576.5917,218.4648 c 0,0.7682 -0.6248,1.391 -1.3956,1.391 -0.7708,0 -1.3956,-0.6228 -1.3956,-1.391 0,-0.7683 0.6248,-1.391 1.3956,-1.391 0.7708,0 1.3956,0.6227 1.3956,1.391" /><path
                 id="path330"
                 style="fill:#000000;fill-opacity:1;fill-rule:nonzero;stroke:none"
                 d="m 566.2742,43.886 c 0,1.843 -1.4996,3.3371 -3.3495,3.3371 -1.8498,0 -3.3494,-1.4941 -3.3494,-3.3371 0,-1.843 1.4996,-3.337 3.3494,-3.337 1.8499,0 3.3495,1.494 3.3495,3.337" /><path
                 id="path332"
                 style="fill:#d2d2d2;fill-opacity:1;fill-rule:nonzero;stroke:none"
                 d="m 564.3217,43.886 c 0,0.7683 -0.6254,1.391 -1.397,1.391 -0.7715,0 -1.397,-0.6227 -1.397,-1.391 0,-0.7682 0.6255,-1.391 1.397,-1.391 0.7716,0 1.397,0.6228 1.397,1.391" /><path
                 id="path334"
                 style="fill:#000000;fill-opacity:1;fill-rule:nonzero;stroke:none"
                 d="m 517.1858,43.886 c 0,1.843 -1.4989,3.3371 -3.348,3.3371 -1.8491,0 -3.348,-1.4941 -3.348,-3.3371 0,-1.843 1.4989,-3.337 3.348,-3.337 1.8491,0 3.348,1.494 3.348,3.337" /><path
                 id="path336"
                 style="fill:#d2d2d2;fill-opacity:1;fill-rule:nonzero;stroke:none"
                 d="m 515.2334,43.886 c 0,0.7683 -0.6248,1.391 -1.3956,1.391 -0.7708,0 -1.3956,-0.6227 -1.3956,-1.391 0,-0.7682 0.6248,-1.391 1.3956,-1.391 0.7708,0 1.3956,0.6228 1.3956,1.391" /><path
                 id="path338"
                 style="fill:#000000;fill-opacity:1;fill-rule:nonzero;stroke:none"
                 d="m 499.3363,206.2323 c 0,1.843 -1.4996,3.337 -3.3495,3.337 -1.8498,0 -3.3494,-1.494 -3.3494,-3.337 0,-1.843 1.4996,-3.337 3.3494,-3.337 1.8499,0 3.3495,1.494 3.3495,3.337" /><path
                 id="path340"
                 style="fill:#d2d2d2;fill-opacity:1;fill-rule:nonzero;stroke:none"
                 d="m 497.3839,206.2323 c 0,0.7683 -0.6255,1.391 -1.3971,1.391 -0.7715,0 -1.397,-0.6227 -1.397,-1.391 0,-0.7682 0.6255,-1.391 1.397,-1.391 0.7716,0 1.3971,0.6228 1.3971,1.391" /><path
                 id="path342"
                 style="fill:#000000;fill-opacity:1;fill-rule:nonzero;stroke:none"
                 d="m 537.2655,228.4716 c 0,1.843 -1.499,3.337 -3.3481,3.337 -1.849,0 -3.348,-1.494 -3.348,-3.337 0,-1.843 1.499,-3.337 3.348,-3.337 1.8491,0 3.3481,1.494 3.3481,3.337" /><path
                 id="path344"
                 style="fill:#d2d2d2;fill-opacity:1;fill-rule:nonzero;stroke:none"
                 d="m 535.3131,228.4716 c 0,0.7682 -0.6249,1.391 -1.3957,1.391 -0.7707,0 -1.3956,-0.6228 -1.3956,-1.391 0,-0.7682 0.6249,-1.391 1.3956,-1.391 0.7708,0 1.3957,0.6228 1.3957,1.391" /><path
                 id="path346"
                 style="fill:#000000;fill-opacity:1;fill-rule:nonzero;stroke:none"
                 d="m 517.1858,132.8432 c 0,1.843 -1.4989,3.337 -3.348,3.337 -1.8491,0 -3.348,-1.494 -3.348,-3.337 0,-1.843 1.4989,-3.337 3.348,-3.337 1.8491,0 3.348,1.494 3.348,3.337" /><path
                 id="path348"
                 style="fill:#d2d2d2;fill-opacity:1;fill-rule:nonzero;stroke:none"
                 d="m 515.2334,132.8432 c 0,0.7682 -0.6248,1.391 -1.3956,1.391 -0.7708,0 -1.3956,-0.6228 -1.3956,-1.391 0,-0.7682 0.6248,-1.391 1.3956,-1.391 0.7708,0 1.3956,0.6228 1.3956,1.391" /><path
                 id="path350"
                 style="fill:#000000;fill-opacity:1;fill-rule:nonzero;stroke:none"
                 d="m 606.4363,77.245 c 0,1.843 -1.499,3.337 -3.348,3.337 -1.8491,0 -3.3481,-1.494 -3.3481,-3.337 0,-1.843 1.499,-3.3371 3.3481,-3.3371 1.849,0 3.348,1.4941 3.348,3.3371" /><path
                 id="path352"
                 style="fill:#d2d2d2;fill-opacity:1;fill-rule:nonzero;stroke:none"
                 d="m 604.4839,77.245 c 0,0.7682 -0.6249,1.391 -1.3956,1.391 -0.7708,0 -1.3956,-0.6228 -1.3956,-1.391 0,-0.7683 0.6248,-1.391 1.3956,-1.391 0.7707,0 1.3956,0.6227 1.3956,1.391" /><path
                 id="path354"
                 style="fill:#000000;fill-opacity:1;fill-rule:nonzero;stroke:none"
                 d="m 539.4984,77.245 c 0,1.843 -1.4989,3.337 -3.348,3.337 -1.8491,0 -3.348,-1.494 -3.348,-3.337 0,-1.843 1.4989,-3.3371 3.348,-3.3371 1.8491,0 3.348,1.4941 3.348,3.3371" /><path
                 id="path356"
                 style="fill:#d2d2d2;fill-opacity:1;fill-rule:nonzero;stroke:none"
                 d="m 537.546,77.245 c 0,0.7682 -0.6248,1.391 -1.3956,1.391 -0.7708,0 -1.3956,-0.6228 -1.3956,-1.391 0,-0.7683 0.6248,-1.391 1.3956,-1.391 0.7708,0 1.3956,0.6227 1.3956,1.391" /><path
                 id="path358"
                 style="fill:#000000;fill-opacity:1;fill-rule:nonzero;stroke:none"
                 d="m 578.5441,182.8802 c 0,1.843 -1.499,3.337 -3.348,3.337 -1.8491,0 -3.348,-1.494 -3.348,-3.337 0,-1.843 1.4989,-3.337 3.348,-3.337 1.849,0 3.348,1.494 3.348,3.337" /><path
                 id="path360"
                 style="fill:#d2d2d2;fill-opacity:1;fill-rule:nonzero;stroke:none"
                 d="m 576.5917,182.8802 c 0,0.7682 -0.6248,1.391 -1.3956,1.391 -0.7708,0 -1.3956,-0.6228 -1.3956,-1.391 0,-0.7682 0.6248,-1.391 1.3956,-1.391 0.7708,0 1.3956,0.6228 1.3956,1.391" /><path
                 id="path362"
                 style="fill:#000000;fill-opacity:1;fill-rule:nonzero;stroke:none"
                 d="m 541.7286,193.9999 c 0,1.8429 -1.499,3.337 -3.3481,3.337 -1.849,0 -3.348,-1.4941 -3.348,-3.337 0,-1.843 1.499,-3.3371 3.348,-3.3371 1.8491,0 3.3481,1.4941 3.3481,3.3371" /><path
                 id="path364"
                 style="fill:#d2d2d2;fill-opacity:1;fill-rule:nonzero;stroke:none"
                 d="m 539.7761,193.9999 c 0,0.7682 -0.6248,1.391 -1.3956,1.391 -0.7707,0 -1.3956,-0.6228 -1.3956,-1.391 0,-0.7683 0.6249,-1.3911 1.3956,-1.3911 0.7708,0 1.3956,0.6228 1.3956,1.3911" /><path
                 id="path366"
                 style="fill:#000000;fill-opacity:1;fill-rule:nonzero;stroke:none"
                 d="m 417.0681,249.1321 c 0,1.843 -1.499,3.337 -3.3481,3.337 -1.849,0 -3.348,-1.494 -3.348,-3.337 0,-1.843 1.499,-3.3371 3.348,-3.3371 1.8491,0 3.3481,1.4941 3.3481,3.3371" /><path
                 id="path368"
                 style="fill:#d2d2d2;fill-opacity:1;fill-rule:nonzero;stroke:none"
                 d="m 415.1156,249.1321 c 0,0.7682 -0.6248,1.391 -1.3956,1.391 -0.7707,0 -1.3956,-0.6228 -1.3956,-1.391 0,-0.7683 0.6249,-1.3911 1.3956,-1.3911 0.7708,0 1.3956,0.6228 1.3956,1.3911" /><path
                 id="path370"
                 style="fill:#000000;fill-opacity:1;fill-rule:nonzero;stroke:none"
                 d="m 432.6535,76.8439 c 0,1.843 -1.499,3.337 -3.3481,3.337 -1.849,0 -3.348,-1.494 -3.348,-3.337 0,-1.843 1.499,-3.337 3.348,-3.337 1.8491,0 3.3481,1.494 3.3481,3.337" /><path
                 id="path372"
                 style="fill:#d2d2d2;fill-opacity:1;fill-rule:nonzero;stroke:none"
                 d="m 430.701,76.8439 c 0,0.7682 -0.6248,1.391 -1.3956,1.391 -0.7707,0 -1.3956,-0.6228 -1.3956,-1.391 0,-0.7682 0.6249,-1.391 1.3956,-1.391 0.7708,0 1.3956,0.6228 1.3956,1.391" /><path
                 id="path374"
                 style="fill:#000000;fill-opacity:1;fill-rule:nonzero;stroke:none"
                 d="m 351.8928,235.0101 c 0,1.843 -1.499,3.337 -3.3481,3.337 -1.849,0 -3.348,-1.494 -3.348,-3.337 0,-1.843 1.499,-3.337 3.348,-3.337 1.8491,0 3.3481,1.494 3.3481,3.337" /><path
                 id="path376"
                 style="fill:#d2d2d2;fill-opacity:1;fill-rule:nonzero;stroke:none"
                 d="m 349.9403,235.0101 c 0,0.7682 -0.6248,1.391 -1.3956,1.391 -0.7707,0 -1.3956,-0.6228 -1.3956,-1.391 0,-0.7683 0.6249,-1.391 1.3956,-1.391 0.7708,0 1.3956,0.6227 1.3956,1.391" /><path
                 id="path378"
                 style="fill:#000000;fill-opacity:1;fill-rule:nonzero;stroke:none"
                 d="m 387.3141,83.9049 c 0,1.843 -1.4989,3.337 -3.348,3.337 -1.8491,0 -3.348,-1.494 -3.348,-3.337 0,-1.843 1.4989,-3.337 3.348,-3.337 1.8491,0 3.348,1.494 3.348,3.337" /><path
                 id="path380"
                 style="fill:#d2d2d2;fill-opacity:1;fill-rule:nonzero;stroke:none"
                 d="m 385.3617,83.9049 c 0,0.7682 -0.6248,1.391 -1.3956,1.391 -0.7708,0 -1.3956,-0.6228 -1.3956,-1.391 0,-0.7682 0.6248,-1.391 1.3956,-1.391 0.7708,0 1.3956,0.6228 1.3956,1.391" /><path
                 id="path382"
                 style="fill:#000000;fill-opacity:1;fill-rule:nonzero;stroke:none"
                 d="m 381.6467,254.7809 c 0,1.8429 -1.499,3.337 -3.348,3.337 -1.8491,0 -3.3481,-1.4941 -3.3481,-3.337 0,-1.843 1.499,-3.3371 3.3481,-3.3371 1.849,0 3.348,1.4941 3.348,3.3371" /><path
                 id="path384"
                 style="fill:#d2d2d2;fill-opacity:1;fill-rule:nonzero;stroke:none"
                 d="m 379.6943,254.7809 c 0,0.7682 -0.6249,1.391 -1.3956,1.391 -0.7708,0 -1.3956,-0.6228 -1.3956,-1.391 0,-0.7683 0.6248,-1.3911 1.3956,-1.3911 0.7707,0 1.3956,0.6228 1.3956,1.3911" /><path
                 id="path386"
                 style="fill:#000000;fill-opacity:1;fill-rule:nonzero;stroke:none"
                 d="m 510.5804,311.2688 c 0,1.843 -1.4989,3.337 -3.348,3.337 -1.849,0 -3.348,-1.494 -3.348,-3.337 0,-1.843 1.499,-3.337 3.348,-3.337 1.8491,0 3.348,1.494 3.348,3.337" /><path
                 id="path388"
                 style="fill:#d2d2d2;fill-opacity:1;fill-rule:nonzero;stroke:none"
                 d="m 508.628,311.2688 c 0,0.7682 -0.6248,1.391 -1.3956,1.391 -0.7708,0 -1.3956,-0.6228 -1.3956,-1.391 0,-0.7683 0.6248,-1.391 1.3956,-1.391 0.7708,0 1.3956,0.6227 1.3956,1.391" /><path
                 id="path390"
                 style="fill:#000000;fill-opacity:1;fill-rule:nonzero;stroke:none"
                 d="m 265.4647,329.6274 c 0,1.8429 -1.499,3.337 -3.3481,3.337 -1.849,0 -3.348,-1.4941 -3.348,-3.337 0,-1.843 1.499,-3.3371 3.348,-3.3371 1.8491,0 3.3481,1.4941 3.3481,3.3371" /><path
                 id="path392"
                 style="fill:#d2d2d2;fill-opacity:1;fill-rule:nonzero;stroke:none"
                 d="m 263.5122,329.6274 c 0,0.7682 -0.6248,1.391 -1.3956,1.391 -0.7707,0 -1.3956,-0.6228 -1.3956,-1.391 0,-0.7683 0.6249,-1.3911 1.3956,-1.3911 0.7708,0 1.3956,0.6228 1.3956,1.3911" /><path
                 id="path394"
                 style="fill:#000000;fill-opacity:1;fill-rule:nonzero;stroke:none"
                 d="m 224.3759,329.6274 c 0,1.8429 -1.499,3.337 -3.348,3.337 -1.8491,0 -3.3481,-1.4941 -3.3481,-3.337 0,-1.843 1.499,-3.3371 3.3481,-3.3371 1.849,0 3.348,1.4941 3.348,3.3371" /><path
                 id="path396"
                 style="fill:#d2d2d2;fill-opacity:1;fill-rule:nonzero;stroke:none"
                 d="m 222.4235,329.6274 c 0,0.7682 -0.6249,1.391 -1.3956,1.391 -0.7708,0 -1.3957,-0.6228 -1.3957,-1.391 0,-0.7683 0.6249,-1.3911 1.3957,-1.3911 0.7707,0 1.3956,0.6228 1.3956,1.3911" /><path
                 id="path398"
                 style="fill:#000000;fill-opacity:1;fill-rule:nonzero;stroke:none"
                 d="m 65.6882,325.3908 c 0,1.8429 -1.499,3.337 -3.348,3.337 -1.8491,0 -3.3481,-1.4941 -3.3481,-3.337 0,-1.843 1.499,-3.3371 3.3481,-3.3371 1.849,0 3.348,1.4941 3.348,3.3371" /><path
                 id="path400"
                 style="fill:#d2d2d2;fill-opacity:1;fill-rule:nonzero;stroke:none"
                 d="m 63.7358,325.3908 c 0,0.7682 -0.6249,1.391 -1.3956,1.391 -0.7708,0 -1.3956,-0.6228 -1.3956,-1.391 0,-0.7683 0.6248,-1.3911 1.3956,-1.3911 0.7707,0 1.3956,0.6228 1.3956,1.3911" /><path
                 id="path402"
                 style="fill:#000000;fill-opacity:1;fill-rule:nonzero;stroke:none"
                 d="m 510.5804,329.6274 c 0,1.8429 -1.4989,3.337 -3.348,3.337 -1.849,0 -3.348,-1.4941 -3.348,-3.337 0,-1.843 1.499,-3.3371 3.348,-3.3371 1.8491,0 3.348,1.4941 3.348,3.3371" /><path
                 id="path404"
                 style="fill:#d2d2d2;fill-opacity:1;fill-rule:nonzero;stroke:none"
                 d="m 508.628,329.6274 c 0,0.7682 -0.6248,1.391 -1.3956,1.391 -0.7708,0 -1.3956,-0.6228 -1.3956,-1.391 0,-0.7683 0.6248,-1.3911 1.3956,-1.3911 0.7708,0 1.3956,0.6228 1.3956,1.3911" /><path
                 id="path406"
                 style="fill:#000000;fill-opacity:1;fill-rule:nonzero;stroke:none"
                 d="m 265.4647,352.2225 c 0,1.843 -1.499,3.337 -3.3481,3.337 -1.849,0 -3.348,-1.494 -3.348,-3.337 0,-1.843 1.499,-3.337 3.348,-3.337 1.8491,0 3.3481,1.494 3.3481,3.337" /><path
                 id="path408"
                 style="fill:#d2d2d2;fill-opacity:1;fill-rule:nonzero;stroke:none"
                 d="m 263.5122,352.2225 c 0,0.7683 -0.6248,1.391 -1.3956,1.391 -0.7707,0 -1.3956,-0.6227 -1.3956,-1.391 0,-0.7682 0.6249,-1.391 1.3956,-1.391 0.7708,0 1.3956,0.6228 1.3956,1.391" /><path
                 id="path410"
                 style="fill:#000000;fill-opacity:1;fill-rule:nonzero;stroke:none"
                 d="m 224.3759,352.2225 c 0,1.843 -1.499,3.337 -3.348,3.337 -1.8491,0 -3.3481,-1.494 -3.3481,-3.337 0,-1.843 1.499,-3.337 3.3481,-3.337 1.849,0 3.348,1.494 3.348,3.337" /><path
                 id="path412"
                 style="fill:#d2d2d2;fill-opacity:1;fill-rule:nonzero;stroke:none"
                 d="m 222.4235,352.2225 c 0,0.7683 -0.6249,1.391 -1.3956,1.391 -0.7708,0 -1.3957,-0.6227 -1.3957,-1.391 0,-0.7682 0.6249,-1.391 1.3957,-1.391 0.7707,0 1.3956,0.6228 1.3956,1.391" /><path
                 id="path414"
                 style="fill:#000000;fill-opacity:1;fill-rule:nonzero;stroke:none"
                 d="m 65.6882,352.2225 c 0,1.843 -1.499,3.337 -3.348,3.337 -1.8491,0 -3.3481,-1.494 -3.3481,-3.337 0,-1.843 1.499,-3.337 3.3481,-3.337 1.849,0 3.348,1.494 3.348,3.337" /><path
                 id="path416"
                 style="fill:#d2d2d2;fill-opacity:1;fill-rule:nonzero;stroke:none"
                 d="m 63.7358,352.2225 c 0,0.7683 -0.6249,1.391 -1.3956,1.391 -0.7708,0 -1.3956,-0.6227 -1.3956,-1.391 0,-0.7682 0.6248,-1.391 1.3956,-1.391 0.7707,0 1.3956,0.6228 1.3956,1.391" /><path
                 id="path418"
                 style="fill:#000000;fill-opacity:1;fill-rule:nonzero;stroke:none"
                 d="m 485.0771,247.7199 c 0,1.843 -1.499,3.337 -3.3481,3.337 -1.849,0 -3.348,-1.494 -3.348,-3.337 0,-1.843 1.499,-3.3371 3.348,-3.3371 1.8491,0 3.3481,1.4941 3.3481,3.3371" /><path
                 id="path420"
                 style="fill:#d2d2d2;fill-opacity:1;fill-rule:nonzero;stroke:none"
                 d="m 483.1246,247.7199 c 0,0.7682 -0.6248,1.391 -1.3956,1.391 -0.7707,0 -1.3956,-0.6228 -1.3956,-1.391 0,-0.7683 0.6249,-1.391 1.3956,-1.391 0.7708,0 1.3956,0.6227 1.3956,1.391" /><path
                 id="path422"
                 style="fill:#000000;fill-opacity:1;fill-rule:nonzero;stroke:none"
                 d="m 221.5422,213.8271 c 0,1.843 -1.499,3.337 -3.3481,3.337 -1.849,0 -3.348,-1.494 -3.348,-3.337 0,-1.843 1.499,-3.337 3.348,-3.337 1.8491,0 3.3481,1.494 3.3481,3.337" /><path
                 id="path424"
                 style="fill:#d2d2d2;fill-opacity:1;fill-rule:nonzero;stroke:none"
                 d="m 219.5897,213.8271 c 0,0.7683 -0.6248,1.391 -1.3956,1.391 -0.7707,0 -1.3956,-0.6227 -1.3956,-1.391 0,-0.7682 0.6249,-1.391 1.3956,-1.391 0.7708,0 1.3956,0.6228 1.3956,1.391" /><path
                 id="path426"
                 style="fill:#000000;fill-opacity:1;fill-rule:nonzero;stroke:none"
                 d="m 210.2073,230.7735 c 0,1.843 -1.4989,3.337 -3.348,3.337 -1.8491,0 -3.348,-1.494 -3.348,-3.337 0,-1.843 1.4989,-3.337 3.348,-3.337 1.8491,0 3.348,1.494 3.348,3.337" /><path
                 id="path428"
                 style="fill:#d2d2d2;fill-opacity:1;fill-rule:nonzero;stroke:none"
                 d="m 208.2549,230.7735 c 0,0.7682 -0.6248,1.391 -1.3956,1.391 -0.7708,0 -1.3956,-0.6228 -1.3956,-1.391 0,-0.7682 0.6248,-1.391 1.3956,-1.391 0.7708,0 1.3956,0.6228 1.3956,1.391" /><path
                 id="path430"
                 style="fill:#000000;fill-opacity:1;fill-rule:nonzero;stroke:none"
                 d="m 295.2186,251.9565 c 0,1.8429 -1.499,3.337 -3.348,3.337 -1.8491,0 -3.3481,-1.4941 -3.3481,-3.337 0,-1.843 1.499,-3.3371 3.3481,-3.3371 1.849,0 3.348,1.4941 3.348,3.3371" /><path
                 id="path432"
                 style="fill:#d2d2d2;fill-opacity:1;fill-rule:nonzero;stroke:none"
                 d="m 293.2662,251.9565 c 0,0.7682 -0.6249,1.391 -1.3956,1.391 -0.7708,0 -1.3956,-0.6228 -1.3956,-1.391 0,-0.7683 0.6248,-1.3911 1.3956,-1.3911 0.7707,0 1.3956,0.6228 1.3956,1.3911" /><path
                 id="path434"
                 style="fill:#000000;fill-opacity:1;fill-rule:nonzero;stroke:none"
                 d="m 271.1321,177.11 c 0,1.843 -1.499,3.337 -3.3481,3.337 -1.849,0 -3.348,-1.494 -3.348,-3.337 0,-1.843 1.499,-3.3371 3.348,-3.3371 1.8491,0 3.3481,1.4941 3.3481,3.3371" /><path
                 id="path436"
                 style="fill:#d2d2d2;fill-opacity:1;fill-rule:nonzero;stroke:none"
                 d="m 269.1796,177.11 c 0,0.7682 -0.6248,1.391 -1.3956,1.391 -0.7707,0 -1.3956,-0.6228 -1.3956,-1.391 0,-0.7683 0.6249,-1.391 1.3956,-1.391 0.7708,0 1.3956,0.6227 1.3956,1.391" /><path
                 id="path438"
                 style="fill:#000000;fill-opacity:1;fill-rule:nonzero;stroke:none"
                 d="m 377.3961,177.11 c 0,1.843 -1.4989,3.337 -3.348,3.337 -1.8491,0 -3.348,-1.494 -3.348,-3.337 0,-1.843 1.4989,-3.3371 3.348,-3.3371 1.8491,0 3.348,1.4941 3.348,3.3371" /><path
                 id="path440"
                 style="fill:#d2d2d2;fill-opacity:1;fill-rule:nonzero;stroke:none"
                 d="m 375.4437,177.11 c 0,0.7682 -0.6248,1.391 -1.3956,1.391 -0.7708,0 -1.3956,-0.6228 -1.3956,-1.391 0,-0.7683 0.6248,-1.391 1.3956,-1.391 0.7708,0 1.3956,0.6227 1.3956,1.391" /><path
                 id="path442"
                 style="fill:#000000;fill-opacity:1;fill-rule:nonzero;stroke:none"
                 d="m 262.6309,379.0543 c 0,1.843 -1.4989,3.337 -3.348,3.337 -1.849,0 -3.348,-1.494 -3.348,-3.337 0,-1.843 1.499,-3.337 3.348,-3.337 1.8491,0 3.348,1.494 3.348,3.337" /><path
                 id="path444"
                 style="fill:#d2d2d2;fill-opacity:1;fill-rule:nonzero;stroke:none"
                 d="m 260.6785,379.0543 c 0,0.7682 -0.6248,1.391 -1.3956,1.391 -0.7708,0 -1.3956,-0.6228 -1.3956,-1.391 0,-0.7683 0.6248,-1.391 1.3956,-1.391 0.7708,0 1.3956,0.6227 1.3956,1.391" /><path
                 id="path446"
                 style="fill:#000000;fill-opacity:1;fill-rule:nonzero;stroke:none"
                 d="m 248.4624,448.252 c 0,1.843 -1.499,3.337 -3.348,3.337 -1.8491,0 -3.3481,-1.494 -3.3481,-3.337 0,-1.843 1.499,-3.337 3.3481,-3.337 1.849,0 3.348,1.494 3.348,3.337" /><path
                 id="path448"
                 style="fill:#d2d2d2;fill-opacity:1;fill-rule:nonzero;stroke:none"
                 d="m 246.51,448.252 c 0,0.7682 -0.6249,1.391 -1.3956,1.391 -0.7708,0 -1.3956,-0.6228 -1.3956,-1.391 0,-0.7683 0.6248,-1.391 1.3956,-1.391 0.7707,0 1.3956,0.6227 1.3956,1.391" /><path
                 id="path450"
                 style="fill:none;stroke:#000000;stroke-width:15.61940002;stroke-linecap:round;stroke-linejoin:miter;stroke-miterlimit:10;stroke-dasharray:none;stroke-opacity:1"
                 d="m 619.0491,219.1384 v 0" /><path
                 id="path452"
                 style="fill:#d2d2d2;fill-opacity:1;fill-rule:nonzero;stroke:none"
                 d="m 624.6287,219.1356 c 0,3.0714 -2.498,5.5612 -5.5796,5.5612 -3.0815,0 -5.5795,-2.4898 -5.5795,-5.5612 0,-3.0714 2.498,-5.5613 5.5795,-5.5613 3.0816,0 5.5796,2.4899 5.5796,5.5613" /><path
                 id="path454"
                 style="fill:none;stroke:#000000;stroke-width:15.61940002;stroke-linecap:round;stroke-linejoin:miter;stroke-miterlimit:10;stroke-dasharray:none;stroke-opacity:1"
                 d="m 619.0491,190.8944 v 0" /><path
                 id="path456"
                 style="fill:#d2d2d2;fill-opacity:1;fill-rule:nonzero;stroke:none"
                 d="m 624.6287,190.8916 c 0,3.0714 -2.498,5.5612 -5.5796,5.5612 -3.0815,0 -5.5795,-2.4898 -5.5795,-5.5612 0,-3.0714 2.498,-5.5612 5.5795,-5.5612 3.0816,0 5.5796,2.4898 5.5796,5.5612" /><path
                 id="path458"
                 style="fill:none;stroke:#000000;stroke-width:15.61940002;stroke-linecap:round;stroke-linejoin:miter;stroke-miterlimit:10;stroke-dasharray:none;stroke-opacity:1"
                 d="m 619.0491,275.6263 v 0" /><path
                 id="path460"
                 style="fill:#d2d2d2;fill-opacity:1;fill-rule:nonzero;stroke:none"
                 d="m 624.6287,275.6235 c 0,3.0714 -2.498,5.5612 -5.5796,5.5612 -3.0815,0 -5.5795,-2.4898 -5.5795,-5.5612 0,-3.0714 2.498,-5.5612 5.5795,-5.5612 3.0816,0 5.5796,2.4898 5.5796,5.5612" /><path
                 id="path462"
                 style="fill:none;stroke:#000000;stroke-width:15.61940002;stroke-linecap:round;stroke-linejoin:miter;stroke-miterlimit:10;stroke-dasharray:none;stroke-opacity:1"
                 d="m 619.0491,247.3824 v 0" /><path
                 id="path464"
                 style="fill:#d2d2d2;fill-opacity:1;fill-rule:nonzero;stroke:none"
                 d="m 624.6287,247.3795 c 0,3.0714 -2.498,5.5613 -5.5796,5.5613 -3.0815,0 -5.5795,-2.4899 -5.5795,-5.5613 0,-3.0714 2.498,-5.5612 5.5795,-5.5612 3.0816,0 5.5796,2.4898 5.5796,5.5612" /><path
                 id="path466"
                 style="fill:none;stroke:#000000;stroke-width:15.61940002;stroke-linecap:round;stroke-linejoin:miter;stroke-miterlimit:10;stroke-dasharray:none;stroke-opacity:1"
                 d="m 19.836,352.2239 v 0" /><path
                 id="path468"
                 style="fill:#d2d2d2;fill-opacity:1;fill-rule:nonzero;stroke:none"
                 d="m 25.4127,352.2225 c 0,3.0706 -2.4974,5.5598 -5.5782,5.5598 -3.0807,0 -5.5781,-2.4892 -5.5781,-5.5598 0,-3.0706 2.4974,-5.5598 5.5781,-5.5598 3.0808,0 5.5782,2.4892 5.5782,5.5598" /><path
                 id="path470"
                 style="fill:none;stroke:#000000;stroke-width:15.61940002;stroke-linecap:round;stroke-linejoin:miter;stroke-miterlimit:10;stroke-dasharray:none;stroke-opacity:1"
                 d="m 19.836,487.7949 v 0" /><path
                 id="path472"
                 style="fill:#d2d2d2;fill-opacity:1;fill-rule:nonzero;stroke:none"
                 d="m 25.4127,487.7935 c 0,3.0706 -2.4974,5.5598 -5.5782,5.5598 -3.0807,0 -5.5781,-2.4892 -5.5781,-5.5598 0,-3.0706 2.4974,-5.5598 5.5781,-5.5598 3.0808,0 5.5782,2.4892 5.5782,5.5598" /><path
                 id="path474"
                 style="fill:none;stroke:#000000;stroke-width:39.04570007;stroke-linecap:round;stroke-linejoin:miter;stroke-miterlimit:10;stroke-dasharray:none;stroke-opacity:1"
                 d="m 29.7539,30.2428 v 0" /><path
                 id="path476"
                 style="fill:#d2d2d2;fill-opacity:1;fill-rule:nonzero;stroke:none"
                 d="m 43.6986,30.2414 c 0,7.6769 -6.2439,13.9002 -13.9461,13.9002 -7.7022,0 -13.9461,-6.2233 -13.9461,-13.9002 0,-7.6769 6.2439,-13.9003 13.9461,-13.9003 7.7022,0 13.9461,6.2234 13.9461,13.9003" /><path
                 id="path478"
                 style="fill:none;stroke:#000000;stroke-width:15.61940002;stroke-linecap:round;stroke-linejoin:miter;stroke-miterlimit:10;stroke-dasharray:none;stroke-opacity:1"
                 d="m 19.836,459.551 v 0" /><path
                 id="path480"
                 style="fill:#d2d2d2;fill-opacity:1;fill-rule:nonzero;stroke:none"
                 d="m 25.4127,459.5496 c 0,3.0706 -2.4974,5.5598 -5.5782,5.5598 -3.0807,0 -5.5781,-2.4892 -5.5781,-5.5598 0,-3.0706 2.4974,-5.5599 5.5781,-5.5599 3.0808,0 5.5782,2.4893 5.5782,5.5599" /><path
                 id="path482"
                 style="fill:none;stroke:#000000;stroke-width:15.61940002;stroke-linecap:round;stroke-linejoin:miter;stroke-miterlimit:10;stroke-dasharray:none;stroke-opacity:1"
                 d="m 19.836,431.307 v 0" /><path
                 id="path484"
                 style="fill:#d2d2d2;fill-opacity:1;fill-rule:nonzero;stroke:none"
                 d="m 25.4127,431.3056 c 0,3.0706 -2.4974,5.5598 -5.5782,5.5598 -3.0807,0 -5.5781,-2.4892 -5.5781,-5.5598 0,-3.0706 2.4974,-5.5598 5.5781,-5.5598 3.0808,0 5.5782,2.4892 5.5782,5.5598" /><path
                 id="path486"
                 style="fill:none;stroke:#000000;stroke-width:39.04570007;stroke-linecap:round;stroke-linejoin:miter;stroke-miterlimit:10;stroke-dasharray:none;stroke-opacity:1"
                 d="m 29.7539,548.5195 v 0" /><path
                 id="path488"
                 style="fill:#d2d2d2;fill-opacity:1;fill-rule:nonzero;stroke:none"
                 d="m 43.6986,548.518 c 0,7.6769 -6.2439,13.9003 -13.9461,13.9003 -7.7022,0 -13.9461,-6.2234 -13.9461,-13.9003 0,-7.6769 6.2439,-13.9002 13.9461,-13.9002 7.7022,0 13.9461,6.2233 13.9461,13.9002" /><path
                 id="path490"
                 style="fill:none;stroke:#000000;stroke-width:15.61940002;stroke-linecap:round;stroke-linejoin:miter;stroke-miterlimit:10;stroke-dasharray:none;stroke-opacity:1"
                 d="m 19.836,323.98 v 0" /><path
                 id="path492"
                 style="fill:#d2d2d2;fill-opacity:1;fill-rule:nonzero;stroke:none"
                 d="m 25.4127,323.9786 c 0,3.0706 -2.4974,5.5598 -5.5782,5.5598 -3.0807,0 -5.5781,-2.4892 -5.5781,-5.5598 0,-3.0706 2.4974,-5.5599 5.5781,-5.5599 3.0808,0 5.5782,2.4893 5.5782,5.5599" /><path
                 id="path494"
                 style="fill:none;stroke:#000000;stroke-width:39.04570007;stroke-linecap:round;stroke-linejoin:miter;stroke-miterlimit:10;stroke-dasharray:none;stroke-opacity:1"
                 d="m 609.2473,30.2428 v 0" /><path
                 id="path496"
                 style="fill:#d2d2d2;fill-opacity:1;fill-rule:nonzero;stroke:none"
                 d="m 623.192,30.2414 c 0,7.6769 -6.2439,13.9002 -13.9461,13.9002 -7.7022,0 -13.9461,-6.2233 -13.9461,-13.9002 0,-7.6769 6.2439,-13.9003 13.9461,-13.9003 7.7022,0 13.9461,6.2234 13.9461,13.9003" /><path
                 id="path498"
                 style="fill:none;stroke:#000000;stroke-width:39.04570007;stroke-linecap:round;stroke-linejoin:miter;stroke-miterlimit:10;stroke-dasharray:none;stroke-opacity:1"
                 d="m 609.2473,548.5195 v 0" /><path
                 id="path500"
                 style="fill:#d2d2d2;fill-opacity:1;fill-rule:nonzero;stroke:none"
                 d="m 623.192,548.518 c 0,7.6769 -6.2439,13.9003 -13.9461,13.9003 -7.7022,0 -13.9461,-6.2234 -13.9461,-13.9003 0,-7.6769 6.2439,-13.9002 13.9461,-13.9002 7.7022,0 13.9461,6.2233 13.9461,13.9002" /></g></g></g></g></g></g></svg>