<?xml version="1.0" encoding="UTF-8" standalone="no"?>
<!DOCTYPE svg PUBLIC "-//W3C//DTD SVG 1.1//EN" "http://www.w3.org/Graphics/SVG/1.1/DTD/svg11.dtd">
<svg xmlns="http://www.w3.org/2000/svg" xmlns:xlink="http://www.w3.org/1999/xlink" version="1.1" width="842pt" height="595pt" viewBox="0 0 842 595">
<g enable-background="new">
<clipPath id="cp0">
<path transform="matrix(.12,0,0,-.12,0,595)" d="M 304 188 L 6711 188 L 6711 4770 L 304 4770 L 304 188 "/>
</clipPath>
<g clip-path="url(#cp0)">
<g id="Layer-1" data-name="0">
</g>
<clipPath id="cp1">
<path transform="matrix(.1199951,0,0,-.1199951,0,594.84677)" d="M 304 188 L 6711 188 L 6711 4770 L 304 4770 L 304 188 "/>
</clipPath>
<g clip-path="url(#cp1)">
<path transform="matrix(.1199951,0,0,-.1199951,408.22334,39.629396)" stroke-width="6" stroke-linecap="round" stroke-linejoin="round" fill="none" stroke="#000000" d="M 0 0 L 181 0 "/>
</g>
<clipPath id="cp2">
<path transform="matrix(.12,0,0,-.12,0,595)" d="M 304 188 L 6711 188 L 6711 4770 L 304 4770 L 304 188 "/>
</clipPath>
<g clip-path="url(#cp2)">
<path transform="matrix(.12,0,0,-.12,435.47999,45.100038)" stroke-width="6" stroke-linecap="round" stroke-linejoin="round" fill="none" stroke="#000000" d="M 0 0 C 0 25.129 -20.371 45.5 -45.5 45.5 "/>
</g>
<clipPath id="cp3">
<path transform="matrix(.1199951,0,0,-.1199951,.1313782,595)" d="M 304 188 L 6711 188 L 6711 4770 L 304 4770 L 304 188 "/>
</clipPath>
<g clip-path="url(#cp3)">
<path transform="matrix(.1199951,0,0,-.1199951,435.4736,45.182435)" stroke-width="6" stroke-linecap="round" stroke-linejoin="round" fill="none" stroke="#000000" d="M 0 0 L 0 -85 "/>
</g>
<clipPath id="cp4">
<path transform="matrix(.12,0,0,-.12,0,595)" d="M 304 188 L 6711 188 L 6711 4770 L 304 4770 L 304 188 "/>
</clipPath>
<g clip-path="url(#cp4)">
<path transform="matrix(.12,0,0,-.12,430.02,60.76001)" stroke-width="6" stroke-linecap="round" stroke-linejoin="round" fill="none" stroke="#000000" d="M 0 0 C 25.129 0 45.5 20.371 45.5 45.5 "/>
</g>
<clipPath id="cp5">
<path transform="matrix(.1199951,0,0,-.1199951,0,594.8358)" d="M 304 188 L 6711 188 L 6711 4770 L 304 4770 L 304 188 "/>
</clipPath>
<g clip-path="url(#cp5)">
<path transform="matrix(.1199951,0,0,-.1199951,429.94245,60.73761)" stroke-width="6" stroke-linecap="round" stroke-linejoin="round" fill="none" stroke="#000000" d="M 0 0 L -181 0 "/>
</g>
<clipPath id="cp6">
<path transform="matrix(.12,0,0,-.12,0,595)" d="M 304 188 L 6711 188 L 6711 4770 L 304 4770 L 304 188 "/>
</clipPath>
<g clip-path="url(#cp6)">
<path transform="matrix(.12,0,0,-.12,402.84,55.299989)" stroke-width="6" stroke-linecap="round" stroke-linejoin="round" fill="none" stroke="#000000" d="M 0 0 C 0 -25.129 20.371 -45.5 45.5 -45.5 "/>
</g>
<clipPath id="cp7">
<path transform="matrix(.1199951,0,0,-.1199951,.1149597,595)" d="M 304 188 L 6711 188 L 6711 4770 L 304 4770 L 304 188 "/>
</clipPath>
<g clip-path="url(#cp7)">
<path transform="matrix(.1199951,0,0,-.1199951,402.8185,55.38202)" stroke-width="6" stroke-linecap="round" stroke-linejoin="round" fill="none" stroke="#000000" d="M 0 0 L 0 85 "/>
</g>
<clipPath id="cp8">
<path transform="matrix(.12,0,0,-.12,0,595)" d="M 304 188 L 6711 188 L 6711 4770 L 304 4770 L 304 188 "/>
</clipPath>
<g clip-path="url(#cp8)">
<path transform="matrix(.12,0,0,-.12,408.3,39.640016)" stroke-width="6" stroke-linecap="round" stroke-linejoin="round" fill="none" stroke="#000000" d="M 0 0 C -25.129 0 -45.5 -20.371 -45.5 -45.5 "/>
</g>
</g>
<clipPath id="cp9">
<path transform="matrix(.12,0,0,-.12,0,595)" d="M 304 188 L 6711 188 L 6711 4770 L 304 4770 L 304 188 "/>
</clipPath>
<g clip-path="url(#cp9)">
<g id="Layer-1" data-name="0">
<text xml:space="preserve" transform="matrix(.99999997 0 -0 .99999997 0 595)" font-size="7.6016399" font-family="ArialMT"><tspan y="-542.76" x="411.12 417.45216 421.67866 423.3662">Main</tspan></text>
</g>
<clipPath id="cp10">
<path transform="matrix(.12,0,0,-.12,0,595)" d="M 304 188 L 6711 188 L 6711 4770 L 304 4770 L 304 188 "/>
</clipPath>
<g clip-path="url(#cp10)">
<path transform="matrix(.12,0,0,-.12,317.16,245.08002)" stroke-width="6" stroke-linecap="round" stroke-linejoin="round" fill="none" stroke="#000000" d="M 0 0 L 180 0 "/>
</g>
<clipPath id="cp11">
<path transform="matrix(.1199951,0,0,-.1199951,0,595.1313)" d="M 304 188 L 6711 188 L 6711 4770 L 304 4770 L 304 188 "/>
</clipPath>
<g clip-path="url(#cp11)">
<path transform="matrix(.1199951,0,0,-.1199951,344.26597,250.56534)" stroke-width="6" stroke-linecap="round" stroke-linejoin="round" fill="none" stroke="#000000" d="M 0 0 C 0 25.129 -20.371 45.5 -45.5 45.5 "/>
</g>
<clipPath id="cp12">
<path transform="matrix(.12,0,0,-.12,0,595)" d="M 304 188 L 6711 188 L 6711 4770 L 304 4770 L 304 188 "/>
</clipPath>
<g clip-path="url(#cp12)">
<path transform="matrix(.12,0,0,-.12,344.28,250.48001)" stroke-width="6" stroke-linecap="round" stroke-linejoin="round" fill="none" stroke="#000000" d="M 0 0 L 0 -85 "/>
<path transform="matrix(.12,0,0,-.12,338.82,266.08003)" stroke-width="6" stroke-linecap="round" stroke-linejoin="round" fill="none" stroke="#000000" d="M 0 0 C 25.129 0 45.5 20.371 45.5 45.5 "/>
<path transform="matrix(.12,0,0,-.12,338.75999,266.08003)" stroke-width="6" stroke-linecap="round" stroke-linejoin="round" fill="none" stroke="#000000" d="M 0 0 L -180 0 "/>
<path transform="matrix(.12,0,0,-.12,311.75999,260.62)" stroke-width="6" stroke-linecap="round" stroke-linejoin="round" fill="none" stroke="#000000" d="M 0 0 C 0 -25.129 20.371 -45.5 45.5 -45.5 "/>
</g>
<clipPath id="cp13">
<path transform="matrix(.1199951,0,0,-.1199951,.1094971,595)" d="M 304 188 L 6711 188 L 6711 4770 L 304 4770 L 304 188 "/>
</clipPath>
<g clip-path="url(#cp13)">
<path transform="matrix(.1199951,0,0,-.1199951,311.7368,260.69364)" stroke-width="6" stroke-linecap="round" stroke-linejoin="round" fill="none" stroke="#000000" d="M 0 0 L 0 85 "/>
</g>
<clipPath id="cp14">
<path transform="matrix(.1199951,0,0,-.1199951,-.0546875,595.1314)" d="M 304 188 L 6711 188 L 6711 4770 L 304 4770 L 304 188 "/>
</clipPath>
<g clip-path="url(#cp14)">
<path transform="matrix(.1199951,0,0,-.1199951,317.15238,245.10569)" stroke-width="6" stroke-linecap="round" stroke-linejoin="round" fill="none" stroke="#000000" d="M 0 0 C -25.129 0 -45.5 -20.371 -45.5 -45.5 "/>
</g>
<clipPath id="cp15">
<path transform="matrix(.12,0,0,-.12,0,595)" d="M 304 188 L 6711 188 L 6711 4770 L 304 4770 L 304 188 "/>
</clipPath>
<g clip-path="url(#cp15)">
<text xml:space="preserve" transform="matrix(.99999997 0 -0 .99999997 0 595)" font-size="7.6016399" font-family="ArialMT"><tspan y="-337.44" x="316.32 321.3903 326.87867 331.10517 335.33168">Sweep</tspan></text>
</g>
<clipPath id="cp16">
<path transform="matrix(.1199951,0,0,-.1199951,0,594.86868)" d="M 304 188 L 6711 188 L 6711 4770 L 304 4770 L 304 188 "/>
</clipPath>
<g clip-path="url(#cp16)">
<path transform="matrix(.1199951,0,0,-.1199951,480.94029,244.96298)" stroke-width="6" stroke-linecap="round" stroke-linejoin="round" fill="none" stroke="#000000" d="M 0 0 L 181 0 "/>
</g>
<clipPath id="cp17">
<path transform="matrix(.12,0,0,-.12,0,595)" d="M 304 188 L 6711 188 L 6711 4770 L 304 4770 L 304 188 "/>
</clipPath>
<g clip-path="url(#cp17)">
<path transform="matrix(.12,0,0,-.12,508.19999,250.42002)" stroke-width="6" stroke-linecap="round" stroke-linejoin="round" fill="none" stroke="#000000" d="M 0 0 C 0 25.129 -20.371 45.5 -45.5 45.5 "/>
</g>
<clipPath id="cp18">
<path transform="matrix(.1199951,0,0,-.1199951,.1477966,595)" d="M 304 188 L 6711 188 L 6711 4770 L 304 4770 L 304 188 "/>
</clipPath>
<g clip-path="url(#cp18)">
<path transform="matrix(.1199951,0,0,-.1199951,508.20707,250.49405)" stroke-width="6" stroke-linecap="round" stroke-linejoin="round" fill="none" stroke="#000000" d="M 0 0 L 0 -85 "/>
</g>
<clipPath id="cp19">
<path transform="matrix(.12,0,0,-.12,0,595)" d="M 304 188 L 6711 188 L 6711 4770 L 304 4770 L 304 188 "/>
</clipPath>
<g clip-path="url(#cp19)">
<path transform="matrix(.12,0,0,-.12,502.74,266.08003)" stroke-width="6" stroke-linecap="round" stroke-linejoin="round" fill="none" stroke="#000000" d="M 0 0 C 25.129 0 45.5 20.371 45.5 45.5 "/>
<path transform="matrix(.12,0,0,-.12,502.68,266.08003)" stroke-width="6" stroke-linecap="round" stroke-linejoin="round" fill="none" stroke="#000000" d="M 0 0 L -181 0 "/>
<path transform="matrix(.12,0,0,-.12,475.56,260.62)" stroke-width="6" stroke-linecap="round" stroke-linejoin="round" fill="none" stroke="#000000" d="M 0 0 C 0 -25.129 20.371 -45.5 45.5 -45.5 "/>
<path transform="matrix(.12,0,0,-.12,475.56,260.68)" stroke-width="6" stroke-linecap="round" stroke-linejoin="round" fill="none" stroke="#000000" d="M 0 0 L 0 85 "/>
<path transform="matrix(.12,0,0,-.12,481.02,244.96002)" stroke-width="6" stroke-linecap="round" stroke-linejoin="round" fill="none" stroke="#000000" d="M 0 0 C -25.129 0 -45.5 -20.371 -45.5 -45.5 "/>
<text xml:space="preserve" transform="matrix(.99999997 0 -0 .99999997 0 595)" font-size="7.6016399" font-family="ArialMT"><tspan y="-337.44" x="483.96 489.03028 493.25679 497.48329 499.17085">Shell</tspan><tspan y="-500.52003" x="394.2 396.31327 400.53977 404.34059 406.02815 410.25465 411.9422 414.47355 416.5868 418.27436 419.9619 424.18843 426.71977 430.94627 433.4776 435.59086 439.81736">Incluir librer&#x00ed;as</tspan></text>
<path transform="matrix(.12,0,0,-.12,391.08,83.56)" stroke-width="6" stroke-linecap="round" stroke-linejoin="round" fill="none" stroke="#000000" d="M 0 0 L 467 0 L 467 -143 L 0 -143 L 0 0 "/>
<text xml:space="preserve" transform="matrix(.99999997 0 -0 .99999997 0 595)" font-size="6.0812399" font-family="ArialMT"><tspan y="-518.88" x="478.92 483.31068 487.36686">HAL</tspan><tspan y="-511.56" x="478.92 482.9762 486.35737 488.38243 491.76359 495.14476">Kernel</tspan><tspan y="-504.24" x="478.92 483.31068 486.69184 488.38243 489.73246 493.11363 494.46366 497.50428 498.8543 502.23548 505.61665 508.9978">Definiciones</tspan><tspan y="-496.91999" x="479.16 483.55067 486.93183 490.313 492.00358 493.3536 496.73478 500.11595 502.141 505.52217 508.56278 509.9128 513.294 516.6752 520.05636">Configuraciones</tspan><tspan y="-489.71998" x="479.4 483.45619 486.83735 488.8624 490.21244 493.5936 496.97477 498.3248 501.70597">Variables</tspan><tspan y="-482.39997" x="478.91999 482.63563 486.01679 489.39796 492.43858 493.7886 497.16978 500.55094 503.9321">Funciones</tspan></text>
</g>
<g id="Layer-1" data-name="Bloques">
<path transform="matrix(.12,0,0,-.12,471.47999,91.120029)" d="M 0 0 L 42 -9 L 0 -9 Z M 42 -9 L 0 -9 L 0 -17 Z "/>
<path transform="matrix(.12,0,0,-.12,471.47999,91.120029)" stroke-width="0" stroke-linecap="round" stroke-miterlimit="10" stroke-linejoin="miter" fill="none" stroke="#000000" d="M 0 0 L 42 -9 L 0 -9 Z M 42 -9 L 0 -9 L 0 -17 Z "/>
<path transform="matrix(.12,0,0,-.12,471.47999,92.20001)" stroke-width="6" stroke-linecap="round" stroke-linejoin="round" fill="none" stroke="#000000" d="M 0 0 L 0 -8 L 42 0 L 0 9 L 0 0 "/>
</g>
<g id="Layer-1" data-name="0">
<path transform="matrix(.12,0,0,-.12,480.12,69.76001)" stroke-width="6" stroke-linecap="round" stroke-linejoin="round" fill="none" stroke="#000000" d="M 0 0 L -30 0 L -30 -373 L 0 -373 "/>
<path transform="matrix(.12,0,0,-.12,447.12,92.20001)" stroke-width="6" stroke-linecap="round" stroke-linejoin="round" fill="none" stroke="#000000" d="M 0 0 L 203 0 "/>
</g>
<g id="Layer-1" data-name="Bloques">
<path transform="matrix(.12,0,0,-.12,418.08,78.52002)" d="M 0 0 L 8 0 L 8 -42 Z M 8 0 L 8 -42 L 17 0 Z "/>
<path transform="matrix(.12,0,0,-.12,418.08,78.52002)" stroke-width="0" stroke-linecap="round" stroke-miterlimit="10" stroke-linejoin="miter" fill="none" stroke="#000000" d="M 0 0 L 8 0 L 8 -42 Z M 8 0 L 8 -42 L 17 0 Z "/>
<path transform="matrix(.12,0,0,-.12,419.03999,78.52002)" stroke-width="6" stroke-linecap="round" stroke-linejoin="round" fill="none" stroke="#000000" d="M 0 0 L -8 0 L 0 -42 L 9 0 L 0 0 "/>
</g>
<g id="Layer-1" data-name="0">
<path transform="matrix(.12,0,0,-.12,419.03999,83.56)" stroke-width="6" stroke-linecap="round" stroke-linejoin="round" fill="none" stroke="#000000" d="M 0 0 L 0 189 "/>
<text xml:space="preserve" transform="matrix(.99999997 0 -0 .99999997 0 595)" font-size="7.6016399" font-family="ArialMT"><tspan y="-430.8" x="393.48 395.59327 399.81977 401.50733 405.30815 406.9957 411.2222 412.90977 414.59733 418.39814 422.62464 426.42546 428.113 432.3395 436.566 440.7925">Inicializaciones</tspan></text>
<path transform="matrix(.12,0,0,-.12,391.08,153.40003)" stroke-width="6" stroke-linecap="round" stroke-linejoin="round" fill="none" stroke="#000000" d="M 0 0 L 467 0 L 467 -143 L 0 -143 L 0 0 "/>
<text xml:space="preserve" transform="matrix(.99999997 0 -0 .99999997 0 595)" font-size="6.0812399" font-family="ArialMT"><tspan y="-464.04" x="478.92 483.31068 487.36686">HAL</tspan><tspan y="-456.72" x="478.92 482.9762 486.35737 488.38243 491.76359 495.14476">Kernel</tspan><tspan y="-449.4" x="479.16 483.2162 486.59736 489.97853 491.32856">Shell</tspan><tspan y="-442.19999" x="478.92 483.31068 487.36686 491.7575">UART</tspan><tspan y="-434.87998" x="478.92 483.31068 487.36686">USB</tspan><tspan y="-427.55998" x="478.80003">I</tspan></text>
<text xml:space="preserve" transform="matrix(.99999997 0 -0 .99999997 0 595)" font-size="4.25688" font-family="ArialMT"><tspan y="-430.19999" x="480.36003">2</tspan></text>
<text xml:space="preserve" transform="matrix(.99999997 0 -0 .99999997 0 595)" font-size="6.0812399" font-family="ArialMT"><tspan y="-427.55998" x="482.76">C</tspan><tspan y="-420.23997" x="479.16 483.2162 484.56623 487.9474 491.32856 494.70973 498.09089">Si5351A</tspan><tspan y="-412.91996" x="479.16 483.55067 486.93183 490.313 493.69416 496.73478 498.42536 502.141 505.52217 509.57835 512.95956 516.3407 519.72189 523.7781 525.4687 529.8593 533.2405 536.62167 540.0028">C&#x00f3;dec TLV320AIC3204</tspan><tspan y="-405.59996" x="478.80003">I</tspan></text>
<text xml:space="preserve" transform="matrix(.99999997 0 -0 .99999997 0 595)" font-size="4.25688" font-family="ArialMT"><tspan y="-408.23997" x="480.36003">2</tspan></text>
<text xml:space="preserve" transform="matrix(.99999997 0 -0 .99999997 0 595)" font-size="6.0812399" font-family="ArialMT"><tspan y="-405.59996" x="482.76">S</tspan><tspan y="-398.27995" x="479.40003 485.14073 488.52189 490.21247 493.25309 496.63426 500.0154 503.39659">Watchdog</tspan></text>
</g>
<g id="Layer-1" data-name="Bloques">
<path transform="matrix(.12,0,0,-.12,471.47999,160.96002)" d="M 0 0 L 42 -8 L 0 -8 Z M 42 -8 L 0 -8 L 0 -17 Z "/>
<path transform="matrix(.12,0,0,-.12,471.47999,160.96002)" stroke-width="0" stroke-linecap="round" stroke-miterlimit="10" stroke-linejoin="miter" fill="none" stroke="#000000" d="M 0 0 L 42 -8 L 0 -8 Z M 42 -8 L 0 -8 L 0 -17 Z "/>
<path transform="matrix(.12,0,0,-.12,471.47999,161.92002)" stroke-width="6" stroke-linecap="round" stroke-linejoin="round" fill="none" stroke="#000000" d="M 0 0 L 0 -9 L 42 0 L 0 8 L 0 0 "/>
</g>
<g id="Layer-1" data-name="0">
<path transform="matrix(.12,0,0,-.12,480.12,124.600009)" stroke-width="6" stroke-linecap="round" stroke-linejoin="round" fill="none" stroke="#000000" d="M 0 0 L -30 0 L -30 -623 L 0 -623 "/>
<path transform="matrix(.12,0,0,-.12,447.12,161.92002)" stroke-width="6" stroke-linecap="round" stroke-linejoin="round" fill="none" stroke="#000000" d="M 0 0 L 203 0 "/>
</g>
<g id="Layer-1" data-name="Bloques">
<path transform="matrix(.12,0,0,-.12,418.08,148.36002)" d="M 0 0 L 8 0 L 8 -42 Z M 8 0 L 8 -42 L 17 0 Z "/>
<path transform="matrix(.12,0,0,-.12,418.08,148.36002)" stroke-width="0" stroke-linecap="round" stroke-miterlimit="10" stroke-linejoin="miter" fill="none" stroke="#000000" d="M 0 0 L 8 0 L 8 -42 Z M 8 0 L 8 -42 L 17 0 Z "/>
<path transform="matrix(.12,0,0,-.12,419.03999,148.36002)" stroke-width="6" stroke-linecap="round" stroke-linejoin="round" fill="none" stroke="#000000" d="M 0 0 L -8 0 L 0 -42 L 9 0 L 0 0 "/>
</g>
<g id="Layer-1" data-name="0">
<path transform="matrix(.12,0,0,-.12,419.03999,153.40003)" stroke-width="6" stroke-linecap="round" stroke-linejoin="round" fill="none" stroke="#000000" d="M 0 0 L 0 439 "/>
<text xml:space="preserve" transform="matrix(.99999997 0 -0 .99999997 0 595)" font-size="7.6016399" font-family="ArialMT"><tspan y="-295.32" x="319.44 323.6665 325.77976 330.21913 332.33238">p = 0</tspan></text>
<path transform="matrix(.12,0,0,-.12,316.44,288.88)" stroke-width="6" stroke-linecap="round" stroke-linejoin="round" fill="none" stroke="#000000" d="M 0 0 L 192 0 L 192 -143 L 0 -143 L 0 0 "/>
</g>
<g id="Layer-1" data-name="Bloques">
<path transform="matrix(.12,0,0,-.12,326.88,283.84)" d="M 0 0 L 9 0 L 9 -42 Z M 9 0 L 9 -42 L 18 0 Z "/>
<path transform="matrix(.12,0,0,-.12,326.88,283.84)" stroke-width="0" stroke-linecap="round" stroke-miterlimit="10" stroke-linejoin="miter" fill="none" stroke="#000000" d="M 0 0 L 9 0 L 9 -42 Z M 9 0 L 9 -42 L 18 0 Z "/>
<path transform="matrix(.12,0,0,-.12,327.96,283.84)" stroke-width="6" stroke-linecap="round" stroke-linejoin="round" fill="none" stroke="#000000" d="M 0 0 L -9 0 L 0 -42 L 9 0 L 0 0 "/>
</g>
<g id="Layer-1" data-name="0">
<path transform="matrix(.12,0,0,-.12,327.96,288.88)" stroke-width="6" stroke-linecap="round" stroke-linejoin="round" fill="none" stroke="#000000" d="M 0 0 L 0 190 "/>
<text xml:space="preserve" transform="matrix(.99999997 0 -0 .99999997 0 595)" font-size="7.6016399" font-family="ArialMT"><tspan y="-242.52" x="301.8 306.0265 308.13975 312.5791 314.69236 318.91886 323.14537 329.4775 331.59077 333.704 337.9305 342.157 346.3835 348.49678 352.72328">p &#x003c; n&#x00fa;m. puntos</tspan></text>
<path transform="matrix(.12,0,0,-.12,366.36,350.32)" stroke-width="6" stroke-linecap="round" stroke-linejoin="round" fill="none" stroke="#000000" d="M 0 0 L -320 180 L -640 0 L -320 -180 L 0 0 "/>
</g>
<g id="Layer-1" data-name="Bloques">
<path transform="matrix(.12,0,0,-.12,326.88,323.68)" d="M 0 0 L 9 0 L 9 -42 Z M 9 0 L 9 -42 L 18 0 Z "/>
<path transform="matrix(.12,0,0,-.12,326.88,323.68)" stroke-width="0" stroke-linecap="round" stroke-miterlimit="10" stroke-linejoin="miter" fill="none" stroke="#000000" d="M 0 0 L 9 0 L 9 -42 Z M 9 0 L 9 -42 L 18 0 Z "/>
<path transform="matrix(.12,0,0,-.12,327.96,323.68)" stroke-width="6" stroke-linecap="round" stroke-linejoin="round" fill="none" stroke="#000000" d="M 0 0 L -9 0 L 0 -42 L 9 0 L 0 0 "/>
</g>
<g id="Layer-1" data-name="0">
<path transform="matrix(.12,0,0,-.12,327.96,328.72)" stroke-width="6" stroke-linecap="round" stroke-linejoin="round" fill="none" stroke="#000000" d="M 0 0 L 0 189 "/>
<text xml:space="preserve" transform="matrix(.99999997 0 -0 .99999997 0 595)" font-size="7.6016399" font-family="ArialMT"><tspan y="-189.48" x="293.4 297.6265 301.853 305.6538 307.76707 311.99357 314.5249 318.7514 320.86466 324.66548 328.89198 333.11848 337.34498 339.03254 341.14579 344.9466 349.1731 353.3996 357.6261">Lectura canal c&#x00f3;dec</tspan></text>
<path transform="matrix(.12,0,0,-.12,290.88,394.6)" stroke-width="6" stroke-linecap="round" stroke-linejoin="round" fill="none" stroke="#000000" d="M 0 0 L 618 0 L 618 -143 L 0 -143 L 0 0 "/>
</g>
<g id="Layer-1" data-name="Bloques">
<path transform="matrix(.12,0,0,-.12,326.88,389.56)" d="M 0 0 L 9 0 L 9 -42 Z M 9 0 L 9 -42 L 18 0 Z "/>
<path transform="matrix(.12,0,0,-.12,326.88,389.56)" stroke-width="0" stroke-linecap="round" stroke-miterlimit="10" stroke-linejoin="miter" fill="none" stroke="#000000" d="M 0 0 L 9 0 L 9 -42 Z M 9 0 L 9 -42 L 18 0 Z "/>
<path transform="matrix(.12,0,0,-.12,327.96,389.56)" stroke-width="6" stroke-linecap="round" stroke-linejoin="round" fill="none" stroke="#000000" d="M 0 0 L -9 0 L 0 -42 L 9 0 L 0 0 "/>
</g>
<g id="Layer-1" data-name="0">
<path transform="matrix(.12,0,0,-.12,327.96,394.6)" stroke-width="6" stroke-linecap="round" stroke-linejoin="round" fill="none" stroke="#000000" d="M 0 0 L 0 189 "/>
<text xml:space="preserve" transform="matrix(.99999997 0 -0 .99999997 0 595)" font-size="7.6016399" font-family="ArialMT"><tspan y="-149.64" x="307.56 313.04838 317.27488 318.96244 322.76325 326.98976 328.6773 332.9038 335.43516 337.5484">Calcular S</tspan></text>
<text xml:space="preserve" transform="matrix(.99999997 0 -0 .99999997 0 595)" font-size="5.3210399" font-family="ArialMT"><tspan y="-147.84" x="342.12 345.0785">11</tspan></text>
<path transform="matrix(.12,0,0,-.12,304.8,434.56)" stroke-width="6" stroke-linecap="round" stroke-linejoin="round" fill="none" stroke="#000000" d="M 0 0 L 385 0 L 385 -143 L 0 -143 L 0 0 "/>
</g>
<g id="Layer-1" data-name="Bloques">
<path transform="matrix(.12,0,0,-.12,326.88,429.52003)" d="M 0 0 L 9 0 L 9 -42 Z M 9 0 L 9 -42 L 18 0 Z "/>
<path transform="matrix(.12,0,0,-.12,326.88,429.52003)" stroke-width="0" stroke-linecap="round" stroke-miterlimit="10" stroke-linejoin="miter" fill="none" stroke="#000000" d="M 0 0 L 9 0 L 9 -42 Z M 9 0 L 9 -42 L 18 0 Z "/>
<path transform="matrix(.12,0,0,-.12,327.96,429.52003)" stroke-width="6" stroke-linecap="round" stroke-linejoin="round" fill="none" stroke="#000000" d="M 0 0 L -9 0 L 0 -42 L 9 0 L 0 0 "/>
</g>
<g id="Layer-1" data-name="0">
<path transform="matrix(.12,0,0,-.12,327.96,434.56)" stroke-width="6" stroke-linecap="round" stroke-linejoin="round" fill="none" stroke="#000000" d="M 0 0 L 0 190 "/>
<text xml:space="preserve" transform="matrix(.99999997 0 -0 .99999997 0 595)" font-size="7.6016399" font-family="ArialMT"><tspan y="-109.68" x="279.24 284.31028 288.53678 290.22434 291.9119 295.7127 299.9392 302.47056 304.5838 308.3846 312.6111 315.14247 317.6738 321.9003 325.7011 329.50193 331.18949 335.416 339.6425 341.75575 345.98225 350.20875 352.322 356.5485 359.07984 361.61119 365.83769 368.36903 372.59553">Aplicar correcci&#x00f3;n de errores</tspan></text>
<path transform="matrix(.12,0,0,-.12,276,474.4)" stroke-width="6" stroke-linecap="round" stroke-linejoin="round" fill="none" stroke="#000000" d="M 0 0 L 866 0 L 866 -143 L 0 -143 L 0 0 "/>
</g>
<g id="Layer-1" data-name="Bloques">
<path transform="matrix(.12,0,0,-.12,326.88,469.36)" d="M 0 0 L 9 0 L 9 -42 Z M 9 0 L 9 -42 L 18 0 Z "/>
<path transform="matrix(.12,0,0,-.12,326.88,469.36)" stroke-width="0" stroke-linecap="round" stroke-miterlimit="10" stroke-linejoin="miter" fill="none" stroke="#000000" d="M 0 0 L 9 0 L 9 -42 Z M 9 0 L 9 -42 L 18 0 Z "/>
<path transform="matrix(.12,0,0,-.12,327.96,469.36)" stroke-width="6" stroke-linecap="round" stroke-linejoin="round" fill="none" stroke="#000000" d="M 0 0 L -9 0 L 0 -42 L 9 0 L 0 0 "/>
</g>
<g id="Layer-1" data-name="0">
<path transform="matrix(.12,0,0,-.12,327.96,474.4)" stroke-width="6" stroke-linecap="round" stroke-linejoin="round" fill="none" stroke="#000000" d="M 0 0 L 0 189 "/>
<text xml:space="preserve" transform="matrix(.99999997 0 -0 .99999997 0 595)" font-size="7.6016399" font-family="ArialMT"><tspan y="-69.84" x="313.08 317.3065 319.41975 323.8591 325.97236 330.19886 332.3121 336.75148 338.86473">p = p + 1</tspan></text>
<path transform="matrix(.12,0,0,-.12,310.44,514.36)" stroke-width="6" stroke-linecap="round" stroke-linejoin="round" fill="none" stroke="#000000" d="M 0 0 L 292 0 L 292 -143 L 0 -143 L 0 0 "/>
</g>
<g id="Layer-1" data-name="Bloques">
<path transform="matrix(.12,0,0,-.12,326.88,509.32)" d="M 0 0 L 9 0 L 9 -42 Z M 9 0 L 9 -42 L 18 0 Z "/>
<path transform="matrix(.12,0,0,-.12,326.88,509.32)" stroke-width="0" stroke-linecap="round" stroke-miterlimit="10" stroke-linejoin="miter" fill="none" stroke="#000000" d="M 0 0 L 9 0 L 9 -42 Z M 9 0 L 9 -42 L 18 0 Z "/>
<path transform="matrix(.12,0,0,-.12,327.96,509.32)" stroke-width="6" stroke-linecap="round" stroke-linejoin="round" fill="none" stroke="#000000" d="M 0 0 L -9 0 L 0 -42 L 9 0 L 0 0 "/>
</g>
<g id="Layer-1" data-name="0">
<path transform="matrix(.12,0,0,-.12,327.96,514.36)" stroke-width="6" stroke-linecap="round" stroke-linejoin="round" fill="none" stroke="#000000" d="M 0 0 L 0 190 "/>
<path transform="matrix(.12,0,0,-.12,327.96,316)" stroke-width="6" stroke-linecap="round" stroke-linejoin="round" fill="none" stroke="#000000" d="M 0 0 L -607 0 L -607 -1985 L 0 -1985 L 0 -1796 "/>
</g>
<g id="Layer-1" data-name="Bloques">
<path transform="matrix(.12,0,0,-.12,322.91999,314.92)" d="M 0 0 L 42 -9 L 0 -9 Z M 42 -9 L 0 -9 L 0 -17 Z "/>
<path transform="matrix(.12,0,0,-.12,322.91999,314.92)" stroke-width="0" stroke-linecap="round" stroke-miterlimit="10" stroke-linejoin="miter" fill="none" stroke="#000000" d="M 0 0 L 42 -9 L 0 -9 Z M 42 -9 L 0 -9 L 0 -17 Z "/>
<path transform="matrix(.12,0,0,-.12,322.91999,316)" stroke-width="6" stroke-linecap="round" stroke-linejoin="round" fill="none" stroke="#000000" d="M 0 0 L 0 -8 L 42 0 L 0 9 L 0 0 "/>
</g>
<g id="Layer-1" data-name="0">
<path transform="matrix(.12,0,0,-.12,327.96,276.16)" stroke-width="6" stroke-linecap="round" stroke-linejoin="round" fill="none" stroke="#000000" d="M 0 0 L 509 0 L 509 -618 L 320 -618 "/>
</g>
<g id="Layer-1" data-name="Bloques">
<path transform="matrix(.12,0,0,-.12,333,275.08003)" d="M 0 0 L 0 -9 L -42 -9 Z M 0 -9 L -42 -9 L 0 -18 Z "/>
<path transform="matrix(.12,0,0,-.12,333,275.08003)" stroke-width="0" stroke-linecap="round" stroke-miterlimit="10" stroke-linejoin="miter" fill="none" stroke="#000000" d="M 0 0 L 0 -9 L -42 -9 Z M 0 -9 L -42 -9 L 0 -18 Z "/>
<path transform="matrix(.12,0,0,-.12,333,276.16)" stroke-width="6" stroke-linecap="round" stroke-linejoin="round" fill="none" stroke="#000000" d="M 0 0 L 0 -9 L -42 0 L 0 9 L 0 0 "/>
</g>
<g id="Layer-1" data-name="0">
<text xml:space="preserve" transform="matrix(.99999997 0 -0 .99999997 0 595)" font-size="7.6016399" font-family="ArialMT"><tspan y="-212.04" x="318.12 323.19029">S&#x00ed;</tspan><tspan y="-247.31999" x="373.68 379.16838">No</tspan><tspan y="-295.32" x="467.4 471.6265 475.853 480.0795 482.61085 484.7241 488.5249 492.7514 499.08357 503.31007 507.53657 511.76307">Leer comando</tspan></text>
<path transform="matrix(.12,0,0,-.12,464.87998,288.88)" stroke-width="6" stroke-linecap="round" stroke-linejoin="round" fill="none" stroke="#000000" d="M 0 0 L 449 0 L 449 -143 L 0 -143 L 0 0 "/>
</g>
<g id="Layer-1" data-name="Bloques">
<path transform="matrix(.12,0,0,-.12,490.8,283.84)" d="M 0 0 L 8 0 L 8 -42 Z M 8 0 L 8 -42 L 17 0 Z "/>
<path transform="matrix(.12,0,0,-.12,490.8,283.84)" stroke-width="0" stroke-linecap="round" stroke-miterlimit="10" stroke-linejoin="miter" fill="none" stroke="#000000" d="M 0 0 L 8 0 L 8 -42 Z M 8 0 L 8 -42 L 17 0 Z "/>
<path transform="matrix(.12,0,0,-.12,491.75999,283.84)" stroke-width="6" stroke-linecap="round" stroke-linejoin="round" fill="none" stroke="#000000" d="M 0 0 L -8 0 L 0 -42 L 9 0 L 0 0 "/>
</g>
<g id="Layer-1" data-name="0">
<path transform="matrix(.12,0,0,-.12,491.75999,288.88)" stroke-width="6" stroke-linecap="round" stroke-linejoin="round" fill="none" stroke="#000000" d="M 0 0 L 0 190 "/>
<text xml:space="preserve" transform="matrix(.99999997 0 -0 .99999997 0 595)" font-size="7.6016399" font-family="ArialMT"><tspan y="-255.48" x="460.8 465.87028 467.55784 471.78434 475.58515 479.81166 481.9249 486.1514 488.68275 490.796 494.5968 498.8233 505.15547 509.38197 513.60848 517.83499">Ejecutar comando</tspan></text>
<path transform="matrix(.12,0,0,-.12,458.28,328.72)" stroke-width="6" stroke-linecap="round" stroke-linejoin="round" fill="none" stroke="#000000" d="M 0 0 L 559 0 L 559 -143 L 0 -143 L 0 0 "/>
</g>
<g id="Layer-1" data-name="Bloques">
<path transform="matrix(.12,0,0,-.12,490.8,323.68)" d="M 0 0 L 8 0 L 8 -42 Z M 8 0 L 8 -42 L 17 0 Z "/>
<path transform="matrix(.12,0,0,-.12,490.8,323.68)" stroke-width="0" stroke-linecap="round" stroke-miterlimit="10" stroke-linejoin="miter" fill="none" stroke="#000000" d="M 0 0 L 8 0 L 8 -42 Z M 8 0 L 8 -42 L 17 0 Z "/>
<path transform="matrix(.12,0,0,-.12,491.75999,323.68)" stroke-width="6" stroke-linecap="round" stroke-linejoin="round" fill="none" stroke="#000000" d="M 0 0 L -8 0 L 0 -42 L 9 0 L 0 0 "/>
</g>
<g id="Layer-1" data-name="0">
<path transform="matrix(.12,0,0,-.12,491.75999,328.72)" stroke-width="6" stroke-linecap="round" stroke-linejoin="round" fill="none" stroke="#000000" d="M 0 0 L 0 189 "/>
<path transform="matrix(.12,0,0,-.12,491.75999,275.44)" stroke-width="6" stroke-linecap="round" stroke-linejoin="round" fill="none" stroke="#000000" d="M 0 0 L 391 0 L 391 -777 L 0 -777 L 0 -587 "/>
</g>
<g id="Layer-1" data-name="Bloques">
<path transform="matrix(.12,0,0,-.12,496.8,274.36003)" d="M 0 0 L 0 -9 L -42 -9 Z M 0 -9 L -42 -9 L 0 -17 Z "/>
<path transform="matrix(.12,0,0,-.12,496.8,274.36003)" stroke-width="0" stroke-linecap="round" stroke-miterlimit="10" stroke-linejoin="miter" fill="none" stroke="#000000" d="M 0 0 L 0 -9 L -42 -9 Z M 0 -9 L -42 -9 L 0 -17 Z "/>
<path transform="matrix(.12,0,0,-.12,496.8,275.44)" stroke-width="6" stroke-linecap="round" stroke-linejoin="round" fill="none" stroke="#000000" d="M 0 0 L 0 -8 L -42 0 L 0 9 L 0 0 "/>
</g>
<g id="Layer-1" data-name="0">
</g>
<clipPath id="cp20">
<path transform="matrix(.1199951,0,0,-.1199799,0,595.0487)" d="M 304 188 L 6711 188 L 6711 4770 L 304 4770 L 304 188 "/>
</clipPath>
<g clip-path="url(#cp20)">
<path transform="matrix(.1199951,0,0,-.1199799,327.9599,245.07996)" stroke-width="6" stroke-linecap="round" stroke-linejoin="round" fill="none" stroke="#000000" d="M 0 0 L 0 190 L 1365 190 L 1365 0 "/>
</g>
<clipPath id="cp21">
<path transform="matrix(.12,0,0,-.12,0,595)" d="M 304 188 L 6711 188 L 6711 4770 L 304 4770 L 304 188 "/>
</clipPath>
<g clip-path="url(#cp21)">
<path transform="matrix(.12,0,0,-.12,419.03999,170.56)" stroke-width="6" stroke-linecap="round" stroke-linejoin="round" fill="none" stroke="#000000" d="M 0 0 L 0 -431 "/>
</g>
<g id="Layer-1" data-name="Bloques">
<path transform="matrix(.12,0,0,-.12,326.88,240.04001)" d="M 0 0 L 9 0 L 9 -42 Z M 9 0 L 9 -42 L 18 0 Z "/>
<path transform="matrix(.12,0,0,-.12,326.88,240.04001)" stroke-width="0" stroke-linecap="round" stroke-miterlimit="10" stroke-linejoin="miter" fill="none" stroke="#000000" d="M 0 0 L 9 0 L 9 -42 Z M 9 0 L 9 -42 L 18 0 Z "/>
<path transform="matrix(.12,0,0,-.12,327.96,240.04001)" stroke-width="6" stroke-linecap="round" stroke-linejoin="round" fill="none" stroke="#000000" d="M 0 0 L -9 0 L 0 -42 L 9 0 L 0 0 "/>
<path transform="matrix(.12,0,0,-.12,490.8,240.04001)" d="M 0 0 L 8 0 L 8 -42 Z M 8 0 L 8 -42 L 17 0 Z "/>
<path transform="matrix(.12,0,0,-.12,490.8,240.04001)" stroke-width="0" stroke-linecap="round" stroke-miterlimit="10" stroke-linejoin="miter" fill="none" stroke="#000000" d="M 0 0 L 8 0 L 8 -42 Z M 8 0 L 8 -42 L 17 0 Z "/>
</g>
<clipPath id="cp22">
<path transform="matrix(.1199951,0,0,-.1199951,0,595)" d="M 304 188 L 6711 188 L 6711 4770 L 304 4770 L 304 188 "/>
</clipPath>
<g clip-path="url(#cp22)">
<path transform="matrix(.1199951,0,0,-.1199951,491.73988,240.05454)" stroke-width="6" stroke-linecap="round" stroke-linejoin="round" fill="none" stroke="#000000" d="M 0 0 L -8 0 L 0 -42 L 9 0 L 0 0 "/>
</g>
</g>
<clipPath id="cp23">
<path transform="matrix(.12,0,0,-.12,0,595)" d="M 303 187 L 6713 187 L 6713 4772 L 303 4772 L 303 187 "/>
</clipPath>
<g clip-path="url(#cp23)">
<g id="Layer-1" data-name="0">
<path transform="matrix(.12,0,0,-.12,36.36,572.56)" stroke-width="0" stroke-linecap="round" stroke-linejoin="round" fill="none" stroke="#000000" d="M 0 0 L 6409 0 L 6409 4584 L 0 4584 L 0 0 "/>
</g>
</g>
</g>
</svg>
