<?xml version="1.0" encoding="UTF-8" standalone="no"?>
<svg
   xmlns:dc="http://purl.org/dc/elements/1.1/"
   xmlns:cc="http://creativecommons.org/ns#"
   xmlns:rdf="http://www.w3.org/1999/02/22-rdf-syntax-ns#"
   xmlns:svg="http://www.w3.org/2000/svg"
   xmlns="http://www.w3.org/2000/svg"
   viewBox="0 0 1122.6667 793.33331"
   height="793.33331"
   width="1122.6667"
   xml:space="preserve"
   id="svg2"
   version="1.1"><metadata
     id="metadata8"><rdf:RDF><cc:Work
         rdf:about=""><dc:format>image/svg+xml</dc:format><dc:type
           rdf:resource="http://purl.org/dc/dcmitype/StillImage" /></cc:Work></rdf:RDF></metadata><defs
     id="defs6"><clipPath
       id="clipPath18"
       clipPathUnits="userSpaceOnUse"><path
         id="path16"
         d="M 304,188 H 6711 V 4770 H 304 V 188" /></clipPath><clipPath
       id="clipPath26"
       clipPathUnits="userSpaceOnUse"><path
         id="path24"
         d="M 304,188 H 6711 V 4770 H 304 V 188" /></clipPath><clipPath
       id="clipPath38"
       clipPathUnits="userSpaceOnUse"><path
         id="path36"
         d="M 304,188 H 6711 V 4770 H 304 V 188" /></clipPath><clipPath
       id="clipPath50"
       clipPathUnits="userSpaceOnUse"><path
         id="path48"
         d="M 304,188 H 6711 V 4770 H 304 V 188" /></clipPath><clipPath
       id="clipPath62"
       clipPathUnits="userSpaceOnUse"><path
         id="path60"
         d="M 304,188 H 6711 V 4770 H 304 V 188" /></clipPath><clipPath
       id="clipPath74"
       clipPathUnits="userSpaceOnUse"><path
         id="path72"
         d="M 304,188 H 6711 V 4770 H 304 V 188" /></clipPath><clipPath
       id="clipPath86"
       clipPathUnits="userSpaceOnUse"><path
         id="path84"
         d="M 304,188 H 6711 V 4770 H 304 V 188" /></clipPath><clipPath
       id="clipPath98"
       clipPathUnits="userSpaceOnUse"><path
         id="path96"
         d="M 304,188 H 6711 V 4770 H 304 V 188" /></clipPath><clipPath
       id="clipPath110"
       clipPathUnits="userSpaceOnUse"><path
         id="path108"
         d="M 304,188 H 6711 V 4770 H 304 V 188" /></clipPath><clipPath
       id="clipPath122"
       clipPathUnits="userSpaceOnUse"><path
         id="path120"
         d="M 304,188 H 6711 V 4770 H 304 V 188" /></clipPath><clipPath
       id="clipPath136"
       clipPathUnits="userSpaceOnUse"><path
         id="path134"
         d="M 304,188 H 6711 V 4770 H 304 V 188" /></clipPath><clipPath
       id="clipPath148"
       clipPathUnits="userSpaceOnUse"><path
         id="path146"
         d="M 304,188 H 6711 V 4770 H 304 V 188" /></clipPath><clipPath
       id="clipPath160"
       clipPathUnits="userSpaceOnUse"><path
         id="path158"
         d="M 304,188 H 6711 V 4770 H 304 V 188" /></clipPath><clipPath
       id="clipPath184"
       clipPathUnits="userSpaceOnUse"><path
         id="path182"
         d="M 304,188 H 6711 V 4770 H 304 V 188" /></clipPath><clipPath
       id="clipPath196"
       clipPathUnits="userSpaceOnUse"><path
         id="path194"
         d="M 304,188 H 6711 V 4770 H 304 V 188" /></clipPath><clipPath
       id="clipPath208"
       clipPathUnits="userSpaceOnUse"><path
         id="path206"
         d="M 304,188 H 6711 V 4770 H 304 V 188" /></clipPath><clipPath
       id="clipPath222"
       clipPathUnits="userSpaceOnUse"><path
         id="path220"
         d="M 304,188 H 6711 V 4770 H 304 V 188" /></clipPath><clipPath
       id="clipPath234"
       clipPathUnits="userSpaceOnUse"><path
         id="path232"
         d="M 304,188 H 6711 V 4770 H 304 V 188" /></clipPath><clipPath
       id="clipPath246"
       clipPathUnits="userSpaceOnUse"><path
         id="path244"
         d="M 304,188 H 6711 V 4770 H 304 V 188" /></clipPath><clipPath
       id="clipPath258"
       clipPathUnits="userSpaceOnUse"><path
         id="path256"
         d="M 304,188 H 6711 V 4770 H 304 V 188" /></clipPath><clipPath
       id="clipPath640"
       clipPathUnits="userSpaceOnUse"><path
         id="path638"
         d="M 304,188 H 6711 V 4770 H 304 V 188" /></clipPath><clipPath
       id="clipPath652"
       clipPathUnits="userSpaceOnUse"><path
         id="path650"
         d="M 304,188 H 6711 V 4770 H 304 V 188" /></clipPath><clipPath
       id="clipPath676"
       clipPathUnits="userSpaceOnUse"><path
         id="path674"
         d="M 304,188 H 6711 V 4770 H 304 V 188" /></clipPath><clipPath
       id="clipPath688"
       clipPathUnits="userSpaceOnUse"><path
         id="path686"
         d="M 303,187 H 6713 V 4772 H 303 V 187" /></clipPath></defs><g
     transform="matrix(1.3333333,0,0,-1.3333333,0,793.33333)"
     id="g10"><g
       transform="scale(0.12)"
       id="g12"><g
         clip-path="url(#clipPath18)"
         id="g14" /></g><g
       transform="matrix(0.1199951,0,0,0.1199951,0,0.1532593)"
       id="g20"><g
         clip-path="url(#clipPath26)"
         id="g22"><g
           transform="translate(3402,4627)"
           id="g28"><path
             id="path30"
             style="fill:none;stroke:#000000;stroke-width:6;stroke-linecap:round;stroke-linejoin:round;stroke-miterlimit:10;stroke-dasharray:none;stroke-opacity:1"
             d="M 0,0 H 181" /></g></g></g><g
       transform="scale(0.12)"
       id="g32"><g
         clip-path="url(#clipPath38)"
         id="g34"><g
           transform="translate(3629,4582.5)"
           id="g40"><path
             id="path42"
             style="fill:none;stroke:#000000;stroke-width:6;stroke-linecap:round;stroke-linejoin:round;stroke-miterlimit:10;stroke-dasharray:none;stroke-opacity:1"
             d="M 0,0 C 0,25.129 -20.371,45.5 -45.5,45.5" /></g></g></g><g
       transform="matrix(0.1199951,0,0,0.1199951,0.1313782,0)"
       id="g44"><g
         clip-path="url(#clipPath50)"
         id="g46"><g
           transform="translate(3628,4582)"
           id="g52"><path
             id="path54"
             style="fill:none;stroke:#000000;stroke-width:6;stroke-linecap:round;stroke-linejoin:round;stroke-miterlimit:10;stroke-dasharray:none;stroke-opacity:1"
             d="M 0,0 V -85" /></g></g></g><g
       transform="scale(0.12)"
       id="g56"><g
         clip-path="url(#clipPath62)"
         id="g58"><g
           transform="translate(3583.5,4452)"
           id="g64"><path
             id="path66"
             style="fill:none;stroke:#000000;stroke-width:6;stroke-linecap:round;stroke-linejoin:round;stroke-miterlimit:10;stroke-dasharray:none;stroke-opacity:1"
             d="M 0,0 C 25.129,0 45.5,20.371 45.5,45.5" /></g></g></g><g
       transform="matrix(0.1199951,0,0,0.1199951,0,0.1641846)"
       id="g68"><g
         clip-path="url(#clipPath74)"
         id="g70"><g
           transform="translate(3583,4451)"
           id="g76"><path
             id="path78"
             style="fill:none;stroke:#000000;stroke-width:6;stroke-linecap:round;stroke-linejoin:round;stroke-miterlimit:10;stroke-dasharray:none;stroke-opacity:1"
             d="M 0,0 H -181" /></g></g></g><g
       transform="scale(0.12)"
       id="g80"><g
         clip-path="url(#clipPath86)"
         id="g82"><g
           transform="translate(3357,4497.5)"
           id="g88"><path
             id="path90"
             style="fill:none;stroke:#000000;stroke-width:6;stroke-linecap:round;stroke-linejoin:round;stroke-miterlimit:10;stroke-dasharray:none;stroke-opacity:1"
             d="M 0,0 C 0,-25.129 20.371,-45.5 45.5,-45.5" /></g></g></g><g
       transform="matrix(0.1199951,0,0,0.1199951,0.1149597,0)"
       id="g92"><g
         clip-path="url(#clipPath98)"
         id="g94"><g
           transform="translate(3356,4497)"
           id="g100"><path
             id="path102"
             style="fill:none;stroke:#000000;stroke-width:6;stroke-linecap:round;stroke-linejoin:round;stroke-miterlimit:10;stroke-dasharray:none;stroke-opacity:1"
             d="M 0,0 V 85" /></g></g></g><g
       transform="scale(0.12)"
       id="g104"><g
         clip-path="url(#clipPath110)"
         id="g106"><g
           transform="translate(3402.5,4628)"
           id="g112"><path
             id="path114"
             style="fill:none;stroke:#000000;stroke-width:6;stroke-linecap:round;stroke-linejoin:round;stroke-miterlimit:10;stroke-dasharray:none;stroke-opacity:1"
             d="M 0,0 C -25.129,0 -45.5,-20.371 -45.5,-45.5" /></g></g></g><g
       transform="scale(0.12)"
       id="g116"><g
         clip-path="url(#clipPath122)"
         id="g118"><g
           transform="scale(8.3333333)"
           id="g124"><text
             id="text128"
             style="font-variant:normal;font-weight:normal;font-size:7.60164022px;font-family:Arial;-inkscape-font-specification:ArialMT;writing-mode:lr-tb;fill:#000000;fill-opacity:1;fill-rule:nonzero;stroke:none"
             transform="matrix(1,0,0,-1,411.12,542.76)"><tspan
               id="tspan126"
               y="0"
               x="0 6.3321662 10.558678 12.246242">Main</tspan></text>
</g></g></g><g
       transform="scale(0.12)"
       id="g130"><g
         clip-path="url(#clipPath136)"
         id="g132"><g
           transform="translate(2643,2916)"
           id="g138"><path
             id="path140"
             style="fill:none;stroke:#000000;stroke-width:6;stroke-linecap:round;stroke-linejoin:round;stroke-miterlimit:10;stroke-dasharray:none;stroke-opacity:1"
             d="M 0,0 H 180" /></g></g></g><g
       transform="matrix(0.1199951,0,0,0.1199951,0,-0.1313171)"
       id="g142"><g
         clip-path="url(#clipPath148)"
         id="g144"><g
           transform="translate(2869,2871.5)"
           id="g150"><path
             id="path152"
             style="fill:none;stroke:#000000;stroke-width:6;stroke-linecap:round;stroke-linejoin:round;stroke-miterlimit:10;stroke-dasharray:none;stroke-opacity:1"
             d="M 0,0 C 0,25.129 -20.371,45.5 -45.5,45.5" /></g></g></g><g
       transform="scale(0.12)"
       id="g154"><g
         clip-path="url(#clipPath160)"
         id="g156"><g
           transform="translate(2869,2871)"
           id="g162"><path
             id="path164"
             style="fill:none;stroke:#000000;stroke-width:6;stroke-linecap:round;stroke-linejoin:round;stroke-miterlimit:10;stroke-dasharray:none;stroke-opacity:1"
             d="M 0,0 V -85" /></g><g
           transform="translate(2823.5,2741)"
           id="g166"><path
             id="path168"
             style="fill:none;stroke:#000000;stroke-width:6;stroke-linecap:round;stroke-linejoin:round;stroke-miterlimit:10;stroke-dasharray:none;stroke-opacity:1"
             d="M 0,0 C 25.129,0 45.5,20.371 45.5,45.5" /></g><g
           transform="translate(2823,2741)"
           id="g170"><path
             id="path172"
             style="fill:none;stroke:#000000;stroke-width:6;stroke-linecap:round;stroke-linejoin:round;stroke-miterlimit:10;stroke-dasharray:none;stroke-opacity:1"
             d="M 0,0 H -180" /></g><g
           transform="translate(2598,2786.5)"
           id="g174"><path
             id="path176"
             style="fill:none;stroke:#000000;stroke-width:6;stroke-linecap:round;stroke-linejoin:round;stroke-miterlimit:10;stroke-dasharray:none;stroke-opacity:1"
             d="M 0,0 C 0,-25.129 20.371,-45.5 45.5,-45.5" /></g></g></g><g
       transform="matrix(0.1199951,0,0,0.1199951,0.1094971,0)"
       id="g178"><g
         clip-path="url(#clipPath184)"
         id="g180"><g
           transform="translate(2597,2786)"
           id="g186"><path
             id="path188"
             style="fill:none;stroke:#000000;stroke-width:6;stroke-linecap:round;stroke-linejoin:round;stroke-miterlimit:10;stroke-dasharray:none;stroke-opacity:1"
             d="M 0,0 V 85" /></g></g></g><g
       transform="matrix(0.1199951,0,0,0.1199951,-0.0546875,-0.1313782)"
       id="g190"><g
         clip-path="url(#clipPath196)"
         id="g192"><g
           transform="translate(2643.5,2917)"
           id="g198"><path
             id="path200"
             style="fill:none;stroke:#000000;stroke-width:6;stroke-linecap:round;stroke-linejoin:round;stroke-miterlimit:10;stroke-dasharray:none;stroke-opacity:1"
             d="M 0,0 C -25.129,0 -45.5,-20.371 -45.5,-45.5" /></g></g></g><g
       transform="scale(0.12)"
       id="g202"><g
         clip-path="url(#clipPath208)"
         id="g204"><g
           transform="scale(8.3333333)"
           id="g210"><text
             id="text214"
             style="font-variant:normal;font-weight:normal;font-size:7.60164022px;font-family:Arial;-inkscape-font-specification:ArialMT;writing-mode:lr-tb;fill:#000000;fill-opacity:1;fill-rule:nonzero;stroke:none"
             transform="matrix(1,0,0,-1,316.32,337.44)"><tspan
               id="tspan212"
               y="0"
               x="0 5.0702939 10.558678 14.78519 19.011702">Sweep</tspan></text>
</g></g></g><g
       transform="matrix(0.1199951,0,0,0.1199951,0,0.1313477)"
       id="g216"><g
         clip-path="url(#clipPath222)"
         id="g218"><g
           transform="translate(4007.9994,2915.9996)"
           id="g224"><path
             id="path226"
             style="fill:none;stroke:#000000;stroke-width:6;stroke-linecap:round;stroke-linejoin:round;stroke-miterlimit:10;stroke-dasharray:none;stroke-opacity:1"
             d="M 0,0 H 181" /></g></g></g><g
       transform="scale(0.12)"
       id="g228"><g
         clip-path="url(#clipPath234)"
         id="g230"><g
           transform="translate(4235,2871.5)"
           id="g236"><path
             id="path238"
             style="fill:none;stroke:#000000;stroke-width:6;stroke-linecap:round;stroke-linejoin:round;stroke-miterlimit:10;stroke-dasharray:none;stroke-opacity:1"
             d="M 0,0 C 0,25.129 -20.371,45.5 -45.5,45.5" /></g></g></g><g
       transform="matrix(0.1199951,0,0,0.1199951,0.1477966,0)"
       id="g240"><g
         clip-path="url(#clipPath246)"
         id="g242"><g
           transform="translate(4234,2871)"
           id="g248"><path
             id="path250"
             style="fill:none;stroke:#000000;stroke-width:6;stroke-linecap:round;stroke-linejoin:round;stroke-miterlimit:10;stroke-dasharray:none;stroke-opacity:1"
             d="M 0,0 V -85" /></g></g></g><g
       transform="scale(0.12)"
       id="g252"><g
         clip-path="url(#clipPath258)"
         id="g254"><g
           transform="translate(4189.5,2741)"
           id="g260"><path
             id="path262"
             style="fill:none;stroke:#000000;stroke-width:6;stroke-linecap:round;stroke-linejoin:round;stroke-miterlimit:10;stroke-dasharray:none;stroke-opacity:1"
             d="M 0,0 C 25.129,0 45.5,20.371 45.5,45.5" /></g><g
           transform="translate(4189,2741)"
           id="g264"><path
             id="path266"
             style="fill:none;stroke:#000000;stroke-width:6;stroke-linecap:round;stroke-linejoin:round;stroke-miterlimit:10;stroke-dasharray:none;stroke-opacity:1"
             d="M 0,0 H -181" /></g><g
           transform="translate(3963,2786.5)"
           id="g268"><path
             id="path270"
             style="fill:none;stroke:#000000;stroke-width:6;stroke-linecap:round;stroke-linejoin:round;stroke-miterlimit:10;stroke-dasharray:none;stroke-opacity:1"
             d="M 0,0 C 0,-25.129 20.371,-45.5 45.5,-45.5" /></g><g
           transform="translate(3963,2786)"
           id="g272"><path
             id="path274"
             style="fill:none;stroke:#000000;stroke-width:6;stroke-linecap:round;stroke-linejoin:round;stroke-miterlimit:10;stroke-dasharray:none;stroke-opacity:1"
             d="M 0,0 V 85" /></g><g
           transform="translate(4008.5,2917)"
           id="g276"><path
             id="path278"
             style="fill:none;stroke:#000000;stroke-width:6;stroke-linecap:round;stroke-linejoin:round;stroke-miterlimit:10;stroke-dasharray:none;stroke-opacity:1"
             d="M 0,0 C -25.129,0 -45.5,-20.371 -45.5,-45.5" /></g><g
           transform="scale(8.3333333)"
           id="g280"><text
             id="text286"
             style="font-variant:normal;font-weight:normal;font-size:7.60164022px;font-family:Arial;-inkscape-font-specification:ArialMT;writing-mode:lr-tb;fill:#000000;fill-opacity:1;fill-rule:nonzero;stroke:none"
             transform="matrix(1,0,0,-1,483.96,337.44)"><tspan
               id="tspan282"
               y="0"
               x="0 5.0702939 9.2968054 13.523317 15.210881">Shell</tspan><tspan
               id="tspan284"
               y="-163.08"
               x="-89.760002 -87.646744 -83.420235 -79.619415 -77.931847 -73.705338 -72.017769 -69.486427 -67.373169 -65.685608 -63.998043 -59.77153 -57.240185 -53.013672 -50.482327 -48.369072 -44.142559">Incluir librerías</tspan></text>
</g><g
           transform="translate(3259,4262)"
           id="g288"><path
             id="path290"
             style="fill:none;stroke:#000000;stroke-width:6;stroke-linecap:round;stroke-linejoin:round;stroke-miterlimit:10;stroke-dasharray:none;stroke-opacity:1"
             d="M 0,0 H 467 V -143 H 0 V 0" /></g><g
           transform="scale(8.3333333)"
           id="g292"><text
             id="text306"
             style="font-variant:normal;font-weight:normal;font-size:6.08124018px;font-family:Arial;-inkscape-font-specification:ArialMT;writing-mode:lr-tb;fill:#000000;fill-opacity:1;fill-rule:nonzero;stroke:none"
             transform="matrix(1,0,0,-1,478.92,518.88)"><tspan
               id="tspan294"
               y="0"
               x="0 4.3906555 8.4468422">HAL</tspan><tspan
               id="tspan296"
               y="7.3200002"
               x="0 4.0561872 7.4373565 9.462409 12.843579 16.224749">Kernel</tspan><tspan
               id="tspan298"
               y="14.64"
               x="0 4.3906555 7.7718248 9.462409 10.812445 14.193614 15.54365 18.584269 19.934305 23.315474 26.696644 30.077812">Definiciones</tspan><tspan
               id="tspan300"
               y="21.959999"
               x="0.23999999 4.6306553 8.0118246 11.392994 13.083579 14.433614 17.814783 21.195953 23.221006 26.602175 29.642796 30.99283 34.374001 37.755169 41.136337">Configuraciones</tspan><tspan
               id="tspan302"
               y="29.16"
               x="0.47999999 4.5361872 7.9173565 9.9424095 11.292445 14.673615 18.054783 19.404819 22.785988">Variables</tspan><tspan
               id="tspan304"
               y="36.48"
               x="0 3.7156377 7.096807 10.477977 13.518597 14.868631 18.249802 21.63097 25.01214">Funciones</tspan></text>
</g><g
           transform="translate(3929,4199)"
           id="g308"><path
             id="path310"
             style="fill:#000000;fill-opacity:1;fill-rule:nonzero;stroke:#000000;stroke-width:6.25;stroke-linecap:round;stroke-linejoin:miter;stroke-miterlimit:10;stroke-dasharray:none;stroke-opacity:1"
             d="M 0,0 42,-9 H 0 Z M 42,-9 H 0 v -8 z" /></g><g
           transform="translate(3929,4190)"
           id="g312"><path
             id="path314"
             style="fill:none;stroke:#000000;stroke-width:6;stroke-linecap:round;stroke-linejoin:round;stroke-miterlimit:10;stroke-dasharray:none;stroke-opacity:1"
             d="M 0,0 V -8 L 42,0 0,9 V 0" /></g><g
           transform="translate(4001,4377)"
           id="g316"><path
             id="path318"
             style="fill:none;stroke:#000000;stroke-width:6;stroke-linecap:round;stroke-linejoin:round;stroke-miterlimit:10;stroke-dasharray:none;stroke-opacity:1"
             d="M 0,0 H -30 V -373 H 0" /></g><g
           transform="translate(3726,4190)"
           id="g320"><path
             id="path322"
             style="fill:none;stroke:#000000;stroke-width:6;stroke-linecap:round;stroke-linejoin:round;stroke-miterlimit:10;stroke-dasharray:none;stroke-opacity:1"
             d="M 0,0 H 203" /></g><g
           transform="translate(3484,4304)"
           id="g324"><path
             id="path326"
             style="fill:#000000;fill-opacity:1;fill-rule:nonzero;stroke:#000000;stroke-width:6.25;stroke-linecap:round;stroke-linejoin:miter;stroke-miterlimit:10;stroke-dasharray:none;stroke-opacity:1"
             d="M 0,0 H 8 V -42 Z M 8,0 V -42 L 17,0 Z" /></g><g
           transform="translate(3492,4304)"
           id="g328"><path
             id="path330"
             style="fill:none;stroke:#000000;stroke-width:6;stroke-linecap:round;stroke-linejoin:round;stroke-miterlimit:10;stroke-dasharray:none;stroke-opacity:1"
             d="M 0,0 H -8 L 0,-42 9,0 H 0" /></g><g
           transform="translate(3492,4262)"
           id="g332"><path
             id="path334"
             style="fill:none;stroke:#000000;stroke-width:6;stroke-linecap:round;stroke-linejoin:round;stroke-miterlimit:10;stroke-dasharray:none;stroke-opacity:1"
             d="M 0,0 V 189" /></g><g
           transform="scale(8.3333333)"
           id="g336"><text
             id="text340"
             style="font-variant:normal;font-weight:normal;font-size:7.60164022px;font-family:Arial;-inkscape-font-specification:ArialMT;writing-mode:lr-tb;fill:#000000;fill-opacity:1;fill-rule:nonzero;stroke:none"
             transform="matrix(1,0,0,-1,393.48,430.8)"><tspan
               id="tspan338"
               y="0"
               x="0 2.113256 6.3397679 8.0273323 11.828152 13.515716 17.742228 19.429792 21.117355 24.918177 29.144688 32.945507 34.633072 38.859585 43.086094 47.312607">Inicializaciones</tspan></text>
</g><g
           transform="translate(3259,3680)"
           id="g342"><path
             id="path344"
             style="fill:none;stroke:#000000;stroke-width:6;stroke-linecap:round;stroke-linejoin:round;stroke-miterlimit:10;stroke-dasharray:none;stroke-opacity:1"
             d="M 0,0 H 467 V -143 H 0 V 0" /></g><g
           transform="scale(8.3333333)"
           id="g346"><text
             id="text360"
             style="font-variant:normal;font-weight:normal;font-size:6.08124018px;font-family:Arial;-inkscape-font-specification:ArialMT;writing-mode:lr-tb;fill:#000000;fill-opacity:1;fill-rule:nonzero;stroke:none"
             transform="matrix(1,0,0,-1,478.92,464.04)"><tspan
               id="tspan348"
               y="0"
               x="0 4.3906555 8.4468422">HAL</tspan><tspan
               id="tspan350"
               y="7.3200002"
               x="0 4.0561872 7.4373565 9.462409 12.843579 16.224749">Kernel</tspan><tspan
               id="tspan352"
               y="14.64"
               x="0.23999999 4.2961869 7.6773567 11.058526 12.408562">Shell</tspan><tspan
               id="tspan354"
               y="21.84"
               x="0 4.3906555 8.4468422 12.837498">UART</tspan><tspan
               id="tspan356"
               y="29.16"
               x="0 4.3906555 8.4468422">USB</tspan><tspan
               id="tspan358"
               y="36.48"
               x="-0.12">I</tspan></text>
<text
             id="text364"
             style="font-variant:normal;font-weight:normal;font-size:4.25687981px;font-family:Arial;-inkscape-font-specification:ArialMT;writing-mode:lr-tb;fill:#000000;fill-opacity:1;fill-rule:nonzero;stroke:none"
             transform="matrix(1,0,0,-1,480.36,430.2)"><tspan
               id="tspan362"
               y="0"
               x="0">2</tspan></text>
<text
             id="text374"
             style="font-variant:normal;font-weight:normal;font-size:6.08124018px;font-family:Arial;-inkscape-font-specification:ArialMT;writing-mode:lr-tb;fill:#000000;fill-opacity:1;fill-rule:nonzero;stroke:none"
             transform="matrix(1,0,0,-1,482.76,427.56)"><tspan
               id="tspan366"
               y="0"
               x="0">C</tspan><tspan
               id="tspan368"
               y="7.3200002"
               x="-3.5999999 0.45618707 1.8062223 5.1873918 8.5685616 11.949731 15.3309">Si5351A</tspan><tspan
               id="tspan370"
               y="14.64"
               x="-3.5999999 0.79065526 4.1718249 7.5529943 10.934164 13.974784 15.665368 19.381006 22.762175 26.818363 30.199532 33.5807 36.961872 41.018059 42.708641 47.099297 50.480469 53.861637 57.242805">Códec TLV320AIC3204</tspan><tspan
               id="tspan372"
               y="21.959999"
               x="-3.96">I</tspan></text>
<text
             id="text378"
             style="font-variant:normal;font-weight:normal;font-size:4.25687981px;font-family:Arial;-inkscape-font-specification:ArialMT;writing-mode:lr-tb;fill:#000000;fill-opacity:1;fill-rule:nonzero;stroke:none"
             transform="matrix(1,0,0,-1,480.36,408.24)"><tspan
               id="tspan376"
               y="0"
               x="0">2</tspan></text>
<text
             id="text384"
             style="font-variant:normal;font-weight:normal;font-size:6.08124018px;font-family:Arial;-inkscape-font-specification:ArialMT;writing-mode:lr-tb;fill:#000000;fill-opacity:1;fill-rule:nonzero;stroke:none"
             transform="matrix(1,0,0,-1,482.76,405.6)"><tspan
               id="tspan380"
               y="0"
               x="0">S</tspan><tspan
               id="tspan382"
               y="7.3200002"
               x="-3.3599999 2.3806906 5.7618599 7.4524446 10.493065 13.874234 17.255404 20.636574">Watchdog</tspan></text>
</g><g
           transform="translate(3929,3617)"
           id="g386"><path
             id="path388"
             style="fill:#000000;fill-opacity:1;fill-rule:nonzero;stroke:#000000;stroke-width:6.25;stroke-linecap:round;stroke-linejoin:miter;stroke-miterlimit:10;stroke-dasharray:none;stroke-opacity:1"
             d="M 0,0 42,-8 H 0 Z M 42,-8 H 0 v -9 z" /></g><g
           transform="translate(3929,3609)"
           id="g390"><path
             id="path392"
             style="fill:none;stroke:#000000;stroke-width:6;stroke-linecap:round;stroke-linejoin:round;stroke-miterlimit:10;stroke-dasharray:none;stroke-opacity:1"
             d="M 0,0 V -9 L 42,0 0,8 V 0" /></g><g
           transform="translate(4001,3920)"
           id="g394"><path
             id="path396"
             style="fill:none;stroke:#000000;stroke-width:6;stroke-linecap:round;stroke-linejoin:round;stroke-miterlimit:10;stroke-dasharray:none;stroke-opacity:1"
             d="M 0,0 H -30 V -623 H 0" /></g><g
           transform="translate(3726,3609)"
           id="g398"><path
             id="path400"
             style="fill:none;stroke:#000000;stroke-width:6;stroke-linecap:round;stroke-linejoin:round;stroke-miterlimit:10;stroke-dasharray:none;stroke-opacity:1"
             d="M 0,0 H 203" /></g><g
           transform="translate(3484,3722)"
           id="g402"><path
             id="path404"
             style="fill:#000000;fill-opacity:1;fill-rule:nonzero;stroke:#000000;stroke-width:6.25;stroke-linecap:round;stroke-linejoin:miter;stroke-miterlimit:10;stroke-dasharray:none;stroke-opacity:1"
             d="M 0,0 H 8 V -42 Z M 8,0 V -42 L 17,0 Z" /></g><g
           transform="translate(3492,3722)"
           id="g406"><path
             id="path408"
             style="fill:none;stroke:#000000;stroke-width:6;stroke-linecap:round;stroke-linejoin:round;stroke-miterlimit:10;stroke-dasharray:none;stroke-opacity:1"
             d="M 0,0 H -8 L 0,-42 9,0 H 0" /></g><g
           transform="translate(3492,3680)"
           id="g410"><path
             id="path412"
             style="fill:none;stroke:#000000;stroke-width:6;stroke-linecap:round;stroke-linejoin:round;stroke-miterlimit:10;stroke-dasharray:none;stroke-opacity:1"
             d="M 0,0 V 439" /></g><g
           transform="scale(8.3333333)"
           id="g414"><text
             id="text418"
             style="font-variant:normal;font-weight:normal;font-size:7.60164022px;font-family:Arial;-inkscape-font-specification:ArialMT;writing-mode:lr-tb;fill:#000000;fill-opacity:1;fill-rule:nonzero;stroke:none"
             transform="matrix(1,0,0,-1,319.44,295.32)"><tspan
               id="tspan416"
               y="0"
               x="0 4.226512 6.3397679 10.779125 12.892382">p = 0</tspan></text>
</g><g
           transform="translate(2637,2551)"
           id="g420"><path
             id="path422"
             style="fill:none;stroke:#000000;stroke-width:6;stroke-linecap:round;stroke-linejoin:round;stroke-miterlimit:10;stroke-dasharray:none;stroke-opacity:1"
             d="M 0,0 H 192 V -143 H 0 V 0" /></g><g
           transform="translate(2724,2593)"
           id="g424"><path
             id="path426"
             style="fill:#000000;fill-opacity:1;fill-rule:nonzero;stroke:#000000;stroke-width:6.25;stroke-linecap:round;stroke-linejoin:miter;stroke-miterlimit:10;stroke-dasharray:none;stroke-opacity:1"
             d="M 0,0 H 9 V -42 Z M 9,0 V -42 L 18,0 Z" /></g><g
           transform="translate(2733,2593)"
           id="g428"><path
             id="path430"
             style="fill:none;stroke:#000000;stroke-width:6;stroke-linecap:round;stroke-linejoin:round;stroke-miterlimit:10;stroke-dasharray:none;stroke-opacity:1"
             d="M 0,0 H -9 L 0,-42 9,0 H 0" /></g><g
           transform="translate(2733,2551)"
           id="g432"><path
             id="path434"
             style="fill:none;stroke:#000000;stroke-width:6;stroke-linecap:round;stroke-linejoin:round;stroke-miterlimit:10;stroke-dasharray:none;stroke-opacity:1"
             d="M 0,0 V 190" /></g><g
           transform="scale(8.3333333)"
           id="g436"><text
             id="text440"
             style="font-variant:normal;font-weight:normal;font-size:7.60164022px;font-family:Arial;-inkscape-font-specification:ArialMT;writing-mode:lr-tb;fill:#000000;fill-opacity:1;fill-rule:nonzero;stroke:none"
             transform="matrix(1,0,0,-1,301.8,242.52)"><tspan
               id="tspan438"
               y="0"
               x="0 4.226512 6.3397679 10.779125 12.892382 17.118893 21.345406 27.67757 29.790827 31.904083 36.130596 40.357105 44.583618 46.696873 50.923386">p &lt; núm. puntos</tspan></text>
</g><g
           transform="translate(3053,2039)"
           id="g442"><path
             id="path444"
             style="fill:none;stroke:#000000;stroke-width:6;stroke-linecap:round;stroke-linejoin:round;stroke-miterlimit:10;stroke-dasharray:none;stroke-opacity:1"
             d="M 0,0 -320,180 -640,0 -320,-180 0,0" /></g><g
           transform="translate(2724,2261)"
           id="g446"><path
             id="path448"
             style="fill:#000000;fill-opacity:1;fill-rule:nonzero;stroke:#000000;stroke-width:6.25;stroke-linecap:round;stroke-linejoin:miter;stroke-miterlimit:10;stroke-dasharray:none;stroke-opacity:1"
             d="M 0,0 H 9 V -42 Z M 9,0 V -42 L 18,0 Z" /></g><g
           transform="translate(2733,2261)"
           id="g450"><path
             id="path452"
             style="fill:none;stroke:#000000;stroke-width:6;stroke-linecap:round;stroke-linejoin:round;stroke-miterlimit:10;stroke-dasharray:none;stroke-opacity:1"
             d="M 0,0 H -9 L 0,-42 9,0 H 0" /></g><g
           transform="translate(2733,2219)"
           id="g454"><path
             id="path456"
             style="fill:none;stroke:#000000;stroke-width:6;stroke-linecap:round;stroke-linejoin:round;stroke-miterlimit:10;stroke-dasharray:none;stroke-opacity:1"
             d="M 0,0 V 189" /></g><g
           transform="scale(8.3333333)"
           id="g458"><text
             id="text462"
             style="font-variant:normal;font-weight:normal;font-size:7.60164022px;font-family:Arial;-inkscape-font-specification:ArialMT;writing-mode:lr-tb;fill:#000000;fill-opacity:1;fill-rule:nonzero;stroke:none"
             transform="matrix(1,0,0,-1,293.4,189.48)"><tspan
               id="tspan460"
               y="0"
               x="0 4.226512 8.4530239 12.253843 14.3671 18.593611 21.124958 25.351469 27.464725 31.265545 35.492058 39.718571 43.94508 45.632645 47.745899 51.546722 55.773232 59.999744 64.226257">Lectura canal códec</tspan></text>
</g><g
           transform="translate(2424,1670)"
           id="g464"><path
             id="path466"
             style="fill:none;stroke:#000000;stroke-width:6;stroke-linecap:round;stroke-linejoin:round;stroke-miterlimit:10;stroke-dasharray:none;stroke-opacity:1"
             d="M 0,0 H 618 V -143 H 0 V 0" /></g><g
           transform="translate(2724,1712)"
           id="g468"><path
             id="path470"
             style="fill:#000000;fill-opacity:1;fill-rule:nonzero;stroke:#000000;stroke-width:6.25;stroke-linecap:round;stroke-linejoin:miter;stroke-miterlimit:10;stroke-dasharray:none;stroke-opacity:1"
             d="M 0,0 H 9 V -42 Z M 9,0 V -42 L 18,0 Z" /></g><g
           transform="translate(2733,1712)"
           id="g472"><path
             id="path474"
             style="fill:none;stroke:#000000;stroke-width:6;stroke-linecap:round;stroke-linejoin:round;stroke-miterlimit:10;stroke-dasharray:none;stroke-opacity:1"
             d="M 0,0 H -9 L 0,-42 9,0 H 0" /></g><g
           transform="translate(2733,1670)"
           id="g476"><path
             id="path478"
             style="fill:none;stroke:#000000;stroke-width:6;stroke-linecap:round;stroke-linejoin:round;stroke-miterlimit:10;stroke-dasharray:none;stroke-opacity:1"
             d="M 0,0 V 189" /></g><g
           transform="scale(8.3333333)"
           id="g480"><text
             id="text484"
             style="font-variant:normal;font-weight:normal;font-size:7.60164022px;font-family:Arial;-inkscape-font-specification:ArialMT;writing-mode:lr-tb;fill:#000000;fill-opacity:1;fill-rule:nonzero;stroke:none"
             transform="matrix(1,0,0,-1,307.56,149.64)"><tspan
               id="tspan482"
               y="0"
               x="0 5.4883842 9.7148962 11.40246 15.20328 19.429792 21.117355 25.343868 27.875214 29.98847">Calcular S</tspan></text>
<text
             id="text488"
             style="font-variant:normal;font-weight:normal;font-size:5.32104015px;font-family:Arial;-inkscape-font-specification:ArialMT;writing-mode:lr-tb;fill:#000000;fill-opacity:1;fill-rule:nonzero;stroke:none"
             transform="matrix(1,0,0,-1,342.12,147.84)"><tspan
               id="tspan486"
               y="0"
               x="0 2.9584982">11</tspan></text>
</g><g
           transform="translate(2540,1337)"
           id="g490"><path
             id="path492"
             style="fill:none;stroke:#000000;stroke-width:6;stroke-linecap:round;stroke-linejoin:round;stroke-miterlimit:10;stroke-dasharray:none;stroke-opacity:1"
             d="M 0,0 H 385 V -143 H 0 V 0" /></g><g
           transform="translate(2724,1379)"
           id="g494"><path
             id="path496"
             style="fill:#000000;fill-opacity:1;fill-rule:nonzero;stroke:#000000;stroke-width:6.25;stroke-linecap:round;stroke-linejoin:miter;stroke-miterlimit:10;stroke-dasharray:none;stroke-opacity:1"
             d="M 0,0 H 9 V -42 Z M 9,0 V -42 L 18,0 Z" /></g><g
           transform="translate(2733,1379)"
           id="g498"><path
             id="path500"
             style="fill:none;stroke:#000000;stroke-width:6;stroke-linecap:round;stroke-linejoin:round;stroke-miterlimit:10;stroke-dasharray:none;stroke-opacity:1"
             d="M 0,0 H -9 L 0,-42 9,0 H 0" /></g><g
           transform="translate(2733,1337)"
           id="g502"><path
             id="path504"
             style="fill:none;stroke:#000000;stroke-width:6;stroke-linecap:round;stroke-linejoin:round;stroke-miterlimit:10;stroke-dasharray:none;stroke-opacity:1"
             d="M 0,0 V 190" /></g><g
           transform="scale(8.3333333)"
           id="g506"><text
             id="text510"
             style="font-variant:normal;font-weight:normal;font-size:7.60164022px;font-family:Arial;-inkscape-font-specification:ArialMT;writing-mode:lr-tb;fill:#000000;fill-opacity:1;fill-rule:nonzero;stroke:none"
             transform="matrix(1,0,0,-1,279.24,109.68)"><tspan
               id="tspan508"
               y="0"
               x="0 5.0702939 9.2968054 10.98437 12.671934 16.472754 20.699266 23.230612 25.343868 29.144688 33.371201 35.902546 38.433891 42.660404 46.461224 50.262043 51.949608 56.176121 60.40263 62.515888 66.742401 70.96891 73.082169 77.308678 79.840027 82.371368 86.597885 89.129227 93.355743">Aplicar corrección de errores</tspan></text>
</g><g
           transform="translate(2300,1005)"
           id="g512"><path
             id="path514"
             style="fill:none;stroke:#000000;stroke-width:6;stroke-linecap:round;stroke-linejoin:round;stroke-miterlimit:10;stroke-dasharray:none;stroke-opacity:1"
             d="M 0,0 H 866 V -143 H 0 V 0" /></g><g
           transform="translate(2724,1047)"
           id="g516"><path
             id="path518"
             style="fill:#000000;fill-opacity:1;fill-rule:nonzero;stroke:#000000;stroke-width:6.25;stroke-linecap:round;stroke-linejoin:miter;stroke-miterlimit:10;stroke-dasharray:none;stroke-opacity:1"
             d="M 0,0 H 9 V -42 Z M 9,0 V -42 L 18,0 Z" /></g><g
           transform="translate(2733,1047)"
           id="g520"><path
             id="path522"
             style="fill:none;stroke:#000000;stroke-width:6;stroke-linecap:round;stroke-linejoin:round;stroke-miterlimit:10;stroke-dasharray:none;stroke-opacity:1"
             d="M 0,0 H -9 L 0,-42 9,0 H 0" /></g><g
           transform="translate(2733,1005)"
           id="g524"><path
             id="path526"
             style="fill:none;stroke:#000000;stroke-width:6;stroke-linecap:round;stroke-linejoin:round;stroke-miterlimit:10;stroke-dasharray:none;stroke-opacity:1"
             d="M 0,0 V 189" /></g><g
           transform="scale(8.3333333)"
           id="g528"><text
             id="text532"
             style="font-variant:normal;font-weight:normal;font-size:7.60164022px;font-family:Arial;-inkscape-font-specification:ArialMT;writing-mode:lr-tb;fill:#000000;fill-opacity:1;fill-rule:nonzero;stroke:none"
             transform="matrix(1,0,0,-1,313.08,69.84)"><tspan
               id="tspan530"
               y="0"
               x="0 4.226512 6.3397679 10.779125 12.892382 17.118893 19.232149 23.671507 25.784763">p = p + 1</tspan></text>
</g><g
           transform="translate(2587,672)"
           id="g534"><path
             id="path536"
             style="fill:none;stroke:#000000;stroke-width:6;stroke-linecap:round;stroke-linejoin:round;stroke-miterlimit:10;stroke-dasharray:none;stroke-opacity:1"
             d="M 0,0 H 292 V -143 H 0 V 0" /></g><g
           transform="translate(2724,714)"
           id="g538"><path
             id="path540"
             style="fill:#000000;fill-opacity:1;fill-rule:nonzero;stroke:#000000;stroke-width:6.25;stroke-linecap:round;stroke-linejoin:miter;stroke-miterlimit:10;stroke-dasharray:none;stroke-opacity:1"
             d="M 0,0 H 9 V -42 Z M 9,0 V -42 L 18,0 Z" /></g><g
           transform="translate(2733,714)"
           id="g542"><path
             id="path544"
             style="fill:none;stroke:#000000;stroke-width:6;stroke-linecap:round;stroke-linejoin:round;stroke-miterlimit:10;stroke-dasharray:none;stroke-opacity:1"
             d="M 0,0 H -9 L 0,-42 9,0 H 0" /></g><g
           transform="translate(2733,672)"
           id="g546"><path
             id="path548"
             style="fill:none;stroke:#000000;stroke-width:6;stroke-linecap:round;stroke-linejoin:round;stroke-miterlimit:10;stroke-dasharray:none;stroke-opacity:1"
             d="M 0,0 V 190" /></g><g
           transform="translate(2733,2325)"
           id="g550"><path
             id="path552"
             style="fill:none;stroke:#000000;stroke-width:6;stroke-linecap:round;stroke-linejoin:round;stroke-miterlimit:10;stroke-dasharray:none;stroke-opacity:1"
             d="M 0,0 H -607 V -1985 H 0 v 189" /></g><g
           transform="translate(2691,2334)"
           id="g554"><path
             id="path556"
             style="fill:#000000;fill-opacity:1;fill-rule:nonzero;stroke:#000000;stroke-width:6.25;stroke-linecap:round;stroke-linejoin:miter;stroke-miterlimit:10;stroke-dasharray:none;stroke-opacity:1"
             d="M 0,0 42,-9 H 0 Z M 42,-9 H 0 v -8 z" /></g><g
           transform="translate(2691,2325)"
           id="g558"><path
             id="path560"
             style="fill:none;stroke:#000000;stroke-width:6;stroke-linecap:round;stroke-linejoin:round;stroke-miterlimit:10;stroke-dasharray:none;stroke-opacity:1"
             d="M 0,0 V -8 L 42,0 0,9 V 0" /></g><g
           transform="translate(2733,2657)"
           id="g562"><path
             id="path564"
             style="fill:none;stroke:#000000;stroke-width:6;stroke-linecap:round;stroke-linejoin:round;stroke-miterlimit:10;stroke-dasharray:none;stroke-opacity:1"
             d="M 0,0 H 509 V -618 H 320" /></g><g
           transform="translate(2775,2666)"
           id="g566"><path
             id="path568"
             style="fill:#000000;fill-opacity:1;fill-rule:nonzero;stroke:#000000;stroke-width:6.25;stroke-linecap:round;stroke-linejoin:miter;stroke-miterlimit:10;stroke-dasharray:none;stroke-opacity:1"
             d="M 0,0 V -9 H -42 Z M 0,-9 H -42 L 0,-18 Z" /></g><g
           transform="translate(2775,2657)"
           id="g570"><path
             id="path572"
             style="fill:none;stroke:#000000;stroke-width:6;stroke-linecap:round;stroke-linejoin:round;stroke-miterlimit:10;stroke-dasharray:none;stroke-opacity:1"
             d="M 0,0 V -9 L -42,0 0,9 V 0" /></g><g
           transform="scale(8.3333333)"
           id="g574"><text
             id="text582"
             style="font-variant:normal;font-weight:normal;font-size:7.60164022px;font-family:Arial;-inkscape-font-specification:ArialMT;writing-mode:lr-tb;fill:#000000;fill-opacity:1;fill-rule:nonzero;stroke:none"
             transform="matrix(1,0,0,-1,318.12,212.04)"><tspan
               id="tspan576"
               y="0"
               x="0 5.0702939">Sí</tspan><tspan
               id="tspan578"
               y="-35.279999"
               x="55.560001 61.048386">No</tspan><tspan
               id="tspan580"
               y="-83.279999"
               x="149.28 153.50652 157.73302 161.95953 164.49088 166.60414 170.40495 174.63147 180.96364 185.19014 189.41666 193.64317">Leer comando</tspan></text>
</g><g
           transform="translate(3874,2551)"
           id="g584"><path
             id="path586"
             style="fill:none;stroke:#000000;stroke-width:6;stroke-linecap:round;stroke-linejoin:round;stroke-miterlimit:10;stroke-dasharray:none;stroke-opacity:1"
             d="M 0,0 H 449 V -143 H 0 V 0" /></g><g
           transform="translate(4090,2593)"
           id="g588"><path
             id="path590"
             style="fill:#000000;fill-opacity:1;fill-rule:nonzero;stroke:#000000;stroke-width:6.25;stroke-linecap:round;stroke-linejoin:miter;stroke-miterlimit:10;stroke-dasharray:none;stroke-opacity:1"
             d="M 0,0 H 8 V -42 Z M 8,0 V -42 L 17,0 Z" /></g><g
           transform="translate(4098,2593)"
           id="g592"><path
             id="path594"
             style="fill:none;stroke:#000000;stroke-width:6;stroke-linecap:round;stroke-linejoin:round;stroke-miterlimit:10;stroke-dasharray:none;stroke-opacity:1"
             d="M 0,0 H -8 L 0,-42 9,0 H 0" /></g><g
           transform="translate(4098,2551)"
           id="g596"><path
             id="path598"
             style="fill:none;stroke:#000000;stroke-width:6;stroke-linecap:round;stroke-linejoin:round;stroke-miterlimit:10;stroke-dasharray:none;stroke-opacity:1"
             d="M 0,0 V 190" /></g><g
           transform="scale(8.3333333)"
           id="g600"><text
             id="text604"
             style="font-variant:normal;font-weight:normal;font-size:7.60164022px;font-family:Arial;-inkscape-font-specification:ArialMT;writing-mode:lr-tb;fill:#000000;fill-opacity:1;fill-rule:nonzero;stroke:none"
             transform="matrix(1,0,0,-1,460.8,255.48)"><tspan
               id="tspan602"
               y="0"
               x="0 5.0702939 6.7578578 10.98437 14.78519 19.011702 21.124958 25.351469 27.882816 29.996071 33.79689 38.023403 44.355568 48.582081 52.808594 57.035107">Ejecutar comando</tspan></text>
</g><g
           transform="translate(3819,2219)"
           id="g606"><path
             id="path608"
             style="fill:none;stroke:#000000;stroke-width:6;stroke-linecap:round;stroke-linejoin:round;stroke-miterlimit:10;stroke-dasharray:none;stroke-opacity:1"
             d="M 0,0 H 559 V -143 H 0 V 0" /></g><g
           transform="translate(4090,2261)"
           id="g610"><path
             id="path612"
             style="fill:#000000;fill-opacity:1;fill-rule:nonzero;stroke:#000000;stroke-width:6.25;stroke-linecap:round;stroke-linejoin:miter;stroke-miterlimit:10;stroke-dasharray:none;stroke-opacity:1"
             d="M 0,0 H 8 V -42 Z M 8,0 V -42 L 17,0 Z" /></g><g
           transform="translate(4098,2261)"
           id="g614"><path
             id="path616"
             style="fill:none;stroke:#000000;stroke-width:6;stroke-linecap:round;stroke-linejoin:round;stroke-miterlimit:10;stroke-dasharray:none;stroke-opacity:1"
             d="M 0,0 H -8 L 0,-42 9,0 H 0" /></g><g
           transform="translate(4098,2219)"
           id="g618"><path
             id="path620"
             style="fill:none;stroke:#000000;stroke-width:6;stroke-linecap:round;stroke-linejoin:round;stroke-miterlimit:10;stroke-dasharray:none;stroke-opacity:1"
             d="M 0,0 V 189" /></g><g
           transform="translate(4098,2663)"
           id="g622"><path
             id="path624"
             style="fill:none;stroke:#000000;stroke-width:6;stroke-linecap:round;stroke-linejoin:round;stroke-miterlimit:10;stroke-dasharray:none;stroke-opacity:1"
             d="M 0,0 H 391 V -777 H 0 v 190" /></g><g
           transform="translate(4140,2672)"
           id="g626"><path
             id="path628"
             style="fill:#000000;fill-opacity:1;fill-rule:nonzero;stroke:#000000;stroke-width:6.25;stroke-linecap:round;stroke-linejoin:miter;stroke-miterlimit:10;stroke-dasharray:none;stroke-opacity:1"
             d="M 0,0 V -9 H -42 Z M 0,-9 H -42 L 0,-17 Z" /></g><g
           transform="translate(4140,2663)"
           id="g630"><path
             id="path632"
             style="fill:none;stroke:#000000;stroke-width:6;stroke-linecap:round;stroke-linejoin:round;stroke-miterlimit:10;stroke-dasharray:none;stroke-opacity:1"
             d="M 0,0 V -8 L -42,0 0,9 V 0" /></g></g></g><g
       transform="matrix(0.1199951,0,0,0.1199799,0,-0.0487061)"
       id="g634"><g
         clip-path="url(#clipPath640)"
         id="g636"><g
           transform="translate(2733.1109,2916.8948)"
           id="g642"><path
             id="path644"
             style="fill:none;stroke:#000000;stroke-width:6;stroke-linecap:round;stroke-linejoin:round;stroke-miterlimit:10;stroke-dasharray:none;stroke-opacity:1"
             d="M 0,0 V 190 H 1365 V 0" /></g></g></g><g
       transform="scale(0.12)"
       id="g646"><g
         clip-path="url(#clipPath652)"
         id="g648"><g
           transform="translate(3492,3537)"
           id="g654"><path
             id="path656"
             style="fill:none;stroke:#000000;stroke-width:6;stroke-linecap:round;stroke-linejoin:round;stroke-miterlimit:10;stroke-dasharray:none;stroke-opacity:1"
             d="M 0,0 V -431" /></g><g
           transform="translate(2724,2958)"
           id="g658"><path
             id="path660"
             style="fill:#000000;fill-opacity:1;fill-rule:nonzero;stroke:#000000;stroke-width:6.25;stroke-linecap:round;stroke-linejoin:miter;stroke-miterlimit:10;stroke-dasharray:none;stroke-opacity:1"
             d="M 0,0 H 9 V -42 Z M 9,0 V -42 L 18,0 Z" /></g><g
           transform="translate(2733,2958)"
           id="g662"><path
             id="path664"
             style="fill:none;stroke:#000000;stroke-width:6;stroke-linecap:round;stroke-linejoin:round;stroke-miterlimit:10;stroke-dasharray:none;stroke-opacity:1"
             d="M 0,0 H -9 L 0,-42 9,0 H 0" /></g><g
           transform="translate(4090,2958)"
           id="g666"><path
             id="path668"
             style="fill:#000000;fill-opacity:1;fill-rule:nonzero;stroke:#000000;stroke-width:6.25;stroke-linecap:round;stroke-linejoin:miter;stroke-miterlimit:10;stroke-dasharray:none;stroke-opacity:1"
             d="M 0,0 H 8 V -42 Z M 8,0 V -42 L 17,0 Z" /></g></g></g><g
       transform="scale(0.1199951)"
       id="g670"><g
         clip-path="url(#clipPath676)"
         id="g672"><g
           transform="translate(4097.9994,2957.9996)"
           id="g678"><path
             id="path680"
             style="fill:none;stroke:#000000;stroke-width:6;stroke-linecap:round;stroke-linejoin:round;stroke-miterlimit:10;stroke-dasharray:none;stroke-opacity:1"
             d="M 0,0 H -8 L 0,-42 9,0 H 0" /></g></g></g><g
       transform="scale(0.12)"
       id="g682"><g
         clip-path="url(#clipPath688)"
         id="g684"><g
           transform="translate(303,187)"
           id="g690"><path
             id="path692"
             style="fill:none;stroke:#000000;stroke-width:6.25;stroke-linecap:round;stroke-linejoin:round;stroke-miterlimit:10;stroke-dasharray:none;stroke-opacity:1"
             d="M 0,0 H 6409 V 4584 H 0 V 0" /></g></g></g></g></svg>